<svg width="40" height="39" viewBox="0 0 40 39" fill="none" xmlns="http://www.w3.org/2000/svg">
<g clip-path="url(#clip0_24_18551)">
<path d="M22.5101 8.59143V26.8532C22.5101 28.185 21.4341 29.261 20.1023 29.261C18.7705 29.261 17.6945 28.185 17.6945 26.8532V8.59143L12.1716 14.1143C11.231 15.0549 9.70359 15.0549 8.76304 14.1143C7.82249 13.1738 7.82249 11.6463 8.76304 10.7058L18.3943 1.07455C19.3348 0.134003 20.8623 0.134003 21.8028 1.07455L31.4341 10.7058C32.3746 11.6463 32.3746 13.1738 31.4341 14.1143C30.4935 15.0549 28.9661 15.0549 28.0255 14.1143L22.5101 8.59143ZM5.65546 26.8532H15.2867C15.2867 29.5093 17.4462 31.6688 20.1023 31.6688C22.7584 31.6688 24.9179 29.5093 24.9179 26.8532H34.5492C37.2053 26.8532 39.3648 29.0127 39.3648 31.6688V34.0766C39.3648 36.7327 37.2053 38.8922 34.5492 38.8922H5.65546C2.99935 38.8922 0.839844 36.7327 0.839844 34.0766V31.6688C0.839844 29.0127 2.99935 26.8532 5.65546 26.8532ZM33.3453 34.6785C33.8242 34.6785 34.2835 34.4883 34.6222 34.1496C34.9609 33.811 35.1511 33.3516 35.1511 32.8727C35.1511 32.3937 34.9609 31.9344 34.6222 31.5957C34.2835 31.2571 33.8242 31.0668 33.3453 31.0668C32.8663 31.0668 32.407 31.2571 32.0683 31.5957C31.7297 31.9344 31.5394 32.3937 31.5394 32.8727C31.5394 33.3516 31.7297 33.811 32.0683 34.1496C32.407 34.4883 32.8663 34.6785 33.3453 34.6785Z" fill="#558B56"/>
</g>
<defs>
<clipPath id="clip0_24_18551">
<rect width="38.5249" height="38.5249" fill="white" transform="translate(0.839844 0.366699)"/>
</clipPath>
</defs>
</svg>
