<?xml version="1.0" standalone="no"?>
<!DOCTYPE svg PUBLIC "-//W3C//DTD SVG 20010904//EN"
 "http://www.w3.org/TR/2001/REC-SVG-20010904/DTD/svg10.dtd">
<svg version="1.0" xmlns="http://www.w3.org/2000/svg"
 width="700.000000pt" height="700.000000pt" viewBox="0 0 700.000000 700.000000"
 preserveAspectRatio="xMidYMid meet">
<metadata>
Created by potrace 1.14, written by Peter Selinger 2001-2017
</metadata>
<g transform="translate(0.000000,700.000000) scale(0.100000,-0.100000)"
fill="#000000" stroke="none">
<path d="M3439 6899 c-20 -4 -47 -10 -61 -13 -47 -8 -180 -66 -233 -101 -161
-107 -266 -250 -317 -432 -20 -74 -25 -165 -15 -322 2 -37 4 -36 -322 -208
-146 -76 -546 -289 -641 -340 -36 -19 -116 -62 -179 -96 l-113 -60 -23 29
c-146 184 -354 290 -590 299 -163 6 -295 -24 -424 -96 -244 -136 -384 -369
-384 -639 0 -271 138 -500 384 -639 64 -36 179 -78 236 -86 21 -3 49 -7 63
-10 14 -2 27 -4 30 -4 3 -1 5 -298 5 -661 l0 -660 -30 -1 c-52 -1 -105 -9
-163 -25 -32 -8 -61 -16 -67 -18 -21 -5 -132 -60 -170 -85 -220 -142 -346
-387 -333 -646 18 -335 257 -605 608 -686 60 -14 222 -17 285 -6 83 14 100 19
176 48 94 36 174 87 256 163 58 53 64 57 79 42 13 -14 19 -14 32 -4 12 10 16
10 19 1 3 -7 9 -13 14 -13 6 0 7 5 4 10 -3 5 -1 10 5 10 7 0 10 -6 7 -14 -3
-8 1 -17 9 -20 12 -5 14 -1 10 17 -3 12 -3 16 0 9 3 -6 10 -10 15 -7 5 4 6 -2
2 -12 -6 -15 -4 -16 8 -6 10 8 19 9 29 1 13 -8 12 -9 -2 -5 -9 3 -22 0 -28 -8
-10 -12 -18 -10 -51 11 -21 13 -39 20 -39 15 0 -5 18 -19 41 -30 30 -16 45
-19 54 -11 9 8 13 7 11 -2 0 -7 4 -13 9 -13 6 0 9 6 9 12 -1 7 2 10 7 7 5 -3
9 0 9 7 0 8 6 6 18 -4 10 -10 22 -14 26 -10 4 4 4 -1 0 -11 -6 -15 -4 -17 6
-11 8 5 11 4 7 -2 -4 -6 1 -17 10 -24 14 -12 15 -11 8 11 l-7 25 21 -24 c11
-13 18 -27 16 -32 -3 -4 4 -7 15 -6 25 2 25 6 3 24 -16 13 -16 13 4 3 12 -5
25 -15 28 -20 4 -6 11 -8 16 -5 5 4 9 2 9 -2 0 -5 -10 -14 -22 -22 -21 -13
-22 -13 -10 2 12 14 11 16 -7 14 -22 -1 -25 -6 -13 -22 10 -14 56 -39 48 -27
-3 6 1 12 9 16 9 3 12 12 8 23 -4 13 0 11 15 -6 12 -13 22 -28 22 -33 0 -5 9
-4 19 2 26 13 32 13 28 -2 -1 -7 6 -12 15 -12 10 1 15 -3 11 -9 -4 -6 0 -8 11
-4 10 4 19 1 22 -8 4 -8 11 -12 18 -8 6 4 6 1 -2 -9 -10 -13 -10 -17 4 -22 22
-8 24 -8 20 7 -1 6 -1 9 1 4 3 -4 9 -5 14 -1 5 3 9 0 9 -5 0 -6 -5 -11 -11
-11 -5 0 -8 -4 -5 -9 9 -14 -32 -1 -45 15 -6 8 -8 14 -3 14 10 0 -17 20 -28
20 -4 0 -4 -8 -1 -17 6 -15 5 -16 -9 -3 -9 8 -12 18 -7 21 5 3 -2 12 -16 19
-23 12 -28 12 -35 0 -7 -11 -10 -12 -10 -2 0 7 -4 10 -10 7 -5 -3 -7 0 -4 8 3
8 -2 14 -11 14 -28 0 -8 -31 25 -39 8 -2 19 -7 23 -13 5 -6 6 -1 3 10 -6 19
-6 19 9 1 8 -10 16 -23 17 -28 2 -5 10 -10 19 -11 9 -2 28 -10 42 -20 15 -9
33 -17 42 -17 8 0 15 -4 15 -10 0 -5 6 -10 14 -10 8 0 16 -5 18 -11 2 -5 10
-11 18 -12 8 -2 21 -6 28 -10 6 -5 12 -5 12 -1 0 4 7 -1 15 -12 14 -18 14 -18
13 8 -2 23 -6 27 -25 23 -13 -2 -21 0 -18 6 4 5 1 9 -4 9 -6 0 -11 -4 -11 -10
0 -5 -9 -1 -20 10 -11 11 -24 20 -30 20 -5 0 -10 5 -10 11 0 5 5 7 10 4 6 -3
10 -1 10 4 0 6 5 11 11 11 8 0 8 -5 -1 -15 -15 -18 1 -20 18 -3 9 9 12 9 12
-1 0 -7 5 -9 10 -6 6 4 9 1 8 -5 -2 -7 5 -14 15 -16 9 -2 23 -5 31 -7 8 -2 20
-8 27 -13 8 -6 30 -18 50 -27 46 -21 66 -44 52 -58 -8 -8 -11 -6 -10 6 1 10
-11 26 -28 36 -34 20 -55 24 -55 9 0 -5 5 -9 11 -7 6 1 14 -5 16 -13 4 -13 3
-13 -6 0 -6 8 -11 11 -11 6 0 -5 -7 -3 -15 4 -12 10 -13 15 -4 20 8 6 8 9 0
14 -6 4 -14 0 -17 -8 -7 -18 12 -46 31 -46 7 0 18 -7 25 -15 13 -15 30 -12 30
7 0 6 -8 7 -17 3 -14 -5 -15 -3 -6 6 16 16 35 1 27 -23 -4 -13 -2 -18 4 -14 6
3 17 0 25 -8 8 -8 17 -12 21 -9 3 4 6 2 6 -4 0 -5 11 -15 24 -21 22 -10 24 -9
21 9 -2 11 0 17 5 14 5 -3 11 -1 15 5 10 16 25 1 18 -18 -5 -14 -3 -15 8 -4
13 12 38 18 26 6 -3 -4 -2 -15 4 -26 9 -16 13 -17 27 -6 15 12 16 11 3 -4 -8
-11 -9 -18 -3 -18 6 0 14 5 18 11 9 16 25 -11 18 -33 -2 -9 1 -20 7 -24 8 -5
9 -3 4 6 -5 8 -4 11 3 7 13 -9 44 2 37 14 -3 4 -13 6 -23 3 -13 -5 -14 -4 -4
4 9 6 22 5 37 -2 15 -7 19 -13 12 -16 -14 -6 -21 -30 -8 -30 5 0 12 6 14 13 4
9 8 8 16 -3 8 -11 11 -12 11 -2 0 7 5 10 11 6 16 -10 -4 -20 -38 -19 -16 0
-27 6 -26 13 3 13 -9 16 -20 5 -8 -7 23 -32 41 -33 7 0 20 -7 29 -15 8 -8 19
-13 24 -10 5 4 9 1 9 -5 0 -6 15 -1 33 11 21 16 27 17 18 6 -15 -19 -1 -23 17
-5 9 9 12 9 12 0 0 -7 -5 -12 -11 -12 -5 0 -8 -4 -5 -9 3 -5 18 -7 34 -5 19 2
31 -3 40 -16 6 -10 8 -21 4 -24 -14 -8 -5 -239 12 -306 72 -280 299 -492 596
-557 68 -15 291 -8 360 11 232 63 419 217 510 419 30 69 58 171 61 232 2 22 5
45 8 50 9 16 8 29 -4 38 -6 6 -4 7 6 4 12 -4 16 2 16 23 0 16 -5 28 -11 27 -6
-1 -11 5 -11 13 0 8 -4 19 -10 23 -6 4 -2 7 9 5 10 -2 21 2 23 8 2 7 -4 11
-13 10 -9 0 -18 7 -19 16 -2 11 2 15 13 11 11 -5 13 -3 7 7 -5 9 -4 11 4 6 6
-4 9 -12 6 -17 -4 -5 -2 -9 3 -9 16 0 22 13 11 26 -15 18 8 29 28 12 14 -11
16 -11 10 4 -8 22 15 42 31 26 9 -9 12 -9 12 1 0 8 6 11 16 7 11 -4 15 -2 11
7 -4 10 2 13 19 9 13 -2 24 0 24 7 0 5 -8 8 -17 5 -15 -5 -16 -4 -3 5 8 5 18
7 23 2 10 -10 -3 -42 -15 -35 -5 3 -20 -5 -33 -19 l-25 -24 43 1 c45 1 67 10
67 28 0 6 -6 6 -15 -2 -9 -7 -19 -10 -23 -6 -4 4 2 15 13 24 27 23 32 54 8 45
-15 -6 -16 -5 -3 9 13 14 16 14 26 0 11 -16 34 -9 34 10 0 7 -6 6 -15 -2 -10
-9 -15 -9 -15 -1 0 11 13 15 39 12 8 -2 10 2 5 11 -5 9 -2 8 11 -2 17 -14 18
-13 12 2 -7 19 17 43 33 33 5 -3 10 -1 10 4 0 6 3 10 8 10 19 -3 33 2 27 11
-3 6 -1 10 5 10 7 0 9 -8 5 -21 -4 -12 -3 -19 2 -16 5 3 15 1 23 -4 13 -8 13
-10 0 -18 -8 -5 -17 -8 -21 -5 -4 2 -7 -5 -6 -16 1 -11 4 -20 8 -20 4 0 16 -3
26 -6 17 -5 17 -5 0 9 -14 12 -15 16 -4 20 8 3 20 1 28 -4 12 -7 12 -9 -1 -9
-13 0 -13 -1 0 -10 22 -14 26 -12 26 10 0 11 -8 23 -18 26 -19 6 -25 24 -8 24
6 0 10 -4 10 -10 0 -5 4 -10 8 -10 13 0 10 30 -2 32 -6 0 -15 2 -21 3 -5 2
-17 3 -25 4 -12 1 -12 3 2 12 10 5 15 17 12 27 -5 14 -4 15 5 2 10 -14 16 -7
12 13 -1 5 3 6 8 3 5 -4 12 0 14 6 4 9 6 10 6 1 1 -6 -3 -15 -9 -18 -5 -3 -10
-11 -10 -17 0 -6 9 -3 20 7 11 10 20 14 20 9 0 -11 20 18 20 30 0 5 -8 2 -17
-5 -16 -13 -17 -12 -4 3 7 10 17 16 21 13 5 -3 10 -2 13 2 2 5 2 3 1 -4 -2 -7
1 -15 5 -18 11 -6 23 23 16 36 -4 5 2 6 11 2 11 -4 15 -3 10 5 -3 6 -1 14 5
18 7 4 9 3 6 -3 -4 -6 0 -14 9 -17 11 -4 15 -2 11 8 -10 25 6 27 30 4 26 -24
32 -14 7 13 -14 16 -13 19 22 35 28 13 39 15 42 6 2 -7 8 -10 12 -7 5 3 7 12
4 19 -3 8 -1 17 5 21 6 3 9 0 5 -8 -3 -9 2 -13 13 -12 24 1 43 14 43 28 0 8
-3 8 -12 -1 -15 -15 -28 -15 -28 -1 0 5 4 8 9 5 5 -3 14 1 21 9 6 7 19 11 27
8 12 -5 14 -3 8 7 -6 9 -4 11 4 6 7 -5 17 -1 24 8 11 13 14 13 31 1 15 -11 16
-15 5 -16 -8 -1 -18 -2 -24 -4 -5 -1 -16 -3 -23 -3 -7 -1 -11 -6 -7 -12 3 -5
12 -7 20 -3 9 3 15 -1 15 -11 0 -9 -5 -16 -11 -16 -5 0 -7 5 -3 12 4 6 3 8 -4
4 -6 -3 -13 -2 -17 4 -9 15 -25 12 -25 -5 0 -8 3 -14 8 -14 20 3 31 -2 26 -14
-3 -8 2 -20 11 -27 18 -15 21 0 3 18 -9 9 -9 12 -1 12 7 0 15 -9 18 -20 5 -16
10 -18 26 -9 22 11 21 30 -2 38 -12 4 -12 2 0 -12 9 -11 10 -17 2 -17 -6 0
-11 3 -12 8 0 4 -2 17 -3 30 -2 20 5 27 27 23 14 -2 7 18 -14 38 -15 14 -17
21 -8 26 7 5 10 4 6 -2 -4 -6 0 -14 9 -17 24 -9 28 -7 15 7 -13 16 -5 27 21
27 24 0 23 -9 -4 -37 l-21 -23 22 0 c12 0 20 3 17 8 -2 4 2 18 11 32 8 14 12
17 9 8 -5 -18 5 -24 17 -12 10 11 -13 45 -25 38 -7 -5 -8 -2 -3 5 5 9 10 10
18 2 13 -13 31 -15 23 -3 -6 10 2 22 28 42 18 14 19 14 5 -7 -8 -13 -18 -23
-24 -23 -5 0 -3 -5 5 -10 21 -14 30 -12 24 4 -3 8 0 17 6 21 14 9 30 -13 23
-31 -4 -10 0 -11 19 -2 27 13 35 45 12 45 -9 0 -13 -6 -10 -14 4 -8 1 -11 -5
-8 -6 4 -8 14 -5 22 5 11 2 13 -9 9 -10 -3 -13 -2 -10 5 4 5 12 8 18 6 6 -2
18 4 27 12 8 9 12 12 8 7 -13 -16 -9 -31 4 -18 7 7 17 8 28 2 13 -7 22 -5 31
7 12 14 12 16 -2 11 -9 -3 -22 -2 -30 4 -11 8 -10 9 4 4 16 -5 25 8 10 17 -5
2 -3 2 4 1 6 -2 14 2 17 9 3 9 5 8 5 -1 1 -8 6 -10 14 -6 7 5 6 0 -3 -11 -14
-17 -13 -18 3 -12 10 4 21 7 23 7 3 0 2 5 -2 12 -5 7 -3 8 6 3 10 -6 9 -11 -4
-21 -16 -11 -16 -13 3 -19 11 -3 20 -11 18 -17 -1 -6 4 -13 11 -15 8 -3 10 1
6 11 -3 9 -1 16 4 16 17 0 26 -22 12 -30 -8 -5 -9 -10 -2 -14 6 -4 16 2 22 11
8 13 10 14 9 3 -3 -28 1 -40 12 -40 6 0 9 7 5 15 -5 13 -1 13 27 -1 17 -9 43
-24 57 -33 41 -27 181 -75 251 -87 57 -9 211 -10 270 -1 110 17 247 77 347
152 311 234 384 670 164 987 -68 98 -224 226 -318 260 -25 9 -34 18 -34 35 0
13 -5 23 -11 23 -5 0 -7 -6 -3 -12 4 -7 4 -10 -1 -6 -4 4 -15 2 -24 -4 -12
-10 -12 -8 2 8 26 31 21 41 -8 14 -19 -17 -28 -21 -36 -13 -6 6 -17 9 -24 7
-7 -3 -16 -1 -19 4 -5 9 20 9 53 1 7 -2 16 2 18 9 3 7 1 12 -4 11 -23 -4 -35
2 -29 17 5 12 1 14 -17 10 -12 -3 -16 -3 -9 0 6 3 12 10 12 15 0 6 -4 8 -9 5
-4 -3 -7 9 -7 27 1 18 -3 35 -8 39 -8 5 -7 8 0 8 6 0 18 -7 25 -17 11 -13 11
-17 2 -20 -7 -3 -13 -9 -13 -14 0 -6 6 -9 13 -8 26 3 38 -1 31 -12 -4 -8 -9
-7 -15 2 -6 10 -9 10 -9 2 0 -23 22 -25 41 -4 10 11 26 18 34 15 10 -4 15 0
15 15 0 12 -5 21 -11 21 -5 0 -8 -4 -5 -8 3 -5 0 -9 -7 -9 -7 0 -16 -2 -22 -3
-20 -5 -35 0 -35 11 0 8 6 7 17 -2 14 -12 16 -12 11 1 -3 8 -12 14 -21 14 -9
-1 -19 7 -22 17 -4 11 -10 17 -14 15 -4 -3 -8 1 -8 9 0 11 4 12 14 4 10 -9 13
-8 13 1 0 6 -10 15 -22 18 -23 6 -23 6 2 12 29 8 50 2 50 -12 0 -6 -7 -4 -17
3 -14 12 -16 12 -11 -1 2 -8 11 -15 19 -15 8 0 19 -9 26 -20 7 -11 12 -16 13
-11 0 5 7 3 15 -4 12 -10 15 -10 15 2 0 8 -11 20 -25 26 -39 18 -31 38 13 33
6 -1 12 7 12 19 0 11 -5 20 -11 20 -5 0 -7 -6 -3 -12 4 -7 4 -10 -1 -6 -4 4
-16 3 -26 -2 -12 -7 -22 -6 -33 5 -16 16 -30 20 -22 6 3 -5 -2 -12 -11 -15
-10 -4 -14 -4 -10 0 4 4 2 13 -5 21 -9 11 -7 12 7 7 14 -6 16 -4 9 7 -10 17
-15 43 -6 34 4 -4 7 -12 7 -18 0 -5 5 -12 10 -14 6 -2 11 6 11 17 0 11 -8 22
-17 25 -10 3 -20 12 -23 20 -3 9 0 12 10 8 7 -3 14 -9 14 -14 0 -5 4 -9 10 -9
16 0 7 24 -15 37 -14 9 -16 12 -5 13 13 0 13 1 0 10 -8 5 -11 10 -6 10 5 0 2
8 -5 17 -8 10 -9 14 -2 10 6 -4 14 -3 18 3 3 5 0 10 -7 10 -9 0 -9 3 2 10 11
7 11 10 2 10 -7 0 -10 5 -7 10 3 5 0 10 -7 10 -9 0 -10 3 -2 8 6 4 10 15 8 25
-2 15 0 16 12 6 11 -9 14 -9 14 1 0 6 -10 15 -22 18 -23 6 -23 6 2 12 29 8 50
2 50 -12 0 -6 -7 -4 -17 3 -14 12 -16 12 -11 -1 2 -8 11 -15 19 -15 8 0 22
-12 31 -27 21 -33 38 -36 38 -8 0 11 -5 20 -11 20 -5 0 -7 -5 -3 -12 4 -7 3
-8 -4 -4 -6 4 -8 14 -5 23 4 10 2 14 -5 9 -6 -3 -14 -1 -17 5 -13 19 5 22 25
4 17 -15 20 -16 20 -3 0 17 -22 30 -55 34 -10 1 -21 7 -23 13 -2 6 -8 11 -13
11 -6 0 -8 -4 -5 -9 3 -5 -2 -12 -11 -15 -10 -4 -14 -4 -10 0 4 4 2 13 -5 21
-9 11 -7 12 7 7 14 -6 16 -4 9 7 -10 17 -15 43 -6 34 4 -4 7 -12 7 -18 0 -5 5
-12 11 -14 20 -7 10 31 -11 44 -11 7 -14 12 -7 13 7 0 10 5 7 10 -4 6 -12 7
-18 3 -8 -5 -8 -2 0 9 7 8 9 19 5 23 -4 5 -2 5 4 2 7 -4 18 1 25 10 12 14 11
15 -7 9 -20 -6 -21 -3 -19 41 1 27 -3 54 -9 62 -8 11 -8 13 2 7 9 -6 11 -1 8
18 -3 14 -2 25 2 25 20 -3 28 3 28 21 0 11 -5 18 -11 16 -5 -2 -9 -9 -8 -15 2
-6 -2 -11 -7 -11 -15 0 -12 16 5 30 8 7 15 17 15 23 0 5 -10 2 -22 -9 -13 -10
-18 -12 -12 -4 6 8 10 30 9 48 -2 26 0 30 11 21 11 -9 14 -8 14 1 0 6 -10 15
-22 18 -23 6 -23 6 2 12 29 8 50 2 50 -12 0 -6 -7 -4 -17 3 -14 12 -16 12 -11
-1 2 -8 11 -15 19 -15 8 0 18 -6 22 -13 9 -13 27 -7 27 9 0 6 -4 8 -9 4 -11
-6 -26 13 -17 22 3 4 15 -2 26 -12 17 -15 20 -16 20 -3 0 17 -22 30 -55 34
-10 1 -21 7 -23 13 -2 6 -8 11 -13 11 -6 0 -8 -4 -5 -9 3 -5 -2 -12 -11 -15
-10 -4 -14 -4 -10 0 4 4 2 13 -5 21 -9 11 -7 12 7 7 14 -6 16 -4 9 7 -10 17
-15 43 -6 34 4 -4 7 -12 7 -18 0 -5 5 -12 11 -14 20 -7 10 31 -11 44 -11 7
-14 12 -7 13 7 0 10 5 7 10 -4 6 -12 7 -18 3 -8 -5 -8 -2 0 9 7 8 9 19 5 23
-4 5 -2 5 4 2 7 -4 18 1 25 10 12 14 11 15 -7 9 -20 -6 -21 -3 -19 41 1 27 -3
54 -9 62 -8 11 -8 13 2 7 9 -6 11 -1 8 18 -3 14 -2 25 2 25 31 -5 40 15 17 34
-6 5 -3 7 8 3 10 -3 17 0 17 7 0 8 3 8 9 -2 7 -11 10 -11 15 0 3 8 3 3 0 -10
-4 -16 -3 -21 5 -16 7 4 18 1 26 -5 12 -10 15 -9 15 3 0 8 -7 18 -16 21 -24 9
-3 30 66 67 295 157 447 506 360 829 -49 183 -182 348 -360 448 -53 30 -190
85 -190 76 0 -2 -12 1 -27 7 -38 14 -226 20 -288 9 -90 -16 -104 -20 -169 -44
-85 -30 -198 -102 -264 -166 l-54 -52 -46 25 c-26 13 -121 64 -212 112 -91 48
-196 104 -235 125 -63 34 -256 136 -455 243 -110 58 -184 99 -196 109 -8 6 -8
25 1 70 32 175 -21 377 -140 535 -107 143 -278 249 -464 288 -71 15 -244 17
-302 4z m2886 -2699 c3 -5 1 -10 -4 -10 -6 0 -11 5 -11 10 0 6 2 10 4 10 3 0
8 -4 11 -10z m-4821 -2515 c-4 -10 0 -13 13 -11 10 2 27 0 38 -5 15 -6 12 -8
-13 -5 -26 4 -32 1 -28 -10 8 -21 -2 -17 -14 6 -6 11 -8 25 -5 30 9 15 15 12
9 -5z m872 -463 c-5 15 -3 16 14 6 19 -12 19 -13 -1 -20 -12 -5 -17 -13 -13
-20 4 -6 -4 -3 -18 8 -15 10 -22 20 -18 22 5 2 6 11 3 20 -4 10 2 7 16 -8 16
-17 21 -20 17 -8z m298 -163 c-4 -8 1 -9 17 -4 23 7 23 7 4 -8 -11 -9 -21 -11
-23 -6 -2 5 -8 9 -13 9 -6 0 -7 -5 -3 -12 5 -7 3 -8 -6 -3 -10 6 -9 11 5 22
23 16 28 17 19 2z m1856 -19 c0 -5 -5 -10 -11 -10 -5 0 -7 5 -4 10 3 6 8 10
11 10 2 0 4 -4 4 -10z"/>
<path d="M6415 4230 c-3 -5 -1 -10 4 -10 6 0 11 5 11 10 0 6 -2 10 -4 10 -3 0
-8 -4 -11 -10z"/>
<path d="M6356 4201 c-4 -6 -1 -11 6 -11 7 -1 2 -7 -12 -14 -22 -12 -24 -21
-25 -79 -1 -47 2 -64 11 -60 21 8 24 -14 4 -32 -15 -14 -17 -21 -9 -32 6 -7 8
-13 3 -13 -11 -1 37 -29 50 -30 5 0 3 7 -4 15 -7 8 -16 12 -21 9 -5 -3 -9 0
-9 5 0 6 5 11 11 11 5 0 8 4 4 10 -3 5 -13 7 -23 3 -11 -4 -10 0 5 11 19 14
30 62 11 50 -9 -6 -32 36 -24 44 3 3 6 0 6 -7 0 -7 5 -9 12 -5 8 5 7 10 -3 18
-8 6 -15 18 -17 26 -2 13 -1 13 10 0 18 -21 49 -25 42 -6 -3 9 -11 14 -17 13
-6 -1 -12 8 -13 20 -1 12 2 20 7 18 13 -9 21 14 11 31 -6 11 -11 13 -16 5z"/>
<path d="M6378 4165 c-10 -13 -18 -27 -18 -32 0 -4 4 -2 9 6 7 11 10 9 16 -8
3 -11 11 -21 16 -21 13 0 11 17 -3 24 -7 3 -3 3 10 0 26 -6 31 19 8 42 -18 18
-18 18 -38 -11z m36 -3 c3 -5 -1 -9 -9 -9 -8 0 -15 4 -15 9 0 4 4 8 9 8 6 0
12 -4 15 -8z"/>
<path d="M6405 4104 c-11 -8 -25 -12 -33 -9 -7 2 -10 1 -7 -4 3 -5 1 -12 -5
-16 -16 -10 -11 -21 11 -22 18 -2 19 0 7 15 -9 13 -7 12 10 -2 23 -20 31 -10
10 14 -7 8 -3 6 10 -4 20 -17 22 -17 22 -3 0 10 -6 17 -12 17 -9 0 -8 3 2 10
8 5 12 11 10 14 -3 2 -14 -2 -25 -10z"/>
<path d="M6383 4043 c-7 -2 -10 -10 -7 -18 3 -7 0 -16 -5 -20 -6 -3 -9 -11 -6
-16 10 -15 23 -10 21 9 -1 12 5 16 22 15 16 -2 22 2 22 17 0 11 -5 20 -11 20
-5 0 -7 -6 -3 -12 6 -10 4 -10 -7 -2 -8 6 -19 9 -26 7z"/>
<path d="M6390 4000 c0 -5 5 -10 10 -10 6 0 10 5 10 10 0 6 -4 10 -10 10 -5 0
-10 -4 -10 -10z"/>
<path d="M6397 3980 c-24 -15 -26 -19 -12 -30 8 -7 12 -16 9 -22 -6 -10 14
-38 27 -38 5 0 9 9 9 20 0 11 -5 20 -11 20 -5 0 -7 -5 -3 -12 4 -7 3 -8 -5 -4
-6 4 -9 12 -5 17 3 5 0 18 -7 27 -11 13 -8 12 9 -2 19 -17 22 -17 22 -3 0 10
-6 17 -12 17 -9 0 -8 3 2 10 8 5 12 11 10 13 -3 2 -18 -3 -33 -13z"/>
<path d="M6350 3920 c0 -5 7 -10 15 -10 8 0 15 -4 15 -10 0 -5 -8 -6 -17 -3
-16 6 -16 5 -4 -11 9 -11 17 -13 21 -6 5 7 11 6 20 -5 15 -18 30 -20 30 -3 0
6 -3 9 -6 5 -3 -3 -17 7 -31 24 -25 29 -43 37 -43 19z"/>
<path d="M6320 3797 c0 -5 6 -7 14 -4 7 3 13 0 13 -6 -1 -40 3 -51 15 -39 10
10 10 15 -2 23 -13 9 -13 10 2 6 17 -6 34 18 19 28 -14 8 -61 2 -61 -8z"/>
<path d="M6390 3778 c-25 -42 -25 -51 0 -36 11 7 20 16 20 21 0 4 -5 5 -12 1
-7 -4 -8 -3 -4 4 4 6 13 9 21 5 10 -3 15 2 15 16 0 31 -17 26 -40 -11z"/>
<path d="M6415 3750 c-3 -5 -1 -10 4 -10 6 0 11 5 11 10 0 6 -2 10 -4 10 -3 0
-8 -4 -11 -10z"/>
<path d="M6387 3733 c-11 -10 -8 -25 3 -18 6 4 17 1 25 -5 12 -10 15 -9 15 3
0 8 -7 18 -16 21 -19 7 -19 7 -27 -1z"/>
<path d="M6350 3720 c0 -5 6 -10 13 -10 6 -1 1 -7 -13 -14 -22 -12 -24 -21
-25 -79 -1 -47 2 -64 11 -60 21 8 24 -14 4 -32 -15 -14 -17 -21 -9 -32 6 -7 8
-13 3 -13 -11 -1 37 -29 50 -30 5 0 3 7 -4 15 -7 8 -16 12 -21 9 -5 -3 -9 0
-9 5 0 6 5 11 11 11 5 0 8 4 4 10 -3 5 -13 7 -23 3 -11 -4 -10 0 5 11 19 14
30 62 11 50 -9 -6 -32 36 -24 44 3 3 6 0 6 -7 0 -7 5 -9 12 -5 8 5 7 10 -3 18
-8 6 -15 18 -17 26 -2 13 -1 13 10 0 18 -21 49 -25 42 -6 -3 9 -11 14 -17 13
-6 -1 -12 8 -13 20 -1 12 2 20 7 18 12 -8 20 11 13 29 -7 18 -24 22 -24 6z"/>
<path d="M6378 3685 c-10 -13 -18 -27 -18 -32 0 -4 4 -2 9 6 7 11 10 9 16 -8
3 -11 11 -21 16 -21 13 0 11 17 -3 24 -7 3 -3 3 10 0 26 -6 31 19 8 42 -18 18
-18 18 -38 -11z m36 -3 c3 -5 -1 -9 -9 -9 -8 0 -15 4 -15 9 0 4 4 8 9 8 6 0
12 -4 15 -8z"/>
<path d="M6405 3624 c-11 -8 -25 -12 -33 -9 -7 2 -10 1 -7 -4 3 -5 1 -12 -5
-16 -16 -10 -11 -21 11 -22 18 -2 19 0 7 15 -9 13 -7 12 10 -2 23 -20 31 -10
10 14 -7 8 -3 6 10 -4 20 -17 22 -17 22 -3 0 10 -6 17 -12 17 -9 0 -8 3 2 10
8 5 12 11 10 14 -3 2 -14 -2 -25 -10z"/>
<path d="M6383 3563 c-7 -2 -10 -10 -7 -18 3 -7 0 -16 -5 -20 -6 -3 -9 -11 -6
-16 10 -15 23 -10 21 9 -1 12 5 16 22 15 16 -2 22 2 22 17 0 11 -5 20 -11 20
-5 0 -7 -6 -3 -12 6 -10 4 -10 -7 -2 -8 6 -19 9 -26 7z"/>
<path d="M6390 3520 c0 -5 5 -10 10 -10 6 0 10 5 10 10 0 6 -4 10 -10 10 -5 0
-10 -4 -10 -10z"/>
<path d="M6397 3500 c-24 -15 -26 -19 -12 -30 8 -7 12 -16 9 -22 -6 -10 14
-38 27 -38 5 0 9 9 9 20 0 11 -5 20 -11 20 -5 0 -7 -5 -3 -12 4 -7 3 -8 -5 -4
-6 4 -9 12 -5 17 3 5 0 18 -7 27 -11 13 -8 12 9 -2 19 -17 22 -17 22 -3 0 10
-6 17 -12 17 -9 0 -8 3 2 10 8 5 12 11 10 13 -3 2 -18 -3 -33 -13z"/>
<path d="M6350 3440 c0 -5 7 -10 15 -10 8 0 15 -4 15 -10 0 -5 -8 -6 -17 -3
-16 6 -16 5 -4 -11 9 -11 17 -13 21 -6 5 7 11 6 20 -5 15 -18 30 -20 30 -3 0
6 -3 9 -6 5 -3 -3 -17 7 -31 24 -25 29 -43 37 -43 19z"/>
<path d="M6327 3305 c2 -11 5 -26 5 -32 1 -14 11 -17 21 -6 4 3 2 12 -4 19
-12 14 -3 38 11 29 5 -3 12 -1 15 5 4 6 -5 10 -23 8 -25 -2 -29 -6 -25 -23z"/>
<path d="M6350 3300 c0 -3 4 -10 9 -15 10 -10 -13 -51 -27 -48 -4 0 -5 -4 -3
-10 2 -7 4 -17 4 -24 0 -6 11 -16 25 -22 18 -9 23 -9 19 1 -2 7 -11 12 -18 10
-11 -3 -12 -1 -1 9 18 20 14 33 -5 18 -16 -13 -17 -12 -4 3 7 10 17 16 21 13
4 -3 11 2 14 11 5 12 2 15 -11 10 -15 -5 -15 -4 1 9 13 10 23 12 30 5 13 -13
26 -13 26 2 0 6 -3 8 -7 5 -3 -4 -12 2 -20 12 -12 18 -53 26 -53 11z"/>
<path d="M6392 3265 c4 -4 1 -20 -7 -35 -8 -15 -11 -31 -7 -35 4 -4 7 -16 7
-27 0 -14 8 -22 23 -24 12 -2 22 1 22 7 0 5 -4 7 -10 4 -5 -3 -10 -1 -10 5 0
6 -5 8 -12 4 -7 -4 -8 -3 -4 4 4 6 13 9 21 5 10 -3 15 2 15 16 0 12 -5 21 -11
21 -5 0 -8 -4 -5 -8 3 -5 -1 -9 -9 -9 -8 0 -15 4 -15 9 0 4 5 8 10 8 6 0 10 5
10 11 0 5 -5 7 -12 3 -7 -4 -8 -3 -4 5 6 9 11 9 22 0 11 -9 14 -8 14 2 0 8
-10 20 -22 28 -13 7 -20 10 -16 6z"/>
<path d="M6353 3155 c0 -8 9 -17 19 -21 10 -3 18 -10 18 -16 0 -6 3 -8 7 -5 3
4 12 2 20 -4 10 -9 13 -8 13 5 0 9 -4 17 -10 17 -5 1 -15 2 -21 3 -6 0 -16 9
-23 19 -16 21 -23 22 -23 2z"/>
<path d="M6350 3120 c0 -5 7 -10 15 -10 8 0 15 -4 15 -10 0 -5 -8 -6 -17 -3
-16 6 -16 5 -4 -11 10 -12 16 -13 21 -6 4 7 11 11 16 10 5 -1 10 4 13 11 2 6
-1 9 -7 6 -5 -4 -15 0 -22 8 -14 17 -30 20 -30 5z"/>
<path d="M6396 3042 c-4 -7 -5 -12 -2 -12 2 0 11 -3 20 -6 9 -3 16 -1 16 6 0
6 -4 9 -9 6 -5 -4 -11 -1 -13 6 -3 9 -6 9 -12 0z"/>
<path d="M6340 3000 c0 -5 9 -10 19 -10 10 0 22 -7 25 -16 6 -16 26 -11 26 7
0 6 -5 7 -10 4 -6 -3 -13 1 -16 9 -7 17 -44 22 -44 6z"/>
<path d="M6391 2917 c-7 -9 -10 -20 -7 -26 4 -5 -4 -7 -16 -4 -14 4 -20 2 -15
-3 5 -5 18 -9 30 -9 12 -1 28 -4 35 -8 7 -5 12 -3 12 6 0 8 -10 19 -22 26
l-23 11 23 -6 c13 -3 22 -1 22 6 0 6 -4 9 -9 6 -5 -4 -11 -1 -13 5 -2 7 -8 6
-17 -4z"/>
<path d="M1674 1574 c3 -8 2 -12 -4 -9 -6 3 -10 1 -10 -4 0 -6 7 -11 15 -11 8
0 15 -4 15 -8 0 -4 16 -14 35 -21 19 -7 35 -17 35 -22 0 -5 5 -9 11 -9 8 0 9
4 0 13 -6 8 -7 18 -3 22 4 5 -1 5 -10 2 -11 -4 -27 5 -47 29 -32 36 -47 44
-37 18z"/>
<path d="M5520 1565 c-7 -8 -8 -20 -4 -27 5 -7 9 -17 9 -22 0 -5 6 -11 13 -14
7 -2 10 2 6 12 -6 14 5 21 29 17 12 -2 8 17 -9 33 -19 20 -28 20 -44 1z m34
-4 c3 -5 -1 -11 -9 -15 -8 -3 -17 0 -21 6 -4 7 -3 8 4 4 7 -4 12 -2 12 3 0 13
7 14 14 2z"/>
<path d="M5465 1560 c-8 -13 15 -24 27 -12 6 6 4 11 -6 15 -8 3 -18 2 -21 -3z"/>
<path d="M5480 1532 c-20 -9 -24 -38 -5 -40 8 -1 22 -3 30 -4 8 -1 12 -5 9
-10 -3 -4 0 -8 6 -8 19 0 6 33 -13 36 -26 4 -31 10 -12 18 11 4 14 2 9 -6 -4
-7 -3 -8 5 -4 6 4 9 12 6 17 -7 10 -14 10 -35 1z"/>
<path d="M5390 1520 c0 -5 5 -10 11 -10 5 0 7 5 4 10 -3 6 -8 10 -11 10 -2 0
-4 -4 -4 -10z"/>
<path d="M5554 1518 c-2 -3 9 -6 26 -6 16 1 30 5 30 9 0 10 -50 8 -56 -3z"/>
<path d="M5617 1509 c-9 -6 -22 -7 -29 -3 -8 5 -9 2 -5 -9 3 -9 2 -19 -4 -22
-5 -4 -8 -1 -7 6 6 26 -22 18 -36 -10 -12 -22 -21 -28 -33 -24 -10 4 -14 2 -9
-5 3 -6 -3 -16 -14 -22 -11 -6 -20 -7 -19 -3 3 20 -2 27 -10 14 -5 -8 -7 -20
-4 -28 4 -10 12 -8 34 8 16 11 29 17 29 12 0 -4 7 0 14 10 8 10 17 18 20 17
12 -3 66 25 66 33 0 5 5 5 12 1 6 -4 8 -3 4 4 -3 5 0 12 6 15 7 2 11 7 8 10
-3 3 -13 1 -23 -4z m-47 -43 c0 -2 -7 -7 -16 -10 -8 -3 -12 -2 -9 4 6 10 25
14 25 6z"/>
<path d="M5347 1494 c-3 -3 -3 -12 0 -20 3 -8 -4 -15 -19 -19 -14 -4 -24 -14
-25 -26 -1 -11 2 -17 6 -15 4 3 13 1 21 -4 11 -7 12 -12 4 -20 -9 -9 -17 -6
-32 11 -17 17 -24 19 -35 11 -8 -7 -17 -9 -20 -5 -4 3 -7 1 -7 -6 0 -6 7 -14
15 -17 8 -4 15 -15 15 -27 0 -19 14 -16 16 4 1 5 2 11 3 14 0 3 10 1 21 -5 16
-9 22 -6 35 19 17 34 18 42 8 40 -5 -1 -15 -1 -23 0 -11 1 -10 5 5 14 20 11
25 13 45 16 7 1 7 7 0 21 -11 20 -22 25 -33 14z m-63 -105 c-3 -5 -10 -7 -15
-3 -5 3 -7 10 -3 15 3 5 10 7 15 3 5 -3 7 -10 3 -15z"/>
<path d="M5390 1486 c0 -9 5 -16 10 -16 6 0 10 4 10 9 0 6 -4 13 -10 16 -5 3
-10 -1 -10 -9z"/>
<path d="M5421 1481 c-9 -17 -39 -34 -63 -36 -3 0 -10 -4 -15 -9 -4 -5 -3 -6
4 -2 18 10 25 -11 12 -35 -8 -16 -8 -20 1 -17 6 2 10 6 8 10 -2 3 5 15 15 25
9 11 14 23 10 28 -5 4 -3 5 4 1 7 -4 17 2 23 14 7 13 17 19 27 16 9 -4 13 -1
11 6 -7 20 -26 20 -37 -1z"/>
<path d="M5471 1476 c-1 -12 -6 -16 -17 -12 -17 6 -71 -49 -67 -69 4 -18 -62
-43 -82 -32 -12 6 -16 6 -11 -1 11 -18 -24 -32 -86 -34 -15 0 -27 -3 -26 -7 2
-19 -4 -29 -18 -27 -9 0 -19 -6 -22 -14 -5 -13 -3 -13 11 -1 10 7 17 9 17 3 0
-18 -27 -21 -49 -6 -12 9 -21 11 -21 5 0 -6 9 -16 20 -23 11 -7 20 -16 20 -21
0 -4 -5 -5 -12 -1 -7 4 -8 3 -4 -4 4 -6 13 -9 21 -6 8 4 13 10 10 14 -3 4 2
11 11 14 10 4 13 2 8 -7 -4 -6 1 -5 12 3 10 9 45 29 77 44 41 21 56 33 52 44
-5 12 -3 13 10 2 13 -11 18 -11 28 0 10 10 9 11 -2 5 -10 -6 -12 -4 -7 4 5 7
14 10 22 7 8 -3 14 -1 14 5 0 6 4 8 9 4 5 -3 12 -1 16 5 4 6 10 8 15 5 11 -7
20 20 14 49 -3 17 0 24 11 22 8 -1 18 -5 21 -9 14 -13 26 -7 15 7 -10 12 -8
14 14 12 20 -3 23 -1 14 10 -6 8 -15 12 -19 9 -5 -3 -11 1 -13 7 -3 8 -6 5 -6
-6z m-41 -81 c0 -5 -5 -3 -10 5 -8 12 -10 12 -10 1 0 -8 -2 -12 -5 -9 -3 3 -2
13 1 22 5 14 9 15 15 4 5 -7 9 -17 9 -23z m-139 -75 c-13 -11 -27 -20 -32 -20
-14 0 -20 18 -8 26 8 4 9 3 5 -4 -10 -17 11 -15 26 3 7 8 18 14 23 14 6 0 -1
-9 -14 -19z m-57 -32 c-3 -5 -15 -6 -26 -2 -14 4 -18 2 -14 -5 4 -6 2 -11 -4
-11 -7 0 -10 6 -7 13 2 6 14 11 27 9 20 -2 21 0 9 15 -13 16 -12 17 3 4 10 -7
15 -17 12 -23z"/>
<path d="M5265 1470 c4 -6 11 -8 16 -5 14 9 11 15 -7 15 -8 0 -12 -5 -9 -10z"/>
<path d="M5127 1374 c-3 -4 -3 -14 2 -23 11 -23 8 -40 -8 -50 -9 -6 -10 -11
-2 -15 6 -4 14 0 17 8 3 9 14 16 24 16 12 0 17 7 15 23 -1 12 -3 28 -4 35 0 7
-6 10 -11 7 -7 -4 -7 -12 0 -25 6 -10 6 -21 2 -24 -5 -3 -9 1 -10 9 -1 8 -3
22 -4 30 -1 16 -10 19 -21 9z"/>
<path d="M5082 1358 c-21 -21 -13 -32 10 -12 22 19 22 19 8 0 -14 -18 -13 -19
4 -13 16 6 17 5 6 -8 -11 -13 -15 -13 -21 -3 -7 10 -9 10 -9 -2 0 -13 -1 -13
-10 0 -9 14 -14 7 -11 -14 1 -4 -3 -14 -9 -21 -7 -9 -6 -16 6 -26 13 -11 15
-11 14 2 -4 26 0 39 11 39 8 0 8 -4 0 -13 -8 -10 -7 -17 1 -25 16 -16 18 -51
2 -45 -6 2 -15 0 -18 -5 -9 -15 18 -21 34 -8 19 14 19 44 1 55 -16 11 -5 51
14 51 8 0 12 8 10 20 -8 40 -22 49 -43 28z"/>
<path d="M5027 1353 c-15 -14 -6 -25 11 -12 15 13 16 12 4 -3 -8 -9 -11 -23
-7 -30 3 -7 -2 -3 -11 10 -9 12 -21 22 -27 22 -5 0 -2 -8 7 -19 9 -10 16 -22
14 -27 -3 -13 31 -74 41 -74 5 0 14 7 21 15 9 10 9 15 1 15 -6 0 -11 -5 -11
-11 0 -7 -10 1 -21 16 -18 22 -19 29 -8 35 7 5 10 12 6 16 -4 4 -2 13 4 20 17
20 -6 46 -24 27z"/>
<path d="M2115 1340 c3 -5 8 -10 11 -10 2 0 4 5 4 10 0 6 -5 10 -11 10 -5 0
-7 -4 -4 -10z"/>
<path d="M4963 1304 c1 -12 -5 -19 -17 -19 -12 0 -28 -14 -39 -33 -19 -33 -19
-33 -1 -30 20 3 43 26 44 42 0 5 -10 1 -22 -10 -23 -18 -23 -18 -5 1 16 18 81
30 71 13 -3 -4 -1 -8 5 -8 6 0 15 -9 21 -20 9 -16 8 -18 -5 -14 -8 3 -12 10
-9 15 3 5 1 9 -4 9 -6 0 -13 -7 -16 -16 -8 -20 -8 -24 2 -23 34 6 40 -7 16
-37 -12 -14 -14 -15 -11 -3 6 19 -10 39 -32 39 -12 0 -11 -3 3 -13 16 -12 16
-14 -7 -39 -14 -15 -28 -24 -31 -21 -3 4 -15 -3 -27 -15 -11 -13 -24 -20 -30
-17 -5 4 -9 2 -9 -3 0 -5 -15 -8 -33 -7 -24 2 -37 -2 -45 -16 -8 -12 -8 -19
-2 -19 6 0 13 7 16 15 5 13 8 13 21 -1 14 -13 17 -13 33 1 9 8 20 12 23 8 4
-3 7 -1 7 6 0 7 5 9 10 6 6 -3 13 1 16 9 3 9 10 14 14 11 5 -3 19 5 31 17 12
13 19 16 15 8 -7 -13 -6 -13 6 0 7 8 20 16 28 18 8 2 18 8 21 14 3 5 9 9 13 9
33 -5 34 1 5 48 -17 27 -41 59 -54 71 -21 19 -23 20 -22 4z m82 -103 c3 -5 2
-12 -3 -15 -5 -3 -9 1 -9 9 0 17 3 19 12 6z"/>
<path d="M4954 1252 c-4 -9 -6 -20 -6 -24 1 -5 -1 -8 -5 -9 -5 0 -17 -2 -27
-4 -11 -2 -27 0 -35 5 -10 6 -11 10 -3 10 13 0 17 20 4 20 -14 0 -33 -48 -22
-55 6 -4 10 -1 10 4 0 6 5 11 12 11 9 0 9 -3 0 -12 -23 -23 -12 -31 11 -9 22
19 25 20 37 6 10 -12 10 -19 2 -27 -7 -7 -12 -8 -12 -4 0 5 -7 3 -15 -4 -8 -7
-15 -8 -15 -3 0 5 -7 10 -15 10 -9 0 -14 -5 -12 -11 3 -6 10 -10 17 -8 11 3
11 0 0 -13 -7 -8 -10 -18 -7 -21 3 -3 12 3 19 15 7 12 20 21 29 21 9 0 24 10
35 22 10 12 14 18 8 15 -7 -4 -15 0 -18 8 -3 9 1 18 9 22 24 9 37 40 21 46 -8
3 -18 -2 -22 -11z"/>
<path d="M4831 1216 c-7 -8 -18 -13 -26 -10 -7 3 -16 0 -21 -7 -4 -8 -3 -10 4
-5 6 4 24 0 39 -8 16 -8 22 -15 16 -16 -23 0 -3 -39 20 -40 5 0 5 6 0 13 -4 6
-8 21 -8 32 0 12 -6 19 -14 17 -12 -3 -12 0 -1 13 7 8 11 18 8 20 -3 3 -11 -1
-17 -9z"/>
<path d="M2411 1187 c-13 -16 5 -47 30 -50 9 -2 28 -11 44 -21 19 -13 30 -15
38 -7 6 6 7 14 3 18 -4 4 -11 2 -15 -5 -6 -9 -12 -7 -26 8 -10 11 -25 18 -33
15 -12 -4 -13 -3 -2 10 14 17 0 21 -17 4 -9 -9 -11 -5 -9 15 4 30 3 31 -13 13z"/>
<path d="M4900 1185 c-9 -11 -8 -14 9 -12 22 1 28 12 12 21 -5 3 -14 -1 -21
-9z"/>
<path d="M4712 1171 c-10 -6 -10 -10 2 -20 10 -9 16 -9 21 -1 10 16 -7 31 -23
21z"/>
<path d="M4669 1163 c-1 -5 -1 -12 0 -16 1 -4 -3 -16 -8 -26 -8 -14 -5 -20 13
-29 13 -6 29 -7 37 -2 8 5 19 4 28 -3 12 -10 13 -9 2 11 -6 12 -8 22 -4 22 10
0 -30 29 -41 30 -5 0 -1 -8 8 -19 13 -14 14 -20 4 -23 -17 -7 -38 1 -38 14 0
6 6 6 15 -2 9 -8 15 -9 15 -2 0 6 -4 13 -10 17 -5 3 -7 12 -3 20 3 8 0 15 -6
15 -6 0 -12 -3 -12 -7z"/>
<path d="M4628 1110 c-7 -11 -20 -20 -30 -20 -13 0 -16 -7 -12 -34 3 -24 0
-36 -12 -40 -8 -3 -12 -10 -9 -16 3 -5 1 -10 -5 -10 -6 0 -9 -4 -5 -10 3 -5
12 -7 20 -4 8 4 12 10 9 16 -3 5 2 18 12 29 16 17 16 22 4 31 -12 8 -12 9 3 4
9 -3 18 -1 18 4 1 6 2 15 3 20 1 12 16 14 17 3 0 -5 6 -14 11 -21 9 -11 13
-11 20 0 8 11 10 11 15 0 4 -10 8 -10 21 0 14 10 15 10 5 -2 -7 -8 -13 -19
-13 -24 1 -6 10 0 22 14 15 17 19 19 15 7 -6 -15 -3 -17 16 -12 17 4 18 4 7
-4 -9 -5 -22 -11 -30 -13 -8 -2 -21 -10 -30 -18 -8 -9 -12 -11 -7 -6 12 16 8
22 -12 22 -12 0 -19 -7 -18 -18 2 -22 23 -31 39 -15 7 7 36 23 65 37 28 14 49
29 46 33 -3 4 -11 3 -18 -3 -9 -8 -20 -8 -31 -2 -15 8 -15 9 1 15 16 7 12 27
-6 27 -6 0 -8 -4 -4 -9 3 -5 1 -12 -4 -15 -5 -4 -12 -2 -16 4 -4 7 -12 7 -23
1 -23 -13 -73 14 -66 34 9 22 -4 18 -18 -5z"/>
<path d="M4830 1120 c0 -5 7 -10 16 -10 8 0 12 5 9 10 -3 6 -10 10 -16 10 -5
0 -9 -4 -9 -10z"/>
<path d="M4622 1044 c-16 -33 -15 -39 3 -24 8 7 12 17 8 23 -4 6 -1 7 6 3 9
-6 9 -12 -3 -25 -21 -23 -20 -37 1 -20 15 13 15 11 -1 -13 -11 -17 -14 -28 -6
-33 6 -3 9 -1 8 7 -2 8 4 12 16 10 16 -3 18 -1 9 10 -6 7 -9 25 -8 40 5 39
-19 55 -33 22z"/>
<path d="M4436 1042 c-11 -18 27 -23 43 -5 15 15 15 16 0 5 -11 -8 -19 -8 -26
-1 -7 7 -13 7 -17 1z"/>
<path d="M4670 1040 c0 -5 5 -10 10 -10 6 0 10 5 10 10 0 6 -4 10 -10 10 -5 0
-10 -4 -10 -10z"/>
<path d="M2690 1011 c0 -3 22 -18 48 -32 38 -20 50 -23 59 -13 17 17 -4 33
-39 28 -16 -1 -28 1 -28 6 0 4 -9 10 -20 13 -11 3 -20 2 -20 -2z m90 -31 c8
-5 11 -10 5 -10 -5 0 -17 5 -25 10 -8 5 -10 10 -5 10 6 0 17 -5 25 -10z"/>
<path d="M4400 1005 c7 -9 15 -13 17 -11 7 7 -7 26 -19 26 -6 0 -6 -6 2 -15z"/>
<path d="M4440 1015 c-2 -5 -2 -13 -1 -17 1 -8 -2 -9 -31 -12 -7 0 -14 -10
-16 -21 -2 -15 3 -21 17 -22 13 -1 18 3 14 13 -5 12 7 19 30 15 9 -1 8 8 -3
34 -5 11 -9 16 -10 10z"/>
<path d="M4460 998 c0 -7 33 -28 46 -28 3 0 0 8 -7 18 -13 15 -12 16 3 4 11
-9 22 -11 34 -4 11 6 13 11 5 16 -6 4 -11 2 -11 -4 0 -7 -5 -8 -12 -3 -17 10
-58 11 -58 1z"/>
<path d="M4590 1000 c0 -5 6 -10 13 -10 6 -1 0 -8 -15 -16 -16 -8 -28 -17 -28
-20 0 -3 4 -2 10 1 6 3 7 -1 4 -10 -7 -19 -14 -14 -18 11 -2 10 -7 19 -12 21
-14 4 -39 -15 -31 -24 5 -4 13 -1 18 7 9 13 10 13 6 0 -2 -8 3 -21 12 -28 14
-11 14 -11 -1 -6 -10 3 -18 2 -18 -3 0 -10 -47 -37 -66 -38 -6 0 -18 -6 -27
-14 -14 -11 -16 -10 -12 9 3 16 0 20 -11 16 -9 -3 -20 -6 -25 -6 -5 0 -9 -5
-9 -11 0 -6 6 -9 14 -6 8 3 17 0 20 -8 3 -9 0 -12 -8 -9 -17 6 -41 -22 -26
-31 5 -3 10 -1 10 6 0 7 3 9 6 6 4 -4 19 1 33 11 14 9 44 26 66 37 22 11 43
24 46 28 3 5 8 8 10 8 17 -2 47 13 42 22 -4 6 0 8 8 5 14 -5 17 14 10 55 -2
11 -21 9 -21 -3z"/>
<path d="M4433 956 c-4 -5 3 -7 15 -4 19 5 20 4 10 -15 -14 -29 -23 -36 -15
-14 5 13 3 17 -5 14 -7 -2 -11 -11 -9 -18 2 -8 4 -20 4 -26 0 -9 4 -9 12 -3 7
5 15 7 18 4 3 -3 20 4 37 16 24 17 29 25 18 31 -22 15 -31 10 -17 -8 13 -16
12 -17 -3 -5 -10 8 -19 9 -22 3 -3 -5 0 -12 6 -14 8 -3 6 -6 -4 -6 -22 -1 -23
12 -3 29 8 7 15 16 15 21 0 12 -50 7 -57 -5z"/>
<path d="M4366 933 c-3 -4 -6 -11 -6 -16 0 -6 3 -7 7 -4 3 4 12 2 19 -4 16
-13 35 -3 28 14 -5 13 -38 20 -48 10z"/>
</g>
</svg>
