<svg width="54" height="54" viewBox="0 0 54 54" fill="none" xmlns="http://www.w3.org/2000/svg">
<path opacity="0.58" d="M28.5939 49.7868C27.7796 49.7866 26.9797 49.5888 26.2742 49.2134L9.88612 40.4816C9.18203 40.1053 8.59725 39.5652 8.19019 38.9151C7.78313 38.265 7.56804 37.5277 7.56641 36.7769V19.3116C7.56804 18.5608 7.78313 17.8235 8.19019 17.1734C8.59725 16.5234 9.18203 15.9832 9.88612 15.6069L26.2742 6.87513C26.9792 6.49951 27.779 6.30176 28.5931 6.30176C29.4071 6.30176 30.2069 6.49951 30.9119 6.87513L47.3018 15.6069C48.0054 15.9835 48.5897 16.5238 48.9965 17.1738C49.4032 17.8239 49.6181 18.561 49.6197 19.3116V36.7753C49.6181 37.5259 49.4032 38.263 48.9965 38.9131C48.5897 39.5631 48.0054 40.1034 47.3018 40.48L30.9119 49.2118C30.2073 49.5877 29.4079 49.786 28.5939 49.7868Z" fill="#CADBCB"/>
<path d="M27.6108 48.7445C26.7969 48.7444 25.9975 48.5467 25.2928 48.1711L8.90293 39.4393C8.19929 39.0627 7.61495 38.5224 7.20823 37.8724C6.8015 37.2223 6.5866 36.4852 6.58496 35.7346V18.2677C6.5866 17.5171 6.8015 16.78 7.20823 16.1299C7.61495 15.4799 8.19929 14.9396 8.90293 14.563L25.2928 5.83122C25.9975 5.45558 26.7969 5.25781 27.6108 5.25781C28.4246 5.25781 29.224 5.45558 29.9287 5.83122L46.3186 14.563C47.0222 14.9396 47.6065 15.4799 48.0133 16.1299C48.42 16.78 48.6349 17.5171 48.6365 18.2677V35.7314C48.6349 36.482 48.42 37.2191 48.0133 37.8692C47.6065 38.5192 47.0222 39.0595 46.3186 39.4361L29.9287 48.1679C29.2243 48.5446 28.4249 48.7434 27.6108 48.7445Z" fill="#558B56"/>
<path d="M47.383 35.7309V18.2673C47.3827 17.7193 47.2262 17.1809 46.9294 16.7063C46.6325 16.2316 46.2057 15.8373 45.6916 15.5629L29.3018 6.83105C28.7875 6.55723 28.2042 6.41309 27.6104 6.41309C27.0167 6.41309 26.4334 6.55723 25.9191 6.83105L9.52924 15.5629C9.0152 15.8373 8.58836 16.2316 8.29151 16.7063C7.99466 17.1809 7.83822 17.7193 7.83789 18.2673V35.7309C7.83822 36.2789 7.99466 36.8173 8.29151 37.2919C8.58836 37.7666 9.0152 38.1609 9.52924 38.4353L25.9191 47.1672C26.4334 47.441 27.0167 47.5851 27.6104 47.5851C28.2042 47.5851 28.7875 47.441 29.3018 47.1672L45.6916 38.4353C46.2057 38.1609 46.6325 37.7666 46.9294 37.2919C47.2262 36.8173 47.3827 36.2789 47.383 35.7309Z" fill="white"/>
<path d="M45.7636 18.2677V31.7545L9.45802 32.1684V18.2677C9.4567 17.9819 9.53658 17.7008 9.68971 17.4524C9.84284 17.204 10.0639 16.9969 10.3308 16.8519L26.7206 8.11848C26.9896 7.97497 27.2948 7.89941 27.6056 7.89941C27.9163 7.89941 28.2215 7.97497 28.4905 8.11848L44.8908 16.8519C45.1577 16.9969 45.3787 17.204 45.5319 17.4524C45.685 17.7008 45.7649 17.9819 45.7636 18.2677Z" fill="#558B56" fill-opacity="0.31"/>
<path d="M47.2005 35.3011H7.80381L7.62402 27.9932H47.7434L47.2005 35.3011Z" fill="#558B56"/>
<path d="M46.5998 34.8343C46.5998 34.9458 46.5639 35.0548 46.4968 35.1475C46.4297 35.2402 46.3343 35.3124 46.2226 35.3551C46.111 35.3978 45.9882 35.4089 45.8697 35.3872C45.7512 35.3654 45.6423 35.3117 45.5569 35.2329C45.4714 35.1541 45.4132 35.0536 45.3897 34.9442C45.3661 34.8349 45.3782 34.7215 45.4244 34.6185C45.4707 34.5155 45.549 34.4275 45.6494 34.3655C45.7499 34.3036 45.868 34.2705 45.9888 34.2705C46.1509 34.2705 46.3063 34.3299 46.4208 34.4356C46.5354 34.5414 46.5998 34.6847 46.5998 34.8343Z" fill="white"/>
<path d="M9.82143 34.8343C9.82143 34.9458 9.7856 35.0548 9.71847 35.1475C9.65135 35.2402 9.55593 35.3124 9.44431 35.3551C9.33268 35.3978 9.20984 35.4089 9.09134 35.3872C8.97283 35.3654 8.86398 35.3117 8.77854 35.2329C8.69311 35.1541 8.63492 35.0536 8.61135 34.9442C8.58778 34.8349 8.59987 34.7215 8.64611 34.6185C8.69235 34.5155 8.77065 34.4275 8.87112 34.3655C8.97158 34.3036 9.08969 34.2705 9.21052 34.2705C9.37254 34.2705 9.52793 34.3299 9.6425 34.4356C9.75707 34.5414 9.82143 34.6847 9.82143 34.8343Z" fill="white"/>
<path d="M22.5502 21.6324L20.3945 21.6211" stroke="white" stroke-width="0.5472" stroke-linecap="round" stroke-linejoin="round"/>
<path d="M37.1174 15.481L27.7106 13.17C27.5879 13.1399 27.4589 13.1399 27.3362 13.17L17.9294 15.481C17.7434 15.5359 17.5823 15.6459 17.4709 15.7939C17.3595 15.942 17.3042 16.1198 17.3135 16.2998C17.4008 19.8932 17.8817 23.4694 18.7488 26.9735C20.1054 32.4819 25.8412 35.1635 27.2222 35.7369C27.3169 35.7765 27.4195 35.7969 27.5234 35.7969C27.6273 35.7969 27.73 35.7765 27.8246 35.7369C29.2056 35.161 34.9305 32.4819 36.298 26.9735C37.1651 23.4694 37.646 19.8932 37.7333 16.2998C37.7426 16.1198 37.6873 15.942 37.5759 15.7939C37.4646 15.6459 37.3034 15.5359 37.1174 15.481Z" fill="#558B56" stroke="white" stroke-width="1.09117" stroke-linecap="round" stroke-linejoin="round"/>
<path d="M35.5818 16.8379L27.7134 14.9024C27.5907 14.8724 27.4617 14.8724 27.339 14.9024L19.4706 16.8379C19.2841 16.892 19.1224 17.0018 19.0109 17.15C18.8995 17.2982 18.8445 17.4764 18.8547 17.6566C18.9368 20.6761 19.3449 23.6805 20.073 26.6253C21.2179 31.2398 25.9688 33.5233 27.2223 34.0541C27.3185 34.095 27.4231 34.1162 27.5289 34.1162C27.6348 34.1162 27.7394 34.095 27.8355 34.0541C29.089 33.5233 33.8399 31.2398 34.9849 26.6253C35.7139 23.6806 36.1229 20.6762 36.2059 17.6566C36.2156 17.4755 36.1594 17.2966 36.0464 17.1482C35.9333 16.9999 35.7698 16.8907 35.5818 16.8379Z" fill="white"/>
<path d="M28.2922 20.2729C28.4762 19.9359 28.2958 19.6457 28.1826 19.5428L29.1631 17.0574C29.2113 16.9563 29.154 16.8936 29.1193 16.8749L28.5277 16.711C28.3744 16.6699 28.3141 16.7656 28.3031 16.8187L27.5308 18.8173L26.7256 16.7859C26.6862 16.6848 26.5814 16.6845 26.5339 16.697L25.9588 16.8749C25.858 16.8861 25.8583 17.0044 25.8711 17.0621L26.8626 19.5428C26.6897 19.7028 26.5711 20.066 26.8187 20.3806C27.0631 20.691 27.422 20.7517 27.6075 20.7035C27.759 20.7004 28.1081 20.6099 28.2922 20.2729Z" fill="#558B56"/>
<path d="M26.8474 26.0421C26.8474 25.8439 26.8325 25.6595 26.8027 25.4888C26.7728 25.3182 26.7241 25.153 26.6565 24.9933C26.5889 24.8337 26.4875 24.708 26.3522 24.6162C26.217 24.5245 26.0559 24.4786 25.869 24.4786C25.6145 24.7135 25.3042 24.8309 24.9383 24.8309C24.5724 24.8309 24.2622 24.7135 24.0076 24.4786C23.8207 24.4786 23.6596 24.5245 23.5244 24.6162C23.3892 24.708 23.2878 24.8337 23.2201 24.9933C23.1525 25.153 23.1038 25.3182 23.074 25.4888C23.0441 25.6595 23.0292 25.8439 23.0292 26.0421C23.0292 26.244 23.0919 26.4156 23.2172 26.5569C23.3424 26.6982 23.4926 26.7688 23.6676 26.7688H26.2091C26.3841 26.7688 26.5342 26.6982 26.6595 26.5569C26.7848 26.4156 26.8474 26.244 26.8474 26.0421ZM26.0838 23.5977C26.0838 23.3041 25.9724 23.0545 25.7497 22.849C25.527 22.6434 25.2565 22.5407 24.9383 22.5407C24.6201 22.5407 24.3497 22.6434 24.127 22.849C23.9042 23.0545 23.7929 23.3041 23.7929 23.5977C23.7929 23.8913 23.9042 24.1409 24.127 24.3465C24.3497 24.552 24.6201 24.6548 24.9383 24.6548C25.2565 24.6548 25.527 24.552 25.7497 24.3465C25.9724 24.1409 26.0838 23.8913 26.0838 23.5977ZM32.1929 26.2403V25.888C32.1929 25.8366 32.175 25.7944 32.1392 25.7614C32.1034 25.7283 32.0577 25.7118 32.002 25.7118H27.802C27.7463 25.7118 27.7005 25.7283 27.6647 25.7614C27.629 25.7944 27.6111 25.8366 27.6111 25.888V26.2403C27.6111 26.2917 27.629 26.3339 27.6647 26.367C27.7005 26.4 27.7463 26.4165 27.802 26.4165H32.002C32.0577 26.4165 32.1034 26.4 32.1392 26.367C32.175 26.3339 32.1929 26.2917 32.1929 26.2403ZM29.902 24.8309V24.4786C29.902 24.4272 29.8841 24.385 29.8483 24.352C29.8125 24.3189 29.7667 24.3024 29.7111 24.3024H27.802C27.7463 24.3024 27.7005 24.3189 27.6647 24.352C27.629 24.385 27.6111 24.4272 27.6111 24.4786V24.8309C27.6111 24.8823 27.629 24.9245 27.6647 24.9576C27.7005 24.9906 27.7463 25.0071 27.802 25.0071H29.7111C29.7667 25.0071 29.8125 24.9906 29.8483 24.9576C29.8841 24.9245 29.902 24.8823 29.902 24.8309ZM32.1929 24.8309V24.4786C32.1929 24.4272 32.175 24.385 32.1392 24.352C32.1034 24.3189 32.0577 24.3024 32.002 24.3024H30.8565C30.8008 24.3024 30.7551 24.3189 30.7193 24.352C30.6835 24.385 30.6656 24.4272 30.6656 24.4786V24.8309C30.6656 24.8823 30.6835 24.9245 30.7193 24.9576C30.7551 24.9906 30.8008 25.0071 30.8565 25.0071H32.002C32.0577 25.0071 32.1034 24.9906 32.1392 24.9576C32.175 24.9245 32.1929 24.8823 32.1929 24.8309ZM32.1929 23.4215V23.0692C32.1929 23.0178 32.175 22.9756 32.1392 22.9426C32.1034 22.9095 32.0577 22.893 32.002 22.893H27.802C27.7463 22.893 27.7005 22.9095 27.6647 22.9426C27.629 22.9756 27.6111 23.0178 27.6111 23.0692V23.4215C27.6111 23.4729 27.629 23.5151 27.6647 23.5482C27.7005 23.5812 27.7463 23.5977 27.802 23.5977H32.002C32.0577 23.5977 32.1034 23.5812 32.1392 23.5482C32.175 23.5151 32.1929 23.4729 32.1929 23.4215ZM22.2656 21.4836H32.9565V20.9551C32.9565 20.9037 32.9386 20.8615 32.9028 20.8285C32.867 20.7954 32.8213 20.7789 32.7656 20.7789H22.4565C22.4008 20.7789 22.3551 20.7954 22.3193 20.8285C22.2835 20.8615 22.2656 20.9037 22.2656 20.9551V21.4836ZM33.7202 20.9551V27.6497C33.7202 27.892 33.6267 28.0993 33.4398 28.2718C33.2528 28.4443 33.0281 28.5306 32.7656 28.5306H22.4565C22.194 28.5306 21.9693 28.4443 21.7824 28.2718C21.5954 28.0993 21.502 27.892 21.502 27.6497V20.9551C21.502 20.7129 21.5954 20.5055 21.7824 20.333C21.9693 20.1605 22.194 20.0742 22.4565 20.0742H32.7656C33.0281 20.0742 33.2528 20.1605 33.4398 20.333C33.6267 20.5055 33.7202 20.7129 33.7202 20.9551Z" fill="#558B56"/>
<ellipse cx="27.6108" cy="6.38255" rx="3.66546" ry="3.38255" fill="white" stroke="#558B56" stroke-width="4.64291"/>
<ellipse cx="46.9858" cy="16.0476" rx="3.66546" ry="3.38255" fill="white" stroke="#558B56" stroke-width="4.64291"/>
<ellipse cx="47.3344" cy="37.6306" rx="3.66546" ry="3.38255" fill="white" stroke="#558B56" stroke-width="4.64291"/>
<ellipse cx="6.66546" cy="37.6306" rx="3.66546" ry="3.38255" fill="white" stroke="#558B56" stroke-width="4.64291"/>
<ellipse cx="7.01409" cy="16.0476" rx="3.66546" ry="3.38255" fill="white" stroke="#558B56" stroke-width="4.64291"/>
<ellipse cx="27.6108" cy="47.6169" rx="3.66546" ry="3.38255" fill="white" stroke="#558B56" stroke-width="4.64291"/>
<ellipse cx="27.4363" cy="38.4358" rx="2.09455" ry="1.93289" fill="white" stroke="#558B56" stroke-width="2.65309"/>
<line x1="29.08" y1="43.2094" x2="26.082" y2="43.3192" stroke="#558B56" stroke-width="4.42182"/>
</svg>
