<svg width="67" height="80" viewBox="0 0 67 80" fill="none" xmlns="http://www.w3.org/2000/svg">
<path d="M17.9121 29.9391L11.0859 29.9004" stroke="white" stroke-width="0.5472" stroke-linecap="round" stroke-linejoin="round"/>
<path d="M64.0396 8.82893L34.2515 0.898616C33.863 0.795513 33.4544 0.795513 33.0658 0.898616L3.27776 8.82893C2.6888 9.01733 2.17844 9.39478 1.82582 9.90275C1.4732 10.4107 1.298 11.0208 1.3274 11.6385C1.60393 23.9696 3.12672 36.2411 5.87252 48.2657C10.1685 67.1679 28.3317 76.3698 32.705 78.3373C33.0046 78.4731 33.3298 78.5433 33.6587 78.5433C33.9876 78.5433 34.3128 78.4731 34.6124 78.3373C38.9857 76.3612 57.1146 67.1679 61.4449 48.2657C64.1907 36.2411 65.7135 23.9696 65.99 11.6385C66.0194 11.0208 65.8442 10.4107 65.4916 9.90275C65.1389 9.39478 64.6286 9.01733 64.0396 8.82893Z" fill="#558B56" stroke="white" stroke-width="1.09117" stroke-linecap="round" stroke-linejoin="round"/>
<path d="M59.176 13.485L34.2595 6.84344C33.871 6.74034 33.4623 6.74034 33.0738 6.84344L8.15731 13.485C7.56675 13.6708 7.0547 14.0476 6.70166 14.5562C6.34861 15.0648 6.17458 15.6763 6.20694 16.2945C6.46679 26.656 7.75909 36.9657 10.0647 47.0707C13.6905 62.9055 28.7349 70.7413 32.7043 72.5628C33.0088 72.7031 33.34 72.7758 33.6752 72.7758C34.0104 72.7758 34.3417 72.7031 34.6461 72.5628C38.6156 70.7413 53.66 62.9055 57.2857 47.0707C59.5942 36.966 60.8894 26.6562 61.1521 16.2945C61.1829 15.673 61.0051 15.059 60.6471 14.5499C60.2891 14.0409 59.7713 13.6661 59.176 13.485Z" fill="white"/>
<path d="M36.0936 25.2714C36.6764 24.115 36.1051 23.1192 35.7466 22.7659L38.8515 14.2374C39.0041 13.8904 38.8226 13.6752 38.7127 13.611L36.8394 13.0488C36.3537 12.9075 36.1629 13.2362 36.1282 13.4182L33.6825 20.2764L31.1328 13.3058C31.0079 12.9589 30.676 12.9578 30.5257 13.0006L28.7044 13.611C28.3852 13.6495 28.3864 14.0553 28.4269 14.2534L31.5664 22.7659C31.0189 23.315 30.6435 24.5614 31.4276 25.6408C32.2013 26.706 33.3381 26.9146 33.9254 26.7491C34.4053 26.7384 35.5107 26.4278 36.0936 25.2714Z" fill="#558B56"/>
<path d="M31.5171 45.0674C31.5171 44.3872 31.4699 43.7544 31.3754 43.1687C31.281 42.5831 31.1267 42.0163 30.9126 41.4684C30.6985 40.9206 30.3773 40.4892 29.9491 40.1743C29.5209 39.8594 29.0108 39.702 28.4188 39.702C27.6128 40.5081 26.6304 40.9111 25.4717 40.9111C24.313 40.9111 23.3306 40.5081 22.5245 39.702C21.9326 39.702 21.4225 39.8594 20.9942 40.1743C20.566 40.4892 20.2449 40.9206 20.0308 41.4684C19.8166 42.0163 19.6624 42.5831 19.5679 43.1687C19.4734 43.7544 19.4262 44.3872 19.4262 45.0674C19.4262 45.7601 19.6246 46.3489 20.0213 46.8338C20.418 47.3187 20.8935 47.5611 21.4477 47.5611H29.4957C30.0498 47.5611 30.5253 47.3187 30.922 46.8338C31.3188 46.3489 31.5171 45.7601 31.5171 45.0674ZM29.0989 36.6793C29.0989 35.6717 28.7463 34.8153 28.041 34.11C27.3357 33.4047 26.4792 33.052 25.4717 33.052C24.4641 33.052 23.6076 33.4047 22.9023 34.11C22.197 34.8153 21.8444 35.6717 21.8444 36.6793C21.8444 37.6869 22.197 38.5433 22.9023 39.2486C23.6076 39.9539 24.4641 40.3066 25.4717 40.3066C26.4792 40.3066 27.3357 39.9539 28.041 39.2486C28.7463 38.5433 29.0989 37.6869 29.0989 36.6793ZM48.4444 45.7475V44.5384C48.4444 44.3621 48.3877 44.2172 48.2744 44.1039C48.161 43.9905 48.0162 43.9338 47.8398 43.9338H34.5398C34.3635 43.9338 34.2187 43.9905 34.1053 44.1039C33.992 44.2172 33.9353 44.3621 33.9353 44.5384V45.7475C33.9353 45.9238 33.992 46.0686 34.1053 46.182C34.2187 46.2953 34.3635 46.352 34.5398 46.352H47.8398C48.0162 46.352 48.161 46.2953 48.2744 46.182C48.3877 46.0686 48.4444 45.9238 48.4444 45.7475ZM41.1898 40.9111V39.702C41.1898 39.5257 41.1332 39.3809 41.0198 39.2675C40.9065 39.1541 40.7616 39.0975 40.5853 39.0975H34.5398C34.3635 39.0975 34.2187 39.1541 34.1053 39.2675C33.992 39.3809 33.9353 39.5257 33.9353 39.702V40.9111C33.9353 41.0874 33.992 41.2323 34.1053 41.3456C34.2187 41.459 34.3635 41.5157 34.5398 41.5157H40.5853C40.7616 41.5157 40.9065 41.459 41.0198 41.3456C41.1332 41.2323 41.1898 41.0874 41.1898 40.9111ZM48.4444 40.9111V39.702C48.4444 39.5257 48.3877 39.3809 48.2744 39.2675C48.161 39.1541 48.0162 39.0975 47.8398 39.0975H44.2126C44.0362 39.0975 43.8914 39.1541 43.7781 39.2675C43.6647 39.3809 43.608 39.5257 43.608 39.702V40.9111C43.608 41.0874 43.6647 41.2323 43.7781 41.3456C43.8914 41.459 44.0362 41.5157 44.2126 41.5157H47.8398C48.0162 41.5157 48.161 41.459 48.2744 41.3456C48.3877 41.2323 48.4444 41.0874 48.4444 40.9111ZM48.4444 36.0747V34.8657C48.4444 34.6893 48.3877 34.5445 48.2744 34.4311C48.161 34.3178 48.0162 34.2611 47.8398 34.2611H34.5398C34.3635 34.2611 34.2187 34.3178 34.1053 34.4311C33.992 34.5445 33.9353 34.6893 33.9353 34.8657V36.0747C33.9353 36.2511 33.992 36.3959 34.1053 36.5093C34.2187 36.6226 34.3635 36.6793 34.5398 36.6793H47.8398C48.0162 36.6793 48.161 36.6226 48.2744 36.5093C48.3877 36.3959 48.4444 36.2511 48.4444 36.0747ZM17.008 29.4247H50.8626V27.6111C50.8626 27.4348 50.8059 27.2899 50.6925 27.1766C50.5792 27.0632 50.4344 27.0066 50.258 27.0066H17.6126C17.4362 27.0066 17.2914 27.0632 17.1781 27.1766C17.0647 27.2899 17.008 27.4348 17.008 27.6111V29.4247ZM53.2808 27.6111V50.5838C53.2808 51.4151 52.9848 52.1267 52.3928 52.7186C51.8009 53.3106 51.0893 53.6066 50.258 53.6066H17.6126C16.7813 53.6066 16.0697 53.3106 15.4778 52.7186C14.8858 52.1267 14.5898 51.4151 14.5898 50.5838V27.6111C14.5898 26.7799 14.8858 26.0683 15.4778 25.4763C16.0697 24.8844 16.7813 24.5884 17.6126 24.5884H50.258C51.0893 24.5884 51.8009 24.8844 52.3928 25.4763C52.9848 26.0683 53.2808 26.7799 53.2808 27.6111Z" fill="#558B56"/>
</svg>
