<svg width="420" height="424" viewBox="0 0 420 424" fill="none" xmlns="http://www.w3.org/2000/svg">
<path d="M294.37 315.342H229.417C224.518 315.336 219.821 313.387 216.357 309.923C212.893 306.458 210.944 301.762 210.937 296.863V73.719C210.944 68.8211 212.893 64.1259 216.358 60.6637C219.822 57.2016 224.519 55.2553 229.417 55.252H294.37V56.504H229.417C224.851 56.5073 220.473 58.3216 217.243 61.549C214.013 64.7764 212.196 69.1531 212.189 73.719V296.863C212.192 301.431 214.008 305.811 217.239 309.041C220.469 312.271 224.849 314.087 229.417 314.09H294.37V315.342Z" fill="#263238"/>
<path d="M361.977 315.342H252.64C247.327 315.342 242.232 313.232 238.475 309.475C234.718 305.718 232.608 300.623 232.608 295.31V75.284C232.608 69.9711 234.718 64.8759 238.475 61.1192C242.232 57.3625 247.327 55.252 252.64 55.252H361.977C367.29 55.252 372.385 57.3625 376.142 61.1192C379.899 64.8759 382.009 69.9711 382.009 75.284V295.31C382.009 300.623 379.899 305.718 376.142 309.475C372.385 313.232 367.29 315.342 361.977 315.342ZM252.64 56.504C247.659 56.504 242.882 58.4826 239.36 62.0045C235.839 65.5264 233.86 70.3032 233.86 75.284V295.31C233.86 300.291 235.839 305.068 239.36 308.59C242.882 312.112 247.659 314.09 252.64 314.09H361.977C366.958 314.09 371.735 312.112 375.257 308.59C378.778 305.068 380.757 300.291 380.757 295.31V75.284C380.757 70.3032 378.778 65.5264 375.257 62.0045C371.735 58.4826 366.958 56.504 361.977 56.504H252.64Z" fill="#263238"/>
<path d="M360.012 104.689H253.755C252.947 104.726 252.139 104.599 251.382 104.315C250.624 104.032 249.932 103.597 249.347 103.039C248.762 102.48 248.297 101.808 247.979 101.064C247.661 100.321 247.497 99.5201 247.497 98.7111C247.497 97.9022 247.661 97.1016 247.979 96.3579C248.297 95.6141 248.762 94.9425 249.347 94.3837C249.932 93.825 250.624 93.3906 251.382 93.1068C252.139 92.8231 252.947 92.6958 253.755 92.7328H360.012C360.82 92.6958 361.627 92.8231 362.385 93.1068C363.142 93.3906 363.835 93.825 364.42 94.3837C365.004 94.9425 365.47 95.6141 365.788 96.3579C366.106 97.1016 366.27 97.9022 366.27 98.7111C366.27 99.5201 366.106 100.321 365.788 101.064C365.47 101.808 365.004 102.48 364.42 103.039C363.835 103.597 363.142 104.032 362.385 104.315C361.627 104.599 360.82 104.726 360.012 104.689ZM253.805 93.9848C253.164 93.9518 252.523 94.0496 251.92 94.2722C251.318 94.4948 250.768 94.8376 250.302 95.2797C249.837 95.7219 249.466 96.2541 249.213 96.844C248.96 97.4339 248.829 98.0692 248.829 98.7111C248.829 99.3531 248.96 99.9884 249.213 100.578C249.466 101.168 249.837 101.7 250.302 102.142C250.768 102.585 251.318 102.927 251.92 103.15C252.523 103.373 253.164 103.47 253.805 103.437H360.012C360.653 103.47 361.294 103.373 361.896 103.15C362.499 102.927 363.049 102.585 363.515 102.142C363.98 101.7 364.351 101.168 364.604 100.578C364.857 99.9884 364.988 99.3531 364.988 98.7111C364.988 98.0692 364.857 97.4339 364.604 96.844C364.351 96.2541 363.98 95.7219 363.515 95.2797C363.049 94.8376 362.499 94.4948 361.896 94.2722C361.294 94.0496 360.653 93.9518 360.012 93.9848H253.805Z" fill="#263238"/>
<path d="M360.011 281.211H253.754C252.167 281.211 250.645 280.58 249.522 279.458C248.4 278.336 247.77 276.813 247.77 275.226C247.77 273.639 248.4 272.117 249.522 270.995C250.645 269.872 252.167 269.242 253.754 269.242H360.011C361.599 269.242 363.121 269.872 364.243 270.995C365.365 272.117 365.996 273.639 365.996 275.226C365.996 276.813 365.365 278.336 364.243 279.458C363.121 280.58 361.599 281.211 360.011 281.211ZM253.804 270.494C252.549 270.494 251.345 270.992 250.458 271.88C249.57 272.767 249.072 273.971 249.072 275.226C249.072 276.481 249.57 277.685 250.458 278.573C251.345 279.46 252.549 279.959 253.804 279.959H360.011C361.266 279.959 362.47 279.46 363.358 278.573C364.245 277.685 364.744 276.481 364.744 275.226C364.744 273.971 364.245 272.767 363.358 271.88C362.47 270.992 361.266 270.494 360.011 270.494H253.804Z" fill="#263238"/>
<path d="M327.836 126.114H253.755C252.947 126.151 252.139 126.024 251.382 125.74C250.624 125.456 249.932 125.022 249.347 124.463C248.762 123.905 248.297 123.233 247.979 122.489C247.661 121.745 247.497 120.945 247.497 120.136C247.497 119.327 247.661 118.526 247.979 117.783C248.297 117.039 248.762 116.367 249.347 115.809C249.932 115.25 250.624 114.815 251.382 114.532C252.139 114.248 252.947 114.121 253.755 114.158H327.836C328.644 114.121 329.451 114.248 330.208 114.532C330.966 114.815 331.658 115.25 332.243 115.809C332.828 116.367 333.294 117.039 333.612 117.783C333.93 118.526 334.094 119.327 334.094 120.136C334.094 120.945 333.93 121.745 333.612 122.489C333.294 123.233 332.828 123.905 332.243 124.463C331.658 125.022 330.966 125.456 330.208 125.74C329.451 126.024 328.644 126.151 327.836 126.114ZM253.755 115.41C253.114 115.377 252.473 115.474 251.87 115.697C251.268 115.92 250.718 116.262 250.252 116.705C249.787 117.147 249.416 117.679 249.163 118.269C248.91 118.859 248.779 119.494 248.779 120.136C248.779 120.778 248.91 121.413 249.163 122.003C249.416 122.593 249.787 123.125 250.252 123.567C250.718 124.009 251.268 124.352 251.87 124.575C252.473 124.797 253.114 124.895 253.755 124.862H327.836C328.477 124.895 329.118 124.797 329.72 124.575C330.322 124.352 330.873 124.009 331.338 123.567C331.804 123.125 332.174 122.593 332.428 122.003C332.681 121.413 332.812 120.778 332.812 120.136C332.812 119.494 332.681 118.859 332.428 118.269C332.174 117.679 331.804 117.147 331.338 116.705C330.873 116.262 330.322 115.92 329.72 115.697C329.118 115.474 328.477 115.377 327.836 115.41H253.755Z" fill="#263238"/>
<path d="M350.147 129.068C355.077 129.068 359.074 125.072 359.074 120.142C359.074 115.211 355.077 111.215 350.147 111.215C345.217 111.215 341.22 115.211 341.22 120.142C341.22 125.072 345.217 129.068 350.147 129.068Z" fill="#538B56"/>
<path d="M350.147 129.694C348.258 129.694 346.411 129.134 344.84 128.084C343.269 127.035 342.045 125.543 341.322 123.797C340.599 122.052 340.41 120.131 340.778 118.278C341.147 116.425 342.057 114.723 343.393 113.387C344.729 112.051 346.431 111.141 348.284 110.772C350.137 110.404 352.058 110.593 353.803 111.316C355.549 112.039 357.041 113.263 358.09 114.834C359.14 116.405 359.7 118.252 359.7 120.142C359.694 122.673 358.685 125.099 356.895 126.889C355.105 128.679 352.679 129.688 350.147 129.694ZM350.147 111.841C348.506 111.841 346.901 112.328 345.536 113.24C344.171 114.152 343.107 115.448 342.479 116.965C341.85 118.482 341.686 120.151 342.006 121.761C342.327 123.371 343.117 124.85 344.278 126.011C345.439 127.172 346.918 127.963 348.528 128.283C350.138 128.603 351.807 128.439 353.324 127.811C354.841 127.182 356.137 126.118 357.049 124.753C357.961 123.388 358.448 121.783 358.448 120.142C358.45 119.05 358.236 117.969 357.82 116.959C357.404 115.95 356.793 115.033 356.022 114.26C355.251 113.486 354.336 112.873 353.328 112.453C352.32 112.034 351.239 111.817 350.147 111.816V111.841Z" fill="#263238"/>
<path d="M263.119 175.205C260.435 175.205 257.81 174.409 255.578 172.917C253.346 171.425 251.607 169.305 250.58 166.824C249.553 164.343 249.285 161.614 249.81 158.981C250.334 156.348 251.628 153.93 253.527 152.032C255.427 150.135 257.846 148.843 260.479 148.321C263.113 147.799 265.842 148.069 268.322 149.098C270.802 150.127 272.92 151.869 274.41 154.102C275.9 156.336 276.694 158.961 276.691 161.646C276.688 165.243 275.257 168.692 272.712 171.234C270.167 173.777 266.717 175.205 263.119 175.205ZM263.119 149.326C260.683 149.326 258.301 150.049 256.275 151.402C254.249 152.756 252.67 154.68 251.738 156.931C250.805 159.182 250.561 161.659 251.037 164.049C251.512 166.439 252.685 168.634 254.408 170.357C256.131 172.08 258.326 173.253 260.716 173.729C263.106 174.204 265.583 173.96 267.834 173.028C270.085 172.095 272.009 170.516 273.363 168.49C274.717 166.464 275.439 164.082 275.439 161.646C275.426 158.387 274.122 155.266 271.813 152.967C269.504 150.667 266.378 149.376 263.119 149.376V149.326Z" fill="#263238"/>
<path d="M307.303 175.205C304.618 175.205 301.993 174.409 299.761 172.917C297.529 171.425 295.79 169.305 294.763 166.824C293.736 164.343 293.468 161.614 293.993 158.981C294.517 156.348 295.811 153.93 297.71 152.032C299.61 150.135 302.029 148.843 304.663 148.321C307.296 147.799 310.025 148.069 312.505 149.098C314.985 150.127 317.103 151.869 318.593 154.102C320.083 156.336 320.877 158.961 320.874 161.646C320.868 165.242 319.435 168.689 316.891 171.231C314.347 173.772 310.899 175.202 307.303 175.205ZM307.303 149.326C304.866 149.326 302.484 150.049 300.458 151.402C298.432 152.756 296.853 154.68 295.921 156.931C294.988 159.182 294.744 161.659 295.22 164.049C295.695 166.439 296.868 168.634 298.591 170.357C300.314 172.08 302.509 173.253 304.899 173.729C307.289 174.204 309.766 173.96 312.017 173.028C314.268 172.095 316.192 170.516 317.546 168.49C318.9 166.464 319.622 164.082 319.622 161.646C319.606 158.388 318.301 155.269 315.993 152.97C313.684 150.672 310.56 149.379 307.303 149.376V149.326Z" fill="#263238"/>
<path d="M351.485 175.205C348.799 175.212 346.171 174.422 343.934 172.935C341.697 171.448 339.951 169.33 338.919 166.85C337.886 164.37 337.613 161.639 338.133 159.004C338.654 156.368 339.944 153.947 341.842 152.045C343.74 150.144 346.159 148.849 348.794 148.324C351.428 147.798 354.159 148.067 356.641 149.095C359.123 150.123 361.244 151.864 362.736 154.098C364.227 156.333 365.022 158.959 365.019 161.646C365.013 165.235 363.586 168.677 361.05 171.217C358.514 173.758 355.075 175.192 351.485 175.205ZM351.485 149.326C349.047 149.319 346.661 150.035 344.631 151.384C342.6 152.733 341.015 154.655 340.077 156.905C339.138 159.156 338.889 161.634 339.36 164.026C339.831 166.418 341.002 168.617 342.723 170.344C344.444 172.07 346.64 173.247 349.03 173.726C351.421 174.204 353.9 173.962 356.153 173.031C358.407 172.1 360.333 170.521 361.688 168.494C363.044 166.467 363.767 164.084 363.767 161.646C363.751 158.394 362.451 155.281 360.151 152.984C357.851 150.686 354.736 149.389 351.485 149.376V149.326Z" fill="#263238"/>
<path d="M263.12 209.133C260.435 209.133 257.811 208.337 255.579 206.845C253.348 205.354 251.608 203.234 250.581 200.755C249.554 198.275 249.285 195.546 249.809 192.913C250.332 190.281 251.625 187.862 253.523 185.964C255.421 184.066 257.839 182.774 260.472 182.25C263.104 181.726 265.833 181.995 268.313 183.022C270.793 184.05 272.913 185.789 274.404 188.021C275.895 190.253 276.691 192.877 276.691 195.561C276.688 199.159 275.257 202.609 272.713 205.154C270.168 207.698 266.718 209.129 263.12 209.133ZM263.12 183.241C260.683 183.241 258.301 183.964 256.275 185.318C254.249 186.671 252.67 188.595 251.738 190.846C250.805 193.098 250.561 195.575 251.037 197.964C251.512 200.354 252.685 202.549 254.408 204.272C256.131 205.995 258.326 207.169 260.716 207.644C263.106 208.119 265.583 207.875 267.834 206.943C270.085 206.01 272.009 204.431 273.363 202.405C274.717 200.379 275.439 197.998 275.439 195.561C275.439 192.294 274.141 189.16 271.831 186.85C269.52 184.539 266.387 183.241 263.12 183.241Z" fill="#263238"/>
<path d="M307.303 209.133C304.618 209.133 301.994 208.337 299.763 206.845C297.531 205.354 295.791 203.234 294.764 200.755C293.737 198.275 293.468 195.546 293.992 192.913C294.515 190.281 295.808 187.862 297.706 185.964C299.604 184.066 302.022 182.774 304.655 182.25C307.288 181.726 310.016 181.995 312.496 183.022C314.976 184.05 317.096 185.789 318.587 188.021C320.078 190.253 320.874 192.877 320.874 195.561C320.868 199.158 319.436 202.607 316.892 205.15C314.348 207.694 310.9 209.126 307.303 209.133ZM307.303 183.241C304.866 183.241 302.484 183.964 300.458 185.318C298.432 186.671 296.853 188.595 295.921 190.846C294.988 193.098 294.744 195.575 295.22 197.964C295.695 200.354 296.868 202.549 298.591 204.272C300.314 205.995 302.509 207.169 304.899 207.644C307.289 208.119 309.766 207.875 312.017 206.943C314.268 206.01 316.192 204.431 317.546 202.405C318.9 200.379 319.622 197.998 319.622 195.561C319.619 192.295 318.32 189.163 316.01 186.853C313.701 184.544 310.569 183.245 307.303 183.241Z" fill="#263238"/>
<path d="M351.485 209.133C348.799 209.14 346.172 208.35 343.935 206.864C341.698 205.377 339.953 203.26 338.92 200.781C337.887 198.301 337.613 195.571 338.132 192.936C338.652 190.301 339.941 187.879 341.838 185.978C343.734 184.076 346.152 182.78 348.786 182.253C351.42 181.726 354.151 181.993 356.633 183.019C359.115 184.045 361.237 185.784 362.729 188.017C364.222 190.25 365.019 192.875 365.019 195.561C365.013 199.152 363.586 202.594 361.05 205.137C358.515 207.68 355.076 209.116 351.485 209.133ZM351.485 183.241C349.049 183.241 346.667 183.964 344.641 185.317C342.615 186.671 341.036 188.595 340.103 190.846C339.171 193.097 338.927 195.575 339.402 197.964C339.878 200.354 341.051 202.549 342.774 204.272C344.497 205.995 346.692 207.168 349.082 207.644C351.472 208.119 353.949 207.875 356.2 206.943C358.451 206.01 360.375 204.431 361.729 202.405C363.082 200.379 363.805 197.997 363.805 195.561C363.802 192.295 362.503 189.163 360.193 186.853C357.883 184.544 354.752 183.245 351.485 183.241Z" fill="#263238"/>
<path d="M263.119 243.051C260.434 243.051 257.809 242.254 255.577 240.762C253.345 239.27 251.605 237.149 250.579 234.667C249.552 232.186 249.285 229.456 249.81 226.822C250.336 224.189 251.631 221.771 253.532 219.874C255.432 217.977 257.853 216.686 260.487 216.165C263.121 215.645 265.851 215.917 268.331 216.948C270.81 217.979 272.928 219.722 274.416 221.958C275.904 224.193 276.696 226.819 276.691 229.504C276.681 233.099 275.247 236.542 272.704 239.081C270.16 241.62 266.714 243.048 263.119 243.051ZM263.119 217.16C260.683 217.16 258.301 217.882 256.275 219.236C254.249 220.59 252.67 222.514 251.738 224.765C250.805 227.016 250.561 229.493 251.037 231.883C251.512 234.273 252.685 236.468 254.408 238.191C256.131 239.914 258.326 241.087 260.716 241.562C263.106 242.038 265.583 241.794 267.834 240.861C270.085 239.929 272.009 238.35 273.363 236.324C274.717 234.298 275.439 231.916 275.439 229.479C275.439 226.212 274.141 223.078 271.831 220.768C269.52 218.458 266.387 217.16 263.119 217.16Z" fill="#263238"/>
<path d="M307.303 243.051C304.617 243.051 301.992 242.254 299.76 240.762C297.528 239.27 295.788 237.149 294.762 234.667C293.735 232.186 293.468 229.456 293.994 226.822C294.519 224.189 295.814 221.771 297.715 219.874C299.615 217.977 302.036 216.686 304.67 216.165C307.305 215.645 310.034 215.917 312.514 216.948C314.993 217.979 317.111 219.722 318.599 221.958C320.087 224.193 320.879 226.819 320.874 229.504C320.861 233.097 319.426 236.539 316.883 239.078C314.34 241.616 310.896 243.044 307.303 243.051ZM307.303 217.16C304.866 217.16 302.484 217.882 300.458 219.236C298.432 220.59 296.853 222.514 295.921 224.765C294.988 227.016 294.744 229.493 295.22 231.883C295.695 234.273 296.868 236.468 298.591 238.191C300.314 239.914 302.509 241.087 304.899 241.562C307.289 242.038 309.766 241.794 312.017 240.861C314.268 239.929 316.192 238.35 317.546 236.324C318.9 234.298 319.622 231.916 319.622 229.479C319.619 226.213 318.32 223.081 316.01 220.772C313.701 218.462 310.569 217.163 307.303 217.16Z" fill="#263238"/>
<path d="M351.486 243.051C348.799 243.058 346.17 242.268 343.933 240.78C341.696 239.292 339.95 237.174 338.918 234.693C337.886 232.213 337.613 229.481 338.135 226.846C338.656 224.21 339.948 221.788 341.847 219.887C343.746 217.986 346.167 216.692 348.802 216.168C351.437 215.644 354.169 215.914 356.65 216.944C359.132 217.974 361.252 219.718 362.742 221.954C364.232 224.19 365.025 226.818 365.02 229.504C365.007 233.091 363.577 236.527 361.042 239.064C358.507 241.602 355.072 243.035 351.486 243.051ZM351.486 217.16C349.049 217.152 346.664 217.868 344.634 219.216C342.603 220.564 341.018 222.484 340.079 224.733C339.141 226.982 338.89 229.459 339.359 231.851C339.828 234.242 340.996 236.441 342.715 238.168C344.434 239.896 346.626 241.075 349.015 241.556C351.405 242.038 353.883 241.799 356.137 240.872C358.39 239.944 360.318 238.369 361.677 236.346C363.035 234.322 363.763 231.942 363.768 229.504C363.771 226.24 362.48 223.108 360.178 220.794C357.876 218.48 354.75 217.173 351.486 217.16Z" fill="#263238"/>
<path d="M52.4078 404.746C47.7053 404.758 43.0115 404.338 38.3854 403.494C23.6619 400.752 11.5926 392.965 5.2575 382.122C-5.12158 364.319 1.50149 341.695 12.5692 327.159C26.6667 308.73 47.9131 298.038 66.8434 290C103.151 274.6 141.613 264.71 178.847 255.144C189.489 252.415 200.494 249.585 211.287 246.668C216.67 245.216 222.167 243.789 227.725 242.349C267.126 232.12 311.785 220.527 341.319 191.418C362.704 170.346 378.566 145.845 387.155 120.579C390.894 110.055 392.981 99.0151 393.34 87.8521C393.756 75.8586 392.891 63.855 390.761 52.0449L389.947 51.4314C371.868 37.7721 351.723 29.4463 334.684 28.5824C307.54 27.2303 253.592 36.8331 224.683 68.5963L223.431 69.9735C211.088 85.3396 200.274 101.873 191.142 119.34C191.003 119.645 190.805 119.919 190.559 120.147C190.312 120.374 190.023 120.549 189.707 120.662C189.392 120.775 189.057 120.824 188.722 120.805C188.388 120.787 188.06 120.701 187.759 120.554C187.458 120.406 187.19 120.2 186.971 119.947C186.751 119.694 186.584 119.399 186.481 119.08C186.377 118.762 186.338 118.425 186.367 118.091C186.395 117.758 186.491 117.433 186.647 117.136C191.566 107.557 197.038 98.2726 203.036 89.3295C202.855 88.926 202.784 88.4818 202.83 88.042C202.876 87.6022 203.038 87.1824 203.299 86.8255C208.029 80.3107 213.089 74.0424 218.461 68.0455C219.721 66.4512 221.01 64.857 222.329 63.2628C243.225 38.01 276.816 6.92282 318.145 1.91482C344.65 -1.26527 363.993 3.02909 377.264 15.0358C386.028 22.9735 391.988 34.1663 395.281 49.278C415.313 65.4413 423.15 85.8739 418.53 110.05C411.582 146.358 392.501 173.401 370.115 202.46C310.583 279.721 245.767 336.061 177.508 369.59C145.909 385.136 112.254 396.097 77.5605 402.142C69.2669 403.732 60.8514 404.604 52.4078 404.746ZM396.708 57.1405C398.092 67.3578 398.64 77.6709 398.348 87.9773C397.977 99.6556 395.802 111.206 391.9 122.22C383.049 148.224 366.773 173.389 344.837 195.011C314.339 225.059 268.991 236.828 228.99 247.219C223.444 248.659 217.96 250.086 212.601 251.526C201.771 254.456 190.754 257.285 180.049 260.027C143.003 269.542 104.691 279.383 68.7589 294.632C50.4422 302.42 29.9469 312.724 16.513 330.227C6.40934 343.435 0.337138 363.83 9.55186 379.618C15.1483 389.209 25.9781 396.12 39.2618 398.599C51.7818 400.915 64.6148 399.287 76.659 397.196C110.884 391.241 144.084 380.432 175.254 365.095C241.911 332.305 307.916 275.026 366.147 199.38C388.132 170.835 406.874 144.292 413.61 109.086C417.491 88.8036 411.807 71.3758 396.708 57.1405ZM334.045 5.88365C328.931 5.91091 323.822 6.23698 318.746 6.86021C290.363 10.2657 265.486 26.6043 245.416 45.8225C275.464 28.1693 313.362 22.5102 334.934 23.612C356.907 24.7263 376.976 36.132 388.933 44.5204C385.728 33.3901 380.757 24.9141 373.909 18.7167C364.406 10.1279 351.248 5.88365 334.045 5.88365Z" fill="#263238"/>
<path d="M115.221 175.482L149.588 417.306C149.833 418.995 150.737 420.52 152.102 421.545C153.468 422.57 155.184 423.013 156.875 422.777L303.208 401.969C304.9 401.727 306.426 400.824 307.452 399.457C308.477 398.091 308.919 396.374 308.68 394.682L274.3 152.871C274.182 152.034 273.899 151.228 273.47 150.5C273.04 149.773 272.472 149.136 271.796 148.628C271.121 148.12 270.352 147.75 269.533 147.539C268.715 147.329 267.863 147.281 267.026 147.399L120.679 168.158C119.838 168.276 119.028 168.559 118.297 168.992C117.566 169.425 116.929 169.999 116.421 170.68C115.913 171.361 115.546 172.136 115.34 172.961C115.134 173.785 115.093 174.642 115.221 175.482ZM210.936 171.3L181.201 175.519C180.567 175.609 179.922 175.573 179.302 175.413C178.682 175.253 178.1 174.973 177.588 174.588C177.077 174.203 176.646 173.722 176.321 173.17C175.995 172.619 175.782 172.009 175.692 171.375C175.603 170.741 175.639 170.096 175.799 169.476C175.958 168.856 176.239 168.274 176.623 167.763C177.008 167.251 177.49 166.82 178.041 166.495C178.593 166.17 179.203 165.956 179.836 165.866L209.559 161.635C210.201 161.528 210.857 161.551 211.49 161.702C212.123 161.853 212.719 162.129 213.244 162.513C213.769 162.898 214.211 163.384 214.546 163.942C214.88 164.5 215.1 165.119 215.192 165.763C215.283 166.407 215.246 167.063 215.08 167.692C214.915 168.321 214.626 168.911 214.229 169.427C213.833 169.943 213.337 170.374 212.772 170.696C212.206 171.018 211.582 171.223 210.936 171.3Z" fill="white"/>
<path d="M155.936 423.453C154.236 423.449 152.595 422.833 151.312 421.718C150.029 420.603 149.191 419.063 148.95 417.381L114.62 175.569C114.363 173.716 114.849 171.836 115.972 170.339C117.096 168.843 118.766 167.851 120.617 167.582L266.964 146.786C268.818 146.525 270.7 147.01 272.197 148.134C273.694 149.258 274.685 150.93 274.951 152.783L309.319 394.582C309.453 395.5 309.404 396.437 309.175 397.336C308.946 398.236 308.541 399.082 307.983 399.824C307.426 400.567 306.727 401.192 305.927 401.663C305.127 402.134 304.241 402.442 303.322 402.569L156.963 423.378C156.623 423.428 156.28 423.453 155.936 423.453ZM267.903 148.013C267.632 147.995 267.36 147.995 267.089 148.013L120.768 168.821C120.012 168.929 119.285 169.184 118.628 169.572C117.971 169.961 117.397 170.475 116.939 171.086C116.481 171.696 116.148 172.391 115.958 173.13C115.769 173.869 115.727 174.639 115.835 175.394L150.215 417.205C150.435 418.73 151.25 420.105 152.482 421.03C153.714 421.954 155.262 422.353 156.788 422.138L303.121 401.33C303.877 401.226 304.605 400.973 305.262 400.586C305.92 400.199 306.495 399.686 306.953 399.076C307.412 398.467 307.745 397.772 307.934 397.033C308.123 396.294 308.164 395.525 308.054 394.77L273.687 152.958C273.486 151.573 272.793 150.307 271.736 149.39C270.679 148.473 269.327 147.966 267.928 147.963L267.903 148.013ZM180.488 176.245C179.104 176.23 177.777 175.694 176.77 174.744C175.763 173.795 175.151 172.501 175.055 171.12C174.958 169.739 175.385 168.373 176.251 167.293C177.116 166.213 178.356 165.498 179.724 165.29L209.447 161.071C210.162 160.965 210.891 161.003 211.592 161.181C212.292 161.36 212.951 161.675 213.528 162.11C214.108 162.543 214.597 163.087 214.967 163.709C215.336 164.332 215.579 165.021 215.682 165.738C215.784 166.454 215.744 167.184 215.563 167.885C215.383 168.586 215.066 169.245 214.63 169.823C213.752 170.969 212.455 171.721 211.024 171.914L181.289 176.145C181.032 176.181 180.773 176.197 180.513 176.195L180.488 176.245ZM210.235 162.261C210.031 162.242 209.826 162.242 209.622 162.261L179.9 166.48C179.346 166.562 178.815 166.752 178.335 167.04C177.855 167.328 177.437 167.707 177.104 168.156C176.771 168.606 176.529 169.116 176.394 169.659C176.258 170.202 176.23 170.766 176.313 171.319C176.395 171.872 176.585 172.404 176.873 172.883C177.16 173.363 177.54 173.781 177.989 174.115C178.438 174.448 178.949 174.689 179.492 174.825C180.034 174.96 180.598 174.988 181.152 174.906L210.849 170.662C211.403 170.588 211.937 170.403 212.419 170.119C212.9 169.835 213.32 169.458 213.653 169.009C214.327 168.104 214.62 166.972 214.467 165.854C214.32 164.842 213.815 163.916 213.043 163.245C212.271 162.574 211.283 162.202 210.261 162.198L210.235 162.261Z" fill="#263238"/>
<path d="M269.418 175.12L126.065 195.497L157.071 413.631L300.424 393.254L269.418 175.12Z" fill="#538B56"/>
<path d="M157.088 414.251C156.938 414.249 156.794 414.194 156.681 414.095C156.569 413.996 156.495 413.86 156.474 413.712L125.462 195.589C125.451 195.505 125.456 195.42 125.477 195.338C125.499 195.257 125.536 195.18 125.587 195.113C125.635 195.049 125.695 194.994 125.764 194.954C125.832 194.913 125.909 194.886 125.988 194.875L269.354 174.493C269.436 174.482 269.519 174.488 269.599 174.509C269.678 174.53 269.753 174.567 269.818 174.618C269.886 174.664 269.942 174.726 269.984 174.797C270.025 174.869 270.049 174.949 270.056 175.031L301.068 393.154C301.08 393.236 301.076 393.319 301.057 393.399C301.037 393.479 301.002 393.554 300.953 393.62C300.904 393.687 300.842 393.743 300.772 393.785C300.701 393.828 300.623 393.856 300.542 393.868L157.188 414.251H157.088ZM126.789 196.027L157.626 412.923L299.74 392.716L268.904 175.82L126.789 196.027Z" fill="#263238"/>
<path d="M173.464 110.752L181.589 167.919C181.629 168.207 181.726 168.484 181.874 168.735C182.021 168.986 182.217 169.205 182.45 169.38C182.683 169.554 182.948 169.681 183.23 169.753C183.512 169.824 183.805 169.839 184.093 169.797L206.467 166.617C206.755 166.577 207.032 166.48 207.283 166.332C207.534 166.185 207.753 165.989 207.927 165.756C208.102 165.523 208.229 165.258 208.3 164.976C208.372 164.694 208.387 164.401 208.345 164.113L200.219 106.946L173.464 110.752ZM188.939 123.598C188.007 123.73 187.058 123.582 186.21 123.174C185.362 122.766 184.655 122.116 184.176 121.307C183.698 120.497 183.47 119.563 183.522 118.624C183.575 117.685 183.904 116.782 184.469 116.03C185.034 115.278 185.809 114.71 186.697 114.398C187.584 114.087 188.544 114.045 189.455 114.279C190.366 114.513 191.188 115.011 191.816 115.712C192.443 116.412 192.85 117.283 192.983 118.214C193.159 119.457 192.838 120.718 192.091 121.726C191.343 122.734 190.229 123.406 188.989 123.598H188.939Z" fill="white"/>
<path d="M183.83 170.448C183.138 170.444 182.471 170.187 181.955 169.726C181.438 169.265 181.108 168.632 181.026 167.944L172.888 110.778C172.869 110.613 172.915 110.447 173.015 110.314C173.115 110.182 173.262 110.092 173.426 110.064L200.181 106.308C200.346 106.291 200.511 106.336 200.645 106.434C200.712 106.482 200.768 106.544 200.811 106.615C200.854 106.686 200.883 106.765 200.895 106.847L209.02 164.013C209.074 164.383 209.053 164.76 208.96 165.122C208.868 165.484 208.704 165.824 208.48 166.123C208.255 166.422 207.974 166.674 207.652 166.864C207.33 167.054 206.974 167.179 206.604 167.231L184.231 170.411L183.83 170.448ZM174.215 111.279L182.228 167.832C182.287 168.248 182.508 168.624 182.844 168.877C183.179 169.131 183.601 169.241 184.018 169.184L206.391 166.004C206.81 165.941 207.188 165.716 207.443 165.378C207.568 165.211 207.659 165.021 207.711 164.819C207.763 164.617 207.774 164.407 207.743 164.201L199.756 107.661L174.215 111.279ZM188.312 124.262C186.928 124.163 185.636 123.531 184.708 122.498C183.78 121.466 183.29 120.113 183.339 118.726C183.389 117.339 183.974 116.025 184.973 115.061C185.972 114.097 187.306 113.559 188.694 113.559C190.082 113.559 191.416 114.097 192.415 115.061C193.414 116.025 194 117.339 194.049 118.726C194.099 120.113 193.608 121.466 192.68 122.498C191.753 123.531 190.461 124.163 189.076 124.262C188.822 124.281 188.567 124.281 188.312 124.262ZM188.325 114.759H187.736C187.2 114.834 186.684 115.013 186.218 115.289C185.751 115.564 185.344 115.928 185.02 116.362C184.361 117.24 184.077 118.343 184.231 119.429C184.305 119.966 184.485 120.482 184.76 120.948C185.035 121.415 185.4 121.822 185.833 122.146C186.711 122.805 187.814 123.089 188.901 122.935C189.708 122.819 190.463 122.467 191.071 121.922C191.679 121.378 192.111 120.666 192.315 119.876C192.519 119.086 192.484 118.253 192.215 117.483C191.946 116.713 191.455 116.04 190.804 115.548C190.086 115.021 189.215 114.744 188.325 114.759Z" fill="#263238"/>
<path d="M176.984 135.191L203.746 131.387L208.373 163.938C208.463 164.569 208.298 165.21 207.915 165.72C207.532 166.229 206.962 166.566 206.331 166.656L184.329 169.783C183.698 169.873 183.057 169.708 182.547 169.326C182.038 168.943 181.701 168.373 181.611 167.742L176.984 135.191Z" fill="white"/>
<path d="M183.994 170.424C183.264 170.42 182.561 170.155 182.01 169.677C181.458 169.2 181.096 168.541 180.989 167.819L176.369 135.267C176.355 135.187 176.358 135.104 176.377 135.024C176.397 134.944 176.432 134.87 176.482 134.804C176.53 134.737 176.592 134.681 176.663 134.638C176.734 134.595 176.813 134.566 176.895 134.554L203.663 130.798C203.826 130.78 203.991 130.826 204.121 130.926C204.252 131.026 204.339 131.173 204.364 131.336L208.996 163.888C209.107 164.685 208.898 165.493 208.414 166.136C207.931 166.779 207.213 167.204 206.417 167.319L184.419 170.449L183.994 170.424ZM177.734 135.706L182.228 167.644C182.296 168.111 182.547 168.531 182.925 168.813C183.303 169.095 183.777 169.215 184.244 169.147L206.242 166.029C206.474 165.997 206.697 165.919 206.899 165.8C207.101 165.681 207.278 165.524 207.418 165.336C207.559 165.149 207.661 164.936 207.719 164.709C207.778 164.482 207.79 164.245 207.757 164.013L203.212 132.075L177.734 135.706Z" fill="#263238"/>
<path d="M196.625 142.617C196.489 141.66 196.073 140.766 195.428 140.047C194.784 139.327 193.941 138.815 193.005 138.575C192.07 138.335 191.084 138.377 190.173 138.697C189.261 139.017 188.466 139.601 187.886 140.373C187.306 141.146 186.968 142.073 186.916 143.037C186.863 144.001 187.097 144.96 187.589 145.791C188.081 146.622 188.808 147.289 189.679 147.707C190.55 148.124 191.525 148.274 192.481 148.138C193.761 147.952 194.916 147.267 195.692 146.232C196.469 145.198 196.804 143.898 196.625 142.617Z" fill="white"/>
<path d="M191.78 148.814C190.591 148.817 189.435 148.429 188.487 147.712C187.613 147.062 186.951 146.167 186.586 145.141C186.222 144.114 186.17 143.002 186.438 141.947C186.707 140.891 187.283 139.938 188.093 139.21C188.904 138.483 189.913 138.012 190.991 137.859C191.71 137.749 192.443 137.783 193.148 137.959C193.853 138.135 194.516 138.45 195.098 138.884C195.681 139.319 196.171 139.865 196.541 140.49C196.91 141.116 197.152 141.809 197.251 142.529C197.358 143.247 197.321 143.978 197.143 144.682C196.966 145.386 196.651 146.048 196.217 146.629C195.783 147.211 195.239 147.701 194.615 148.072C193.991 148.442 193.3 148.686 192.581 148.789C192.315 148.816 192.047 148.825 191.78 148.814ZM191.78 139.048C191.576 139.029 191.371 139.029 191.167 139.048C190.331 139.163 189.549 139.524 188.92 140.085C188.29 140.646 187.842 141.381 187.633 142.198C187.423 143.015 187.462 143.875 187.743 144.67C188.025 145.465 188.537 146.158 189.213 146.66C189.887 147.163 190.694 147.455 191.533 147.499C192.373 147.544 193.206 147.339 193.929 146.911C194.652 146.482 195.232 145.849 195.596 145.092C195.96 144.334 196.092 143.486 195.974 142.654C195.833 141.642 195.33 140.715 194.56 140.043C193.789 139.371 192.802 139 191.78 138.998V139.048Z" fill="#263238"/>
<path d="M193.583 143.116C193.5 142.654 193.242 142.243 192.862 141.968C192.482 141.692 192.01 141.575 191.546 141.639C191.081 141.704 190.66 141.946 190.37 142.315C190.08 142.684 189.943 143.15 189.99 143.617C190.014 143.86 190.087 144.096 190.205 144.31C190.322 144.525 190.482 144.713 190.674 144.864C190.866 145.015 191.087 145.126 191.322 145.19C191.558 145.254 191.805 145.269 192.047 145.235C192.289 145.202 192.522 145.119 192.731 144.994C192.941 144.868 193.123 144.701 193.266 144.503C193.41 144.305 193.512 144.08 193.566 143.842C193.621 143.604 193.626 143.357 193.583 143.116Z" fill="white"/>
<path d="M191.794 145.746C191.307 145.76 190.827 145.632 190.413 145.378C189.998 145.123 189.666 144.754 189.458 144.314C189.25 143.874 189.174 143.383 189.241 142.901C189.307 142.419 189.512 141.967 189.832 141.6C190.151 141.233 190.57 140.967 191.038 140.834C191.506 140.701 192.003 140.708 192.467 140.852C192.932 140.997 193.344 141.274 193.653 141.65C193.963 142.025 194.156 142.483 194.21 142.966C194.293 143.604 194.127 144.25 193.747 144.769C193.554 145.027 193.313 145.245 193.035 145.408C192.758 145.571 192.451 145.678 192.132 145.721L191.794 145.746ZM191.794 142.115H191.618C191.316 142.175 191.046 142.346 190.861 142.593C190.676 142.84 190.589 143.147 190.617 143.455C190.675 143.76 190.844 144.032 191.091 144.22C191.339 144.407 191.647 144.496 191.956 144.469C192.268 144.419 192.55 144.254 192.745 144.005C192.927 143.752 193.007 143.439 192.97 143.129C192.917 142.852 192.772 142.601 192.558 142.417C192.345 142.233 192.075 142.127 191.794 142.115Z" fill="#263238"/>
<path d="M187.41 112.505C186.147 112.684 184.965 113.233 184.014 114.084C183.064 114.935 182.387 116.048 182.069 117.283C181.751 118.519 181.807 119.821 182.23 121.025C182.652 122.228 183.422 123.28 184.442 124.045C185.462 124.811 186.686 125.258 187.96 125.327C189.234 125.397 190.5 125.088 191.598 124.438C192.695 123.788 193.576 122.828 194.127 121.677C194.679 120.527 194.877 119.239 194.696 117.976C194.578 117.138 194.296 116.332 193.865 115.603C193.435 114.874 192.865 114.237 192.188 113.729C191.511 113.221 190.741 112.851 189.921 112.641C189.101 112.431 188.248 112.385 187.41 112.505ZM188.987 123.598C188.056 123.73 187.106 123.582 186.259 123.174C185.411 122.767 184.703 122.117 184.225 121.307C183.747 120.497 183.519 119.563 183.571 118.624C183.623 117.685 183.953 116.782 184.517 116.03C185.082 115.278 185.858 114.71 186.745 114.398C187.633 114.087 188.593 114.045 189.504 114.279C190.415 114.513 191.236 115.011 191.864 115.712C192.492 116.412 192.898 117.283 193.031 118.214C193.206 119.464 192.879 120.732 192.121 121.741C191.363 122.75 190.236 123.418 188.987 123.598Z" fill="white"/>
<path d="M188.312 125.965C186.997 125.965 185.709 125.598 184.591 124.906C183.473 124.213 182.57 123.223 181.984 122.047C181.397 120.87 181.151 119.553 181.271 118.244C181.391 116.935 181.874 115.685 182.665 114.635C183.22 113.889 183.917 113.261 184.717 112.788C185.516 112.315 186.402 112.007 187.323 111.88C188.243 111.748 189.181 111.799 190.081 112.031C190.982 112.263 191.827 112.672 192.569 113.232C193.315 113.786 193.944 114.483 194.417 115.283C194.89 116.083 195.198 116.969 195.323 117.89C195.584 119.747 195.098 121.632 193.972 123.132C192.845 124.632 191.17 125.623 189.314 125.89C188.982 125.94 188.647 125.965 188.312 125.965ZM187.498 113.07C186.161 113.258 184.931 113.904 184.017 114.897C183.103 115.891 182.562 117.171 182.486 118.519C182.41 119.867 182.804 121.199 183.6 122.289C184.397 123.379 185.547 124.159 186.854 124.496C188.161 124.834 189.545 124.707 190.769 124.138C191.993 123.57 192.983 122.594 193.568 121.377C194.154 120.161 194.299 118.779 193.98 117.467C193.661 116.156 192.897 114.995 191.818 114.184C191.208 113.72 190.512 113.383 189.77 113.192C189.028 113 188.256 112.959 187.498 113.07ZM188.312 124.213C186.961 124.196 185.665 123.672 184.682 122.745C183.699 121.817 183.101 120.554 183.006 119.206C182.912 117.858 183.328 116.524 184.171 115.468C185.015 114.412 186.225 113.713 187.561 113.508C188.95 113.356 190.345 113.75 191.449 114.607C192.553 115.464 193.281 116.718 193.478 118.102C193.674 119.486 193.325 120.892 192.503 122.023C191.682 123.154 190.453 123.921 189.076 124.162C188.824 124.215 188.569 124.248 188.312 124.263V124.213ZM188.324 114.71C188.128 114.697 187.932 114.697 187.736 114.71C187.2 114.784 186.683 114.964 186.217 115.239C185.751 115.514 185.344 115.879 185.019 116.312C184.36 117.19 184.077 118.293 184.23 119.38C184.305 119.916 184.484 120.432 184.76 120.899C185.035 121.365 185.399 121.772 185.833 122.097C186.355 122.492 186.964 122.758 187.609 122.872C188.254 122.986 188.917 122.945 189.544 122.753C190.17 122.56 190.741 122.221 191.211 121.764C191.68 121.307 192.034 120.745 192.243 120.124C192.453 119.503 192.512 118.842 192.415 118.194C192.318 117.546 192.069 116.93 191.687 116.397C191.305 115.865 190.803 115.431 190.22 115.131C189.638 114.831 188.992 114.674 188.337 114.672L188.324 114.71Z" fill="#263238"/>
<path d="M247.497 187.571L150.626 201.341L170.802 343.281L267.672 329.511L247.497 187.571Z" fill="white"/>
<path d="M170.81 343.9C170.67 343.903 170.533 343.859 170.422 343.775C170.294 343.671 170.209 343.524 170.184 343.362L150.001 201.423C149.98 201.257 150.024 201.089 150.125 200.956C150.226 200.822 150.374 200.734 150.54 200.709L247.407 186.937C247.573 186.915 247.74 186.96 247.874 187.06C248.007 187.161 248.096 187.31 248.121 187.475L268.303 329.415C268.32 329.579 268.276 329.744 268.178 329.878C268.129 329.945 268.067 330.001 267.996 330.044C267.925 330.087 267.847 330.116 267.765 330.128L170.897 343.9H170.81ZM151.329 201.861L171.361 342.573L267.001 328.976L246.969 188.277L151.329 201.861Z" fill="#263238"/>
<path d="M170.809 343.274C189.289 340.77 247.619 332.006 267.676 329.502C266.024 317.908 263.845 302.834 263.582 295.61C260.966 293.732 256.396 292.117 249.81 288.637C239.481 283.19 222.717 271.747 222.717 271.747L215.906 272.473L215.844 272.073L210.397 273.049L204.876 273.625V274.026L198.128 275.278C198.128 275.278 185.22 290.94 176.844 299.066C171.31 304.412 167.855 306.853 165.939 309.457C166.089 309.896 168.931 329.877 170.809 343.274Z" fill="white"/>
<path d="M170.797 343.751C170.683 343.749 170.574 343.706 170.489 343.63C170.404 343.555 170.349 343.451 170.334 343.338C168.443 329.829 165.639 310.035 165.526 309.534C165.511 309.469 165.511 309.401 165.527 309.336C165.542 309.271 165.572 309.21 165.614 309.158C167.161 307.27 168.898 305.546 170.797 304.013C172.362 302.623 174.315 300.895 176.569 298.704C184.857 290.716 197.715 275.141 197.853 274.979C197.925 274.89 198.028 274.832 198.141 274.816L204.401 273.689C204.395 273.633 204.401 273.576 204.419 273.522C204.436 273.468 204.464 273.419 204.501 273.376C204.538 273.326 204.585 273.285 204.639 273.255C204.693 273.225 204.753 273.206 204.814 273.201L210.335 272.625L215.757 271.648C215.817 271.635 215.879 271.635 215.94 271.648C216 271.661 216.057 271.687 216.107 271.723C216.202 271.789 216.269 271.887 216.295 271.999L222.655 271.323C222.765 271.314 222.874 271.341 222.968 271.398C223.143 271.523 239.833 282.891 250.011 288.262C252.878 289.777 255.32 290.917 257.523 291.918C259.737 292.85 261.865 293.972 263.883 295.274C263.943 295.314 263.993 295.368 264.028 295.431C264.063 295.494 264.082 295.565 264.084 295.637C264.322 302.485 266.325 316.507 267.927 327.775L268.165 329.478C268.176 329.54 268.174 329.602 268.159 329.663C268.144 329.723 268.116 329.78 268.078 329.829C268 329.928 267.888 329.994 267.765 330.017C255.119 331.557 227.851 335.538 203.787 339.043C189.803 341.084 177.733 342.799 170.897 343.776L170.797 343.751ZM166.478 309.521C166.841 311.812 169.545 330.918 171.198 342.749C178.109 341.798 189.978 340.07 203.625 338.079C227.413 334.611 254.293 330.693 267.151 329.103L266.976 327.851C265.386 316.683 263.408 302.811 263.132 295.837C261.202 294.644 259.185 293.598 257.098 292.707C254.944 291.705 252.49 290.554 249.586 289.026C239.87 283.905 224.258 273.338 222.592 272.212L215.957 272.913C215.85 272.92 215.743 272.892 215.653 272.833C215.562 272.774 215.494 272.688 215.456 272.587L210.448 273.489L205.377 274.027C205.376 274.134 205.335 274.237 205.264 274.318C205.193 274.398 205.096 274.45 204.989 274.465L198.416 275.642C197.164 277.195 185.095 291.68 177.132 299.318C174.866 301.521 172.901 303.261 171.323 304.651C169.567 306.128 167.945 307.758 166.478 309.521Z" fill="#263238"/>
<path d="M263.608 295.61C261.051 294.036 258.376 292.663 255.607 291.504L254.919 291.178L254.005 290.74L252.753 290.126L252.014 289.751C251.313 289.4 250.599 289.037 249.848 288.637C239.519 283.19 222.755 271.747 222.755 271.747L215.944 272.473L215.881 272.073L210.435 273.049L204.914 273.625V274.026L198.165 275.278C198.165 275.278 185.257 290.94 176.881 299.066C176.318 299.617 175.78 300.13 175.241 300.631C170.659 304.9 167.729 307.116 165.977 309.457C165.977 309.633 166.352 312.024 166.878 315.63L264.033 301.858C263.808 299.391 263.608 297.288 263.608 295.61Z" fill="#263238"/>
<path d="M265.273 312.138L168.355 325.91C168.856 329.478 169.395 333.259 169.908 336.877L266.763 323.105C266.249 319.474 265.736 315.718 265.273 312.138Z" fill="#263238"/>
<path d="M213.628 298.065L217.259 321.252L223.068 320.426L217.459 297.188C217.459 297.188 214.091 296.688 213.628 298.065Z" fill="white"/>
<path d="M217.283 321.714C217.173 321.713 217.067 321.674 216.982 321.603C216.898 321.532 216.84 321.434 216.82 321.326L213.189 298.139C213.171 298.065 213.171 297.988 213.189 297.914C213.753 296.211 217.146 296.662 217.534 296.724C217.625 296.737 217.709 296.778 217.776 296.841C217.843 296.903 217.89 296.985 217.909 297.075L223.543 320.312C223.561 320.375 223.564 320.442 223.554 320.507C223.543 320.571 223.518 320.633 223.481 320.687C223.443 320.742 223.395 320.787 223.339 320.822C223.283 320.856 223.22 320.879 223.155 320.888L217.346 321.714H217.283ZM214.141 298.126L217.671 320.662L222.517 319.974L217.108 297.563C215.944 297.5 214.441 297.576 214.116 298.126H214.141Z" fill="#263238"/>
<path d="M217.546 304.387C217.529 304.266 217.488 304.15 217.426 304.045C217.364 303.939 217.282 303.847 217.184 303.774C217.086 303.701 216.975 303.648 216.857 303.617C216.738 303.587 216.615 303.581 216.494 303.599C216.313 303.625 216.144 303.705 216.008 303.827C215.872 303.95 215.775 304.11 215.73 304.287C215.685 304.464 215.694 304.651 215.754 304.824C215.815 304.996 215.926 305.147 216.072 305.257C216.219 305.366 216.394 305.43 216.577 305.44C216.76 305.451 216.941 305.406 217.099 305.313C217.256 305.22 217.383 305.083 217.463 304.918C217.542 304.753 217.571 304.569 217.546 304.387Z" fill="white"/>
<path d="M216.633 305.876C216.329 305.876 216.034 305.775 215.794 305.588C215.499 305.366 215.302 305.039 215.243 304.674C215.218 304.491 215.23 304.306 215.277 304.127C215.325 303.949 215.407 303.782 215.519 303.635C215.682 303.41 215.909 303.238 216.171 303.143C216.433 303.049 216.718 303.035 216.987 303.104C217.257 303.172 217.5 303.321 217.685 303.529C217.87 303.738 217.987 303.997 218.023 304.274C218.053 304.456 218.045 304.642 218 304.821C217.954 304.999 217.873 305.167 217.76 305.313C217.651 305.459 217.514 305.582 217.357 305.674C217.2 305.767 217.026 305.827 216.846 305.851L216.633 305.876ZM216.633 304.011H216.57C216.51 304.016 216.453 304.035 216.401 304.065C216.349 304.095 216.304 304.137 216.27 304.186C216.231 304.233 216.204 304.287 216.188 304.345C216.173 304.404 216.171 304.465 216.182 304.524C216.188 304.584 216.206 304.642 216.237 304.694C216.267 304.746 216.308 304.79 216.357 304.825C216.455 304.896 216.576 304.927 216.695 304.912C216.755 304.907 216.813 304.888 216.865 304.858C216.917 304.827 216.962 304.786 216.996 304.737C217.068 304.64 217.1 304.519 217.084 304.399C217.058 304.298 217 304.209 216.919 304.146C216.837 304.082 216.736 304.048 216.633 304.048V304.011Z" fill="#263238"/>
<path d="M220.05 315.417C220.043 315.289 220.008 315.164 219.95 315.05C219.892 314.936 219.81 314.835 219.711 314.755C219.612 314.674 219.497 314.614 219.373 314.58C219.25 314.546 219.121 314.538 218.994 314.556C218.867 314.574 218.745 314.618 218.637 314.686C218.528 314.754 218.434 314.843 218.362 314.949C218.289 315.054 218.24 315.174 218.216 315.299C218.192 315.425 218.194 315.555 218.223 315.679C218.238 315.8 218.277 315.916 218.338 316.021C218.399 316.126 218.48 316.218 218.577 316.292C218.673 316.365 218.784 316.419 218.901 316.449C219.019 316.479 219.142 316.486 219.262 316.468C219.383 316.451 219.499 316.411 219.604 316.349C219.71 316.287 219.802 316.204 219.875 316.106C219.948 316.009 220.001 315.897 220.032 315.779C220.062 315.661 220.068 315.537 220.05 315.417Z" fill="white"/>
<path d="M219.137 316.944C218.793 316.945 218.46 316.817 218.205 316.585C217.95 316.354 217.791 316.035 217.76 315.692C217.726 315.512 217.732 315.326 217.777 315.149C217.823 314.972 217.907 314.806 218.023 314.665C218.186 314.439 218.414 314.268 218.676 314.173C218.938 314.078 219.222 314.065 219.492 314.133C219.762 314.202 220.005 314.351 220.189 314.559C220.374 314.768 220.491 315.027 220.527 315.303C220.557 315.485 220.549 315.672 220.504 315.85C220.459 316.029 220.377 316.197 220.264 316.343C220.041 316.634 219.713 316.827 219.35 316.881L219.137 316.944ZM219.137 315.091H219.075C218.999 315.1 218.926 315.128 218.863 315.172C218.801 315.216 218.75 315.275 218.716 315.343C218.682 315.412 218.665 315.488 218.667 315.564C218.67 315.641 218.691 315.715 218.729 315.782C218.767 315.848 218.821 315.904 218.886 315.944C218.951 315.985 219.025 316.008 219.102 316.013C219.178 316.018 219.255 316.003 219.324 315.971C219.394 315.939 219.454 315.89 219.5 315.829C219.538 315.782 219.565 315.728 219.58 315.67C219.595 315.611 219.598 315.551 219.588 315.491C219.575 315.381 219.523 315.278 219.439 315.204C219.356 315.13 219.249 315.09 219.137 315.091Z" fill="#263238"/>
<path d="M199.179 268.191C199.179 268.191 195.423 269.706 194.383 276.117C193.344 282.527 194.271 298.515 193.808 302.196C193.344 305.877 194.409 306.39 196.85 305.063C199.291 303.736 201.557 298.803 205.426 298.239C208.834 297.964 212.26 298.027 215.655 298.427C215.655 298.427 221.289 294.008 225.158 293.419C229.026 292.831 234.873 299.279 236.426 299.053C237.978 298.828 234.134 285.281 230.591 276.517C227.048 267.753 220.963 264.385 214.19 265.349C207.417 266.313 199.179 268.191 199.179 268.191Z" fill="white"/>
<path d="M194.923 306.203C194.613 306.211 194.307 306.123 194.047 305.953C193.296 305.439 193.083 304.262 193.346 302.134C193.521 300.694 193.484 297.251 193.434 293.27C193.358 287.323 193.271 279.923 193.922 276.03C195.011 269.444 198.842 267.817 199.005 267.754H199.08C199.168 267.754 207.469 265.901 214.192 264.95C221.704 263.885 227.651 267.954 231.094 276.405C233.886 283.266 238.305 297.138 237.128 299.179C237.073 299.286 236.993 299.377 236.895 299.447C236.797 299.517 236.684 299.562 236.565 299.58C235.776 299.693 234.712 298.954 232.734 297.527C230.48 295.886 227.375 293.645 225.222 293.958C221.528 294.484 216.007 298.779 215.945 298.829C215.849 298.904 215.728 298.94 215.607 298.929C212.249 298.532 208.861 298.465 205.49 298.728C203.262 299.054 201.534 301.02 200.007 302.76C199.187 303.825 198.197 304.747 197.077 305.489C196.427 305.897 195.688 306.142 194.923 306.203ZM199.331 268.643C198.98 268.818 195.8 270.471 194.848 276.155C194.21 279.911 194.31 287.31 194.373 293.22C194.373 297.239 194.473 300.732 194.272 302.222C194.01 304.4 194.348 304.976 194.573 305.139C194.798 305.301 195.337 305.314 196.626 304.613C197.639 303.916 198.542 303.072 199.305 302.109C200.933 300.256 202.786 298.14 205.365 297.777C208.747 297.49 212.149 297.549 215.519 297.952C216.47 297.214 221.453 293.52 225.097 292.944C227.601 292.594 230.768 294.86 233.285 296.7C234.205 297.476 235.235 298.113 236.34 298.591C236.953 297.201 233.961 285.883 230.217 276.693C226.962 268.68 221.328 264.812 214.317 265.813C207.894 266.765 200.007 268.48 199.331 268.63V268.643Z" fill="#263238"/>
<path d="M172.7 313.389C170.033 308.707 167.692 309.333 166.214 310.885C166.928 315.818 169.207 331.881 170.797 343.237H171.16C174.14 342.836 178.083 342.273 182.691 341.609L182.903 341.497C179.961 331.894 175.642 318.623 172.7 313.389Z" fill="white"/>
<path d="M170.797 343.725C170.683 343.723 170.574 343.68 170.489 343.604C170.404 343.528 170.349 343.425 170.334 343.312C168.832 332.582 166.503 316.106 165.752 310.96C165.739 310.888 165.744 310.814 165.766 310.745C165.788 310.675 165.826 310.612 165.877 310.559C166.246 310.125 166.714 309.785 167.241 309.568C167.767 309.35 168.339 309.261 168.907 309.307C170.346 309.508 171.761 310.81 173.101 313.176C176.031 318.334 180.3 331.33 183.355 341.321C183.391 341.437 183.382 341.563 183.328 341.673C183.275 341.782 183.181 341.867 183.067 341.91L182.879 341.997H182.766C178.146 342.661 174.203 343.249 171.223 343.625H170.835L170.797 343.725ZM166.716 311.06C167.479 316.394 169.72 332.169 171.198 342.748L182.316 341.171C179.286 331.293 175.129 318.635 172.3 313.627C171.11 311.523 169.933 310.384 168.794 310.221C168.407 310.195 168.018 310.257 167.658 310.402C167.298 310.547 166.976 310.772 166.716 311.06Z" fill="#263238"/>
<path d="M256.697 330.917C260.313 330.18 263.965 329.637 267.639 329.289C266.199 319.135 264.359 306.427 263.758 298.627C255.758 301.933 255.72 319.11 256.697 330.917Z" fill="white"/>
<path d="M256.695 331.331C256.595 331.328 256.499 331.293 256.42 331.231C256.367 331.194 256.322 331.145 256.289 331.089C256.257 331.033 256.237 330.97 256.232 330.905C255.143 317.822 255.531 301.521 263.581 298.14C263.647 298.106 263.72 298.088 263.794 298.088C263.868 298.088 263.941 298.106 264.007 298.14C264.069 298.183 264.122 298.239 264.161 298.303C264.2 298.368 264.224 298.441 264.232 298.516C264.796 305.915 266.511 317.959 267.888 327.625L268.101 329.127C268.111 329.191 268.107 329.257 268.09 329.319C268.072 329.382 268.042 329.44 268.001 329.49C267.964 329.54 267.917 329.581 267.863 329.611C267.809 329.642 267.75 329.66 267.688 329.666C264.031 330.013 260.395 330.557 256.796 331.293L256.695 331.331ZM263.344 299.292C256.157 303.198 256.307 320.05 257.084 330.292C260.201 329.666 263.481 329.177 267.1 328.802L266.962 327.788C265.622 318.398 263.97 306.766 263.344 299.292Z" fill="#263238"/>
<path d="M224.508 235.477C224.508 235.477 225.008 225.035 229.979 232.234C234.949 239.433 226.16 250.564 224.971 248.761C223.781 246.958 224.508 235.477 224.508 235.477Z" fill="white"/>
<path d="M225.309 249.424C225.157 249.428 225.005 249.394 224.869 249.324C224.734 249.254 224.618 249.15 224.533 249.023C223.281 247.145 223.957 236.666 224.045 235.452C224.045 234.851 224.37 229.905 226.549 229.292C227.676 228.979 228.94 229.843 230.405 231.959C233.285 236.128 231.657 241.111 230.405 243.702C228.965 246.745 226.737 249.311 225.397 249.424H225.309ZM226.974 230.168H226.774C225.597 230.506 225.059 233.924 224.984 235.477C224.658 239.846 224.47 247.245 225.309 248.46C225.522 248.46 226.674 247.821 228.089 245.768C230.593 242.2 232.433 236.566 229.591 232.459C228.552 230.982 227.625 230.168 226.974 230.168Z" fill="#263238"/>
<path d="M225.108 241.5H225.02C224.959 241.489 224.9 241.467 224.848 241.433C224.795 241.4 224.75 241.356 224.715 241.304C224.68 241.253 224.656 241.195 224.644 241.134C224.632 241.073 224.632 241.01 224.644 240.949C224.845 239.872 225.959 234.451 227.411 233.575C227.606 233.438 227.83 233.351 228.066 233.32C228.301 233.29 228.541 233.317 228.764 233.4C229.076 233.575 229.349 233.814 229.564 234.101C229.78 234.387 229.933 234.716 230.016 235.065C230.042 235.186 230.02 235.312 229.955 235.418C229.889 235.523 229.785 235.598 229.665 235.628C229.606 235.645 229.544 235.649 229.483 235.641C229.422 235.633 229.363 235.613 229.31 235.581C229.257 235.549 229.212 235.507 229.176 235.457C229.14 235.407 229.115 235.35 229.102 235.29C229.026 235.015 228.789 234.401 228.451 234.276C228.451 234.276 228.25 234.188 227.95 234.376C227.148 234.864 226.097 238.62 225.621 241.124C225.594 241.238 225.528 241.338 225.434 241.407C225.34 241.476 225.224 241.509 225.108 241.5Z" fill="#263238"/>
<path d="M228.239 241.462C228.163 241.463 228.087 241.445 228.02 241.41C227.952 241.375 227.894 241.324 227.851 241.262C227.783 241.158 227.758 241.032 227.781 240.911C227.805 240.789 227.875 240.681 227.976 240.61C228.227 240.42 228.415 240.157 228.513 239.858C228.612 239.558 228.616 239.235 228.527 238.933C228.514 238.875 228.489 238.822 228.452 238.776C228.415 238.73 228.368 238.694 228.314 238.67C227.522 238.549 226.711 238.68 225.998 239.045C225.942 239.07 225.882 239.084 225.821 239.086C225.759 239.087 225.699 239.076 225.642 239.054C225.585 239.032 225.532 238.999 225.488 238.957C225.444 238.914 225.409 238.864 225.384 238.808C225.358 238.752 225.343 238.692 225.34 238.63C225.338 238.568 225.348 238.507 225.37 238.449C225.393 238.392 225.426 238.339 225.47 238.296C225.513 238.252 225.565 238.217 225.622 238.194C226.575 237.718 227.663 237.585 228.702 237.819C228.881 237.894 229.04 238.011 229.166 238.159C229.292 238.306 229.382 238.481 229.428 238.67C229.572 239.162 229.562 239.686 229.399 240.172C229.235 240.658 228.927 241.082 228.514 241.387C228.431 241.436 228.336 241.462 228.239 241.462Z" fill="#263238"/>
<path d="M185.983 240.96C185.983 240.96 182.59 231.056 179.823 239.357C177.056 247.658 188.587 255.896 189.289 253.83C189.99 251.764 185.983 240.96 185.983 240.96Z" fill="white"/>
<path d="M188.751 254.621C188.464 254.612 188.181 254.557 187.912 254.458C184.857 253.444 176.982 246.408 179.386 239.209C180.199 236.768 181.176 235.578 182.34 235.578C184.569 235.578 186.234 240.236 186.422 240.799C186.848 241.951 190.453 251.804 189.74 253.97C189.671 254.173 189.536 254.347 189.357 254.465C189.178 254.583 188.964 254.638 188.751 254.621ZM182.353 236.517C181.652 236.517 180.926 237.581 180.275 239.509C178.697 244.254 182.065 249.137 185.433 251.879C187.361 253.457 188.663 253.795 188.876 253.657C189.326 252.28 187.073 245.231 185.545 241.137C184.894 239.196 183.48 236.517 182.353 236.517Z" fill="#263238"/>
<path d="M186.973 246.92C186.885 246.919 186.799 246.894 186.724 246.847C186.649 246.801 186.588 246.735 186.547 246.657C185.383 244.379 183.329 241.073 182.415 240.823C182.077 240.735 181.952 240.823 181.915 240.823C181.627 241.036 181.564 241.687 181.577 241.975C181.58 242.099 181.535 242.219 181.451 242.311C181.366 242.402 181.25 242.456 181.126 242.463C181.064 242.466 181.002 242.457 180.944 242.436C180.885 242.415 180.832 242.383 180.786 242.341C180.741 242.299 180.704 242.248 180.679 242.192C180.653 242.135 180.639 242.074 180.638 242.012C180.61 241.66 180.657 241.307 180.776 240.975C180.894 240.642 181.082 240.339 181.326 240.084C181.513 239.938 181.734 239.842 181.968 239.805C182.203 239.768 182.443 239.791 182.666 239.871C184.306 240.309 186.885 245.205 187.386 246.131C187.439 246.241 187.448 246.368 187.411 246.484C187.374 246.601 187.293 246.699 187.185 246.757C187.13 246.829 187.057 246.886 186.973 246.92Z" fill="#263238"/>
<path d="M183.944 247.759C183.895 247.771 183.843 247.771 183.794 247.759C183.312 247.582 182.897 247.261 182.603 246.84C182.31 246.419 182.153 245.918 182.154 245.405C182.152 245.212 182.193 245.022 182.273 244.846C182.353 244.671 182.47 244.516 182.617 244.391C183.553 243.88 184.635 243.703 185.684 243.89C185.746 243.898 185.804 243.918 185.858 243.948C185.911 243.979 185.958 244.02 185.995 244.069C186.032 244.118 186.06 244.174 186.075 244.233C186.091 244.293 186.094 244.355 186.085 244.416C186.079 244.478 186.06 244.538 186.03 244.592C186 244.646 185.959 244.693 185.91 244.731C185.86 244.769 185.804 244.796 185.743 244.81C185.683 244.825 185.62 244.827 185.559 244.817C184.772 244.667 183.958 244.767 183.231 245.105C183.188 245.142 183.153 245.188 183.129 245.24C183.106 245.292 183.093 245.348 183.093 245.405C183.09 245.722 183.185 246.033 183.364 246.295C183.543 246.557 183.798 246.757 184.094 246.87C184.214 246.91 184.313 246.996 184.369 247.108C184.425 247.221 184.435 247.351 184.395 247.471C184.356 247.557 184.293 247.631 184.213 247.682C184.132 247.733 184.039 247.76 183.944 247.759Z" fill="#263238"/>
<path d="M196.288 261.681C196.288 261.681 201.709 280.637 202.761 284.142C204.013 288.236 211.325 298.065 215.068 296.55C218.812 295.035 219.5 283.729 220.001 280.374C220.502 277.018 219.513 258.389 219.513 258.389L196.288 261.681Z" fill="white"/>
<path d="M214.217 297.175C213.556 297.157 212.909 296.985 212.326 296.674C208.357 294.784 203.362 287.71 202.31 284.267C201.258 280.824 195.887 262.007 195.825 261.819C195.797 261.758 195.782 261.692 195.782 261.625C195.782 261.558 195.797 261.492 195.825 261.431C195.862 261.375 195.909 261.327 195.965 261.29C196.021 261.254 196.084 261.229 196.15 261.218L219.387 257.925C219.452 257.913 219.518 257.915 219.581 257.933C219.644 257.95 219.702 257.982 219.751 258.025C219.802 258.065 219.843 258.117 219.871 258.175C219.899 258.234 219.914 258.298 219.913 258.363C219.913 259.127 220.915 277.068 220.402 280.436C220.326 280.949 220.251 281.625 220.151 282.439C219.4 288.799 218.336 295.698 215.143 296.975C214.849 297.098 214.535 297.166 214.217 297.175ZM196.877 262.057C197.765 265.124 202.273 280.837 203.212 283.979C204.151 287.122 209.033 293.995 212.727 295.811C213.047 296.003 213.404 296.126 213.775 296.174C214.145 296.221 214.522 296.191 214.88 296.086C217.797 294.897 218.799 286.396 219.287 282.314C219.387 281.5 219.463 280.799 219.538 280.286C219.988 277.319 219.225 261.919 219.074 258.914L196.877 262.057Z" fill="#263238"/>
<path d="M183.18 218.135C183.18 218.135 184.269 236.252 188.063 249.06C191.856 261.868 203.199 272.109 209.084 271.771C214.968 271.433 226.111 256.008 225.435 247.695C224.759 239.382 226.211 218.436 222.129 210.611C218.048 202.786 212.389 201.133 200.695 202.298C189.002 203.462 181.039 210.035 183.18 218.135Z" fill="white"/>
<path d="M208.795 272.247C202.385 272.247 191.267 261.618 187.624 249.198C183.981 236.778 182.779 219.237 182.716 218.211C182.318 216.768 182.249 215.254 182.513 213.781C182.778 212.307 183.369 210.912 184.243 209.697C187.198 205.44 193.17 202.573 200.645 201.835C213.039 200.583 218.561 202.761 222.555 210.398C225.522 216.095 225.597 228.314 225.66 238.143C225.66 241.999 225.66 245.317 225.898 247.658C226.348 253.067 221.966 261.217 217.409 266.438C215.606 268.516 212.126 272.034 209.108 272.21L208.795 272.247ZM206.592 202.436C204.839 202.436 202.898 202.548 200.732 202.761C193.646 203.475 187.762 206.267 185.02 210.273C184.22 211.382 183.68 212.656 183.439 214.002C183.198 215.348 183.264 216.731 183.63 218.048C183.636 218.077 183.636 218.107 183.63 218.136C183.63 218.324 184.769 236.365 188.5 248.96C192.256 261.755 203.687 271.671 209.046 271.333C210.986 271.221 213.778 269.23 216.683 265.887C221.115 260.791 225.372 252.929 224.946 247.783C224.746 245.404 224.733 242.061 224.708 238.193C224.645 228.465 224.57 216.37 221.703 210.874C218.536 204.827 214.592 202.436 206.592 202.436Z" fill="#263238"/>
<path d="M184.895 239.62C184.895 239.62 186.885 238.919 186.422 235.627C185.959 232.334 185.258 230.343 186.422 229.554C187.586 228.766 189.352 228.089 189.277 224.546C189.202 221.003 184.694 218.912 185.646 215.219C186.273 213.275 187.547 211.604 189.255 210.483C190.963 209.363 193.003 208.86 195.036 209.059C199.28 209.51 200.419 216.045 207.193 219.488C213.966 222.931 221.941 221.579 221.941 221.579C221.576 222.154 221.41 222.833 221.469 223.512C221.528 224.191 221.808 224.831 222.267 225.335C223.125 226.34 223.665 227.578 223.819 228.891C223.819 228.891 224.395 235.927 225.635 235.752C226.874 235.576 226.261 219.538 225.91 217.072C225.56 214.605 226.01 204.552 218.398 201.171C210.786 197.791 199.831 198.78 193.233 200.971C186.635 203.162 183.217 206.805 181.727 212.878C180.237 218.95 184.895 239.62 184.895 239.62Z" fill="#263238"/>
<path d="M184.895 240.084C184.821 240.102 184.743 240.102 184.669 240.084C184.557 240.01 184.473 239.9 184.431 239.771C184.244 238.92 179.812 218.888 181.264 212.778C182.716 206.668 186.385 202.762 193.07 200.546C200.132 198.192 211.162 197.516 218.574 200.746C225.397 203.739 225.96 211.789 226.236 215.67C226.236 216.233 226.298 216.697 226.348 217.022C226.536 218.274 226.762 222.969 226.812 227.276C226.887 236.04 226.186 236.153 225.672 236.228C225.559 236.246 225.442 236.238 225.332 236.206C225.222 236.173 225.12 236.117 225.034 236.04C223.92 235.151 223.444 230.381 223.331 228.941C223.163 227.724 222.655 226.578 221.866 225.636C221.48 225.164 221.211 224.607 221.083 224.01C220.954 223.413 220.97 222.795 221.128 222.206C216.286 222.762 211.385 221.982 206.955 219.952C204.071 218.361 201.594 216.124 199.718 213.416C198.128 211.388 196.864 209.773 194.961 209.585C193.041 209.398 191.114 209.87 189.499 210.923C187.883 211.977 186.674 213.55 186.072 215.382C185.608 217.185 186.635 218.612 187.712 220.115C188.819 221.334 189.527 222.863 189.74 224.497C189.828 227.902 188.25 228.904 187.098 229.642L186.685 229.905C186.072 230.331 186.234 231.445 186.597 233.549C186.698 234.15 186.81 234.801 186.91 235.527C187.424 239.145 185.17 239.984 185.083 240.021C185.026 240.058 184.962 240.079 184.895 240.084ZM206.279 199.457C201.901 199.437 197.547 200.096 193.371 201.41C186.935 203.551 183.593 207.006 182.178 212.966C180.926 218.262 184.444 235.301 185.208 238.882C185.585 238.467 185.853 237.965 185.988 237.421C186.124 236.877 186.122 236.308 185.984 235.765C185.884 235.051 185.771 234.4 185.671 233.799C185.27 231.533 185.02 230.043 186.159 229.229L186.585 228.954C187.662 228.265 188.876 227.501 188.801 224.622C188.608 223.152 187.97 221.776 186.973 220.678C185.821 219.063 184.619 217.398 185.183 215.157C186.197 211.188 190.729 208.208 195.073 208.659C197.377 208.897 198.83 210.737 200.482 212.853C202.273 215.449 204.643 217.592 207.406 219.113C213.966 222.443 221.791 221.179 221.866 221.166C221.958 221.146 222.054 221.156 222.139 221.194C222.225 221.233 222.296 221.297 222.342 221.379C222.397 221.456 222.427 221.548 222.427 221.642C222.427 221.736 222.397 221.828 222.342 221.905C222.046 222.397 221.918 222.972 221.977 223.543C222.036 224.114 222.278 224.651 222.668 225.073C223.591 226.153 224.163 227.49 224.308 228.904C224.396 231.043 224.818 233.155 225.56 235.164C226.261 233.023 225.86 219.764 225.497 217.147C225.497 216.809 225.409 216.321 225.372 215.733C225.109 211.977 224.583 204.365 218.273 201.61C214.461 200.09 210.381 199.358 206.279 199.457Z" fill="#263238"/>
<path d="M195.586 247.132C193.203 247.135 190.912 246.213 189.196 244.56C187.48 242.907 186.473 240.652 186.388 238.27C186.303 235.889 187.146 233.568 188.74 231.796C190.334 230.025 192.553 228.941 194.93 228.775C197.307 228.608 199.656 229.372 201.481 230.904C203.306 232.436 204.464 234.618 204.712 236.988C204.959 239.358 204.277 241.731 202.808 243.607C201.339 245.484 199.198 246.716 196.838 247.044C196.423 247.102 196.005 247.131 195.586 247.132ZM195.586 229.604C195.189 229.604 194.791 229.629 194.397 229.679C192.498 229.947 190.751 230.866 189.453 232.279C188.155 233.691 187.388 235.51 187.281 237.425C187.175 239.34 187.735 241.232 188.868 242.78C190.001 244.328 191.635 245.435 193.493 245.913C195.35 246.39 197.316 246.209 199.055 245.4C200.793 244.59 202.198 243.203 203.028 241.474C203.858 239.745 204.063 237.782 203.608 235.918C203.153 234.055 202.066 232.408 200.532 231.256C199.11 230.198 197.383 229.631 195.611 229.641L195.586 229.604Z" fill="#263238"/>
<path d="M215.506 244.302C213.174 244.298 210.929 243.41 209.226 241.816C207.523 240.222 206.487 238.042 206.329 235.715C206.17 233.388 206.899 231.087 208.37 229.277C209.841 227.466 211.944 226.281 214.254 225.96C215.453 225.789 216.674 225.855 217.847 226.155C219.02 226.456 220.122 226.984 221.091 227.711C222.059 228.438 222.875 229.348 223.491 230.391C224.108 231.433 224.513 232.586 224.683 233.785C224.874 235.093 224.781 236.427 224.409 237.695C224.038 238.964 223.397 240.137 222.53 241.136C221.664 242.134 220.592 242.934 219.389 243.48C218.185 244.027 216.878 244.307 215.556 244.302H215.506ZM215.506 226.774C215.117 226.775 214.728 226.8 214.342 226.849C212.2 227.139 210.255 228.248 208.916 229.944C207.576 231.64 206.948 233.79 207.162 235.94C207.377 238.09 208.418 240.073 210.066 241.471C211.714 242.869 213.84 243.572 215.996 243.433C218.153 243.294 220.171 242.323 221.626 240.725C223.08 239.127 223.858 237.027 223.794 234.867C223.731 232.707 222.831 230.656 221.285 229.146C219.739 227.637 217.667 226.786 215.506 226.774Z" fill="#263238"/>
<path d="M197.665 238.118C197.866 239.533 197.44 240.772 196.701 240.873C195.963 240.973 195.199 239.909 194.999 238.494C194.798 237.079 195.237 235.84 195.975 235.739C196.714 235.639 197.465 236.703 197.665 238.118Z" fill="#263238"/>
<path d="M214.505 235.766C214.705 237.181 214.279 238.408 213.541 238.52C212.802 238.633 212.038 237.556 211.838 236.142C211.638 234.727 212.063 233.487 212.802 233.387C213.541 233.287 214.304 234.301 214.505 235.766Z" fill="#263238"/>
<path d="M206.078 230.946C206.075 235.32 206.347 239.689 206.892 244.029C207.643 247.91 208.407 250.289 205.941 250.665C203.474 251.04 203.512 246.821 203.512 246.821" fill="white"/>
<path d="M205.665 251.152C205.165 251.158 204.682 250.974 204.313 250.639C203.061 249.537 203.061 246.883 203.061 246.808C203.064 246.686 203.114 246.57 203.2 246.484C203.286 246.397 203.402 246.348 203.524 246.344C203.65 246.344 203.771 246.395 203.86 246.484C203.949 246.573 204 246.694 204 246.82C203.942 247.937 204.273 249.039 204.939 249.938C205.068 250.049 205.22 250.131 205.385 250.176C205.549 250.222 205.722 250.23 205.89 250.201C206.087 250.19 206.28 250.139 206.457 250.051C206.633 249.962 206.79 249.839 206.917 249.687C207.43 248.961 207.079 247.309 206.654 245.205L206.441 244.116C205.89 239.751 205.614 235.357 205.615 230.957C205.615 230.831 205.665 230.71 205.754 230.621C205.843 230.532 205.964 230.482 206.09 230.482C206.152 230.48 206.213 230.491 206.27 230.513C206.327 230.536 206.378 230.57 206.422 230.613C206.465 230.657 206.499 230.709 206.522 230.766C206.545 230.823 206.555 230.884 206.554 230.945C206.553 235.29 206.825 239.63 207.367 243.941L207.58 245.017C208.069 247.434 208.432 249.174 207.68 250.238C207.482 250.493 207.233 250.704 206.948 250.857C206.664 251.011 206.35 251.102 206.028 251.127L205.665 251.152Z" fill="#263238"/>
<path d="M198.817 253.556C198.817 253.556 205.966 258.201 214.83 251.277L198.817 253.556Z" fill="white"/>
<path d="M204.851 255.534C202.663 255.565 200.504 255.021 198.591 253.957C198.539 253.924 198.493 253.88 198.458 253.83C198.422 253.779 198.397 253.721 198.385 253.66C198.372 253.6 198.371 253.537 198.383 253.476C198.395 253.415 198.419 253.357 198.454 253.306C198.485 253.254 198.527 253.208 198.577 253.173C198.627 253.138 198.684 253.113 198.743 253.1C198.803 253.087 198.865 253.086 198.925 253.098C198.985 253.11 199.042 253.134 199.092 253.168C199.38 253.343 206.091 257.525 214.567 250.914C214.615 250.877 214.671 250.849 214.73 250.832C214.789 250.816 214.851 250.811 214.912 250.819C214.973 250.827 215.032 250.846 215.086 250.876C215.139 250.907 215.186 250.947 215.224 250.996C215.262 251.044 215.29 251.1 215.306 251.159C215.323 251.218 215.327 251.28 215.32 251.341C215.312 251.402 215.292 251.461 215.262 251.515C215.232 251.568 215.191 251.615 215.143 251.653C212.255 254.083 208.624 255.453 204.851 255.534Z" fill="#263238"/>
<path d="M204.462 236.253C204.349 236.257 204.238 236.218 204.152 236.144C204.066 236.069 204.011 235.966 203.999 235.853C203.99 235.792 203.994 235.73 204.009 235.67C204.024 235.611 204.052 235.555 204.089 235.506C204.126 235.457 204.173 235.416 204.226 235.385C204.28 235.354 204.338 235.335 204.4 235.327L206.904 234.976C206.966 234.964 207.03 234.964 207.091 234.978C207.153 234.992 207.211 235.019 207.262 235.056C207.313 235.094 207.355 235.142 207.386 235.198C207.417 235.253 207.436 235.314 207.442 235.377C207.456 235.499 207.423 235.623 207.348 235.721C207.273 235.819 207.163 235.884 207.041 235.903L204.537 236.253H204.462Z" fill="#263238"/>
<path d="M184.568 239.295C184.455 239.286 184.348 239.236 184.268 239.155C184.188 239.074 184.14 238.966 184.132 238.853C184.125 238.739 184.158 238.626 184.227 238.535C184.295 238.444 184.394 238.38 184.506 238.356L186.359 238.093C186.477 238.089 186.593 238.128 186.683 238.205C186.774 238.281 186.833 238.388 186.849 238.506C186.864 238.623 186.835 238.742 186.768 238.839C186.701 238.937 186.599 239.006 186.484 239.032L184.643 239.295H184.568Z" fill="#263238"/>
<path d="M224.194 233.661C224.082 233.659 223.974 233.618 223.889 233.545C223.804 233.472 223.748 233.371 223.73 233.26C223.713 233.136 223.745 233.009 223.82 232.908C223.895 232.807 224.007 232.74 224.131 232.722L225.984 232.459C226.102 232.454 226.218 232.494 226.309 232.57C226.399 232.647 226.458 232.754 226.474 232.871C226.49 232.989 226.461 233.108 226.393 233.205C226.326 233.303 226.225 233.371 226.109 233.398L224.269 233.661H224.194Z" fill="#263238"/>
<path d="M189.589 231.195C189.38 231.193 189.174 231.142 188.988 231.045C188.844 230.965 188.718 230.858 188.615 230.729C188.513 230.601 188.437 230.453 188.391 230.295C188.346 230.137 188.332 229.971 188.351 229.808C188.37 229.644 188.42 229.486 188.5 229.342C189.752 227.089 193.608 223.596 199.442 226.45C199.741 226.596 199.97 226.855 200.078 227.17C200.186 227.485 200.165 227.829 200.018 228.128C199.872 228.427 199.613 228.655 199.299 228.763C198.984 228.871 198.64 228.85 198.341 228.704C193.17 226.2 190.829 230.369 190.691 230.544C190.583 230.742 190.423 230.907 190.23 231.021C190.036 231.136 189.814 231.196 189.589 231.195Z" fill="#263238"/>
<path d="M209.309 228.39C209.091 228.391 208.877 228.335 208.688 228.227C208.498 228.12 208.34 227.965 208.229 227.778C208.118 227.591 208.057 227.378 208.053 227.161C208.05 226.943 208.102 226.728 208.207 226.537C209.459 224.284 213.328 220.791 219.149 223.645C219.439 223.795 219.658 224.052 219.761 224.361C219.864 224.671 219.842 225.008 219.701 225.302C219.559 225.595 219.308 225.822 219.002 225.933C218.695 226.045 218.357 226.032 218.06 225.899C212.889 223.395 210.548 227.564 210.398 227.739C210.291 227.935 210.133 228.098 209.942 228.213C209.75 228.327 209.532 228.389 209.309 228.39Z" fill="#263238"/>
<path d="M194.923 242.85C194.811 242.832 194.71 242.775 194.637 242.689C194.564 242.603 194.524 242.494 194.524 242.381C194.524 242.268 194.564 242.159 194.637 242.073C194.71 241.987 194.811 241.929 194.923 241.911L199.029 241.335C199.09 241.325 199.153 241.327 199.213 241.341C199.274 241.356 199.33 241.383 199.38 241.421C199.429 241.458 199.47 241.506 199.5 241.56C199.531 241.614 199.549 241.674 199.555 241.736C199.564 241.797 199.561 241.859 199.545 241.918C199.53 241.978 199.502 242.034 199.465 242.083C199.428 242.132 199.381 242.173 199.328 242.204C199.275 242.234 199.216 242.254 199.155 242.262L195.048 242.85H194.923Z" fill="#263238"/>
<path d="M211.762 240.461C211.649 240.462 211.54 240.422 211.455 240.348C211.369 240.274 211.314 240.172 211.299 240.06C211.281 239.936 211.313 239.809 211.388 239.708C211.463 239.607 211.575 239.54 211.699 239.522L215.806 238.946C215.927 238.928 216.051 238.959 216.149 239.031C216.248 239.104 216.313 239.213 216.332 239.334C216.35 239.459 216.318 239.585 216.243 239.686C216.168 239.787 216.056 239.854 215.931 239.872L211.825 240.448L211.762 240.461Z" fill="#263238"/>
<path d="M293.451 344.127L150.099 364.503L157.083 413.639L300.436 393.262L293.451 344.127Z" fill="#263238"/>
<path d="M243.89 358.715L200.744 364.816L201.094 367.295L244.24 361.194L243.89 358.715Z" fill="white"/>
<path d="M280.285 380.96L171.979 396.276L172.33 398.755L280.635 383.439L280.285 380.96Z" fill="white"/>
<path d="M251.001 364.443L195.522 372.288L195.873 374.767L251.352 366.922L251.001 364.443Z" fill="white"/>
<path d="M187.363 377.734L186.792 377.815L188.182 387.644L188.753 387.563L187.363 377.734Z" fill="#263238"/>
<path d="M193.21 376.912L192.64 376.993L194.03 386.822L194.6 386.741L193.21 376.912Z" fill="#263238"/>
<path d="M194.754 376.531L194.184 376.612L195.581 386.441L196.151 386.36L194.754 376.531Z" fill="#263238"/>
<path d="M196.153 376.335L195.583 376.417L196.98 386.246L197.55 386.165L196.153 376.335Z" fill="#263238"/>
<path d="M199.215 375.896L198.645 375.977L200.042 385.807L200.612 385.726L199.215 375.896Z" fill="#263238"/>
<path d="M200.395 375.732L199.825 375.813L201.222 385.643L201.792 385.561L200.395 375.732Z" fill="#263238"/>
<path d="M189.532 377.422L188.392 377.583L189.782 387.412L190.922 387.251L189.532 377.422Z" fill="#263238"/>
<path d="M205.986 374.929L205.416 375.01L206.813 384.839L207.383 384.758L205.986 374.929Z" fill="#263238"/>
<path d="M208.143 374.626L207.003 374.789L208.4 384.618L209.541 384.456L208.143 374.626Z" fill="#263238"/>
<path d="M192.693 376.817L191.552 376.979L192.949 386.809L194.09 386.646L192.693 376.817Z" fill="#263238"/>
<path d="M197.982 376.225L196.841 376.387L198.231 386.216L199.372 386.055L197.982 376.225Z" fill="#263238"/>
<path d="M202.946 375.374L202.375 375.455L203.773 385.285L204.343 385.204L202.946 375.374Z" fill="#263238"/>
<path d="M204.138 375.199L203.568 375.28L204.965 385.109L205.535 385.028L204.138 375.199Z" fill="#263238"/>
<path d="M202.078 375.495L200.938 375.657L202.335 385.487L203.475 385.325L202.078 375.495Z" fill="#263238"/>
<path d="M210.412 374.323L209.842 374.404L211.239 384.233L211.809 384.152L210.412 374.323Z" fill="#263238"/>
<path d="M216.269 373.481L215.699 373.562L217.096 383.392L217.666 383.311L216.269 373.481Z" fill="#263238"/>
<path d="M217.45 373.307L216.879 373.388L218.277 383.218L218.847 383.137L217.45 373.307Z" fill="#263238"/>
<path d="M218.834 373.111L218.264 373.192L219.661 383.021L220.231 382.94L218.834 373.111Z" fill="#263238"/>
<path d="M221.934 372.657L221.364 372.738L222.761 382.567L223.332 382.486L221.934 372.657Z" fill="#263238"/>
<path d="M223.06 372.524L222.49 372.605L223.889 382.435L224.459 382.354L223.06 372.524Z" fill="#263238"/>
<path d="M212.613 373.964L211.473 374.126L212.872 383.956L214.012 383.793L212.613 373.964Z" fill="#263238"/>
<path d="M228.664 371.721L228.094 371.802L229.493 381.631L230.063 381.55L228.664 371.721Z" fill="#263238"/>
<path d="M230.838 371.403L229.698 371.565L231.095 381.395L232.235 381.232L230.838 371.403Z" fill="#263238"/>
<path d="M215.036 373.813L213.896 373.974L215.285 383.803L216.426 383.642L215.036 373.813Z" fill="#263238"/>
<path d="M220.677 373.018L219.537 373.179L220.927 383.008L222.067 382.847L220.677 373.018Z" fill="#263238"/>
<path d="M225.666 372.148L225.096 372.229L226.493 382.059L227.064 381.977L225.666 372.148Z" fill="#263238"/>
<path d="M226.832 371.961L226.262 372.042L227.659 381.872L228.229 381.79L226.832 371.961Z" fill="#263238"/>
<path d="M224.772 372.27L223.631 372.432L225.029 382.262L226.169 382.1L224.772 372.27Z" fill="#263238"/>
<path d="M232.449 371.178L231.879 371.259L233.276 381.089L233.846 381.008L232.449 371.178Z" fill="#263238"/>
<path d="M233.629 371.002L233.059 371.083L234.456 380.913L235.026 380.832L233.629 371.002Z" fill="#263238"/>
<path d="M239.221 370.211L238.65 370.292L240.048 380.122L240.618 380.04L239.221 370.211Z" fill="#263238"/>
<path d="M241.366 369.91L240.226 370.072L241.623 379.902L242.764 379.74L241.366 369.91Z" fill="#263238"/>
<path d="M236.206 370.631L235.636 370.712L237.033 380.542L237.603 380.461L236.206 370.631Z" fill="#263238"/>
<path d="M237.36 370.48L236.79 370.562L238.187 380.391L238.757 380.31L237.36 370.48Z" fill="#263238"/>
<path d="M234.974 371.001L233.834 371.163L235.224 380.992L236.364 380.83L234.974 371.001Z" fill="#263238"/>
<path d="M243.307 369.818L242.737 369.899L244.127 379.728L244.697 379.647L243.307 369.818Z" fill="#263238"/>
<path d="M249.155 369.01L248.585 369.09L249.975 378.919L250.545 378.839L249.155 369.01Z" fill="#263238"/>
<path d="M250.672 368.602L250.102 368.683L251.499 378.513L252.069 378.432L250.672 368.602Z" fill="#263238"/>
<path d="M252.082 368.392L251.512 368.473L252.909 378.302L253.479 378.221L252.082 368.392Z" fill="#263238"/>
<path d="M255.145 367.952L254.575 368.033L255.972 377.862L256.543 377.781L255.145 367.952Z" fill="#263238"/>
<path d="M255.974 368.027L255.404 368.107L256.794 377.936L257.364 377.856L255.974 368.027Z" fill="#263238"/>
<path d="M245.834 369.241L244.693 369.403L246.092 379.233L247.233 379.07L245.834 369.241Z" fill="#263238"/>
<path d="M261.915 366.973L261.345 367.054L262.742 376.884L263.312 376.803L261.915 366.973Z" fill="#263238"/>
<path d="M264.06 366.686L262.92 366.848L264.317 376.677L265.457 376.515L264.06 366.686Z" fill="#263238"/>
<path d="M248.622 368.874L247.481 369.036L248.879 378.866L250.019 378.704L248.622 368.874Z" fill="#263238"/>
<path d="M253.926 368.323L252.786 368.484L254.176 378.313L255.316 378.152L253.926 368.323Z" fill="#263238"/>
<path d="M258.888 367.418L258.318 367.5L259.715 377.329L260.285 377.248L258.888 367.418Z" fill="#263238"/>
<path d="M260.049 367.28L259.479 367.361L260.877 377.191L261.448 377.109L260.049 367.28Z" fill="#263238"/>
<path d="M258.018 367.54L256.877 367.702L258.275 377.531L259.415 377.369L258.018 367.54Z" fill="#263238"/>
<path d="M188.325 121.383C188.092 121.385 187.861 121.355 187.636 121.295C187.32 121.206 187.024 121.055 186.766 120.851C186.507 120.647 186.292 120.394 186.132 120.107C185.971 119.82 185.869 119.504 185.83 119.177C185.792 118.85 185.819 118.519 185.908 118.203C186.046 117.715 189.452 105.933 203.299 86.715C203.687 86.1754 204.274 85.8123 204.93 85.7054C205.587 85.5986 206.258 85.7568 206.798 86.1453C207.338 86.5338 207.701 87.1208 207.808 87.777C207.914 88.4333 207.756 89.1051 207.368 89.6447C194.109 108.049 190.766 119.455 190.729 119.567C190.579 120.09 190.264 120.55 189.83 120.877C189.397 121.205 188.868 121.382 188.325 121.383Z" fill="#263238"/>
</svg>
