<svg width="357" height="315" viewBox="0 0 357 315" fill="none" xmlns="http://www.w3.org/2000/svg">
<path d="M9.82546 151.819C8.65082 152.271 7.68955 153.148 7.13347 154.277C6.5774 155.406 6.46741 156.703 6.82546 157.909L8.17546 162.789C8.26176 163.118 8.21588 163.468 8.04766 163.763C7.87944 164.058 7.60224 164.276 7.27546 164.369L2.16546 165.809C1.40919 166.028 0.769333 166.536 0.383948 167.223C-0.0014374 167.909 -0.10146 168.72 0.10546 169.479L0.21546 169.869C0.441688 170.675 0.978311 171.358 1.70759 171.769C2.43686 172.179 3.29923 172.284 4.10546 172.059L4.94546 171.819C5.33925 171.712 5.75968 171.763 6.11543 171.964C6.47118 172.164 6.73352 172.497 6.84546 172.889L7.69546 175.939C7.7518 176.137 7.76854 176.344 7.7447 176.548C7.72087 176.752 7.65694 176.95 7.55658 177.129C7.45622 177.308 7.32142 177.466 7.15991 177.593C6.9984 177.72 6.81338 177.814 6.61546 177.869L5.69546 178.129C5.30852 178.233 4.94625 178.413 4.63004 178.659C4.31383 178.905 4.05009 179.212 3.85435 179.561C3.65862 179.911 3.53487 180.296 3.49041 180.694C3.44594 181.092 3.48166 181.495 3.59546 181.879L3.74546 182.409C3.97702 183.148 4.48506 183.768 5.1634 184.141C5.84175 184.514 6.6379 184.61 7.38546 184.409L12.4655 182.999C12.8115 182.904 13.1813 182.949 13.4941 183.125C13.807 183.301 14.0375 183.594 14.1355 183.939L18.0255 197.769L16.3555 198.239C16.0912 198.306 15.8433 198.426 15.627 198.591C15.4106 198.757 15.2305 198.965 15.0975 199.203C14.9645 199.441 14.8816 199.703 14.8537 199.975C14.8258 200.246 14.8537 200.52 14.9355 200.779L15.2755 202.009C15.4245 202.534 15.7757 202.978 16.2518 203.245C16.728 203.511 17.2903 203.577 17.8155 203.429L19.4655 202.999L20.4055 206.309L18.7255 206.789C18.4623 206.856 18.2155 206.975 18 207.141C17.7845 207.306 17.6049 207.513 17.472 207.749C17.3392 207.986 17.2559 208.247 17.2273 208.517C17.1986 208.787 17.2252 209.06 17.3055 209.319L17.6555 210.549C17.718 210.82 17.8362 211.074 18.0025 211.297C18.1687 211.519 18.3794 211.704 18.6212 211.84C18.8629 211.977 19.1304 212.061 19.4066 212.089C19.6828 212.116 19.9617 212.086 20.2255 211.999L21.9055 211.529L24.4655 220.399C24.4698 220.407 24.4722 220.416 24.4722 220.424C24.4722 220.433 24.4698 220.442 24.4655 220.449C14.8855 225.109 9.46546 234.889 12.0355 244.049C15.0355 254.559 27.3755 260.269 39.6955 256.809C52.0155 253.349 59.5955 242.009 56.6355 231.489C54.0555 222.319 44.3055 216.809 33.6355 217.849L31.1355 208.939L32.8555 208.459C33.3802 208.31 33.8245 207.959 34.0907 207.483C34.3569 207.007 34.4233 206.445 34.2755 205.919L33.9255 204.689C33.8589 204.426 33.7394 204.179 33.5744 203.964C33.4093 203.749 33.2022 203.569 32.9655 203.436C32.7288 203.303 32.4675 203.22 32.1976 203.191C31.9277 203.163 31.6548 203.189 31.3955 203.269L29.6755 203.749L28.7355 200.439L30.4555 199.949C30.7162 199.877 30.9601 199.753 31.1731 199.586C31.3861 199.419 31.5641 199.212 31.6969 198.976C31.8297 198.74 31.9147 198.48 31.9471 198.211C31.9794 197.943 31.9585 197.67 31.8855 197.409L31.5355 196.179C31.3864 195.655 31.0353 195.21 30.5591 194.944C30.0829 194.678 29.5206 194.612 28.9955 194.759L27.2755 195.249L15.8855 154.999C15.7069 154.386 15.4065 153.815 15.0021 153.32C14.5976 152.825 14.0976 152.418 13.5318 152.121C12.966 151.824 12.3462 151.644 11.7093 151.592C11.0725 151.541 10.4317 151.618 9.82546 151.819ZM48.1555 233.819C49.9955 240.369 45.2655 247.429 37.5955 249.589C29.9255 251.749 22.2055 248.189 20.3655 241.639C18.5255 235.089 23.2455 228.029 30.9155 225.869C38.5855 223.709 46.3055 227.309 48.1555 233.859V233.819Z" fill="#558B56"/>
<path d="M8.64555 87.9995C9.18592 87.9995 9.71413 88.1599 10.1633 88.4603C10.6124 88.7607 10.9624 89.1877 11.1687 89.6871C11.375 90.1865 11.4285 90.736 11.3223 91.2658C11.2162 91.7957 10.9552 92.2821 10.5724 92.6635C10.1896 93.0449 9.70222 93.3041 9.17199 93.4083C8.64177 93.5125 8.09254 93.457 7.59388 93.2488C7.09521 93.0407 6.66954 92.6892 6.37077 92.239C6.072 91.7887 5.91357 91.2599 5.91555 90.7195C5.91554 90.3615 5.98623 90.007 6.12355 89.6763C6.26086 89.3457 6.46211 89.0454 6.71575 88.7927C6.96938 88.5399 7.27042 88.3398 7.60158 88.2037C7.93274 88.0676 8.28751 87.9982 8.64555 87.9995Z" fill="#9BAB9B"/>
<path d="M8.64553 78.6797C9.18547 78.6797 9.71329 78.8398 10.1622 79.1398C10.6112 79.4398 10.9611 79.8661 11.1677 80.365C11.3744 80.8638 11.4284 81.4127 11.3231 81.9423C11.2177 82.4719 10.9577 82.9583 10.5759 83.3401C10.1941 83.7219 9.70769 83.9819 9.17812 84.0872C8.64856 84.1926 8.09965 84.1385 7.60081 83.9319C7.10196 83.7253 6.67559 83.3754 6.37562 82.9264C6.07564 82.4775 5.91553 81.9496 5.91553 81.4097C5.91553 80.6857 6.20315 79.9913 6.71513 79.4793C7.2271 78.9673 7.92149 78.6797 8.64553 78.6797Z" fill="#9BAB9B"/>
<path d="M8.64553 69.4795C9.18547 69.4795 9.71329 69.6396 10.1622 69.9396C10.6112 70.2396 10.9611 70.6659 11.1677 71.1648C11.3744 71.6636 11.4284 72.2125 11.3231 72.7421C11.2177 73.2717 10.9577 73.7581 10.5759 74.1399C10.1941 74.5217 9.70769 74.7817 9.17812 74.887C8.64856 74.9924 8.09965 74.9383 7.60081 74.7317C7.10196 74.5251 6.67559 74.1751 6.37562 73.7262C6.07564 73.2773 5.91553 72.7494 5.91553 72.2095C5.91553 71.4855 6.20315 70.7911 6.71513 70.2791C7.2271 69.7671 7.92149 69.4795 8.64553 69.4795Z" fill="#9BAB9B"/>
<path d="M288.996 257.5C288.996 257.5 290.906 240.79 301.216 241.29C307.216 241.58 303.306 231.94 307.346 230.29C311.386 228.64 316.346 232.41 319.056 228.29C321.766 224.17 326.056 221.09 332.276 224.57C338.496 228.05 342.176 221.79 346.086 227.88C349.996 233.97 342.376 238.99 333.986 238.75C325.596 238.51 328.696 247.09 320.586 246.02C312.476 244.95 314.706 255.86 308.056 255.15C303.386 254.65 301.996 258.22 299.056 257.73C297.756 257.56 292.246 258.44 288.996 257.5Z" fill="#558B56"/>
<path d="M303.186 246.38C303.186 246.31 305.316 239.38 313.866 238.22C319.706 237.4 321.216 236.33 323.296 234.85C324.42 234.028 325.604 233.289 326.836 232.64C331.916 230.01 338.886 232.19 339.176 232.28C339.227 232.298 339.27 232.335 339.296 232.383C339.322 232.431 339.329 232.487 339.316 232.54C339.296 232.592 339.257 232.635 339.207 232.661C339.157 232.686 339.1 232.693 339.046 232.68C338.976 232.68 331.946 230.46 327.046 233.01C325.827 233.644 324.66 234.373 323.556 235.19C321.506 236.65 319.886 237.8 313.946 238.63C305.676 239.79 303.626 246.43 303.606 246.5C303.599 246.525 303.587 246.55 303.57 246.571C303.554 246.592 303.534 246.609 303.51 246.622C303.487 246.635 303.461 246.644 303.435 246.647C303.408 246.65 303.381 246.647 303.356 246.64C303.299 246.628 303.249 246.593 303.217 246.545C303.185 246.496 303.174 246.437 303.186 246.38Z" fill="white"/>
<path d="M268.695 257.25C268.695 257.25 256.005 234.74 272.995 229.13C282.845 225.88 270.555 212.71 276.075 207.55C281.595 202.39 291.905 205.4 293.775 197.07C295.645 188.74 300.575 181.07 312.865 182.84C325.155 184.61 327.135 172.18 337.245 179.61C347.355 187.04 338.155 199.87 324.435 204.7C310.715 209.53 321.055 221.48 307.275 224.8C293.495 228.12 303.895 244.37 292.675 247.36C281.455 250.35 294.175 258.82 268.695 257.25Z" fill="#558B56"/>
<path d="M275.116 248.329C275.111 248.31 275.111 248.289 275.116 248.269C275.116 248.139 272.326 235.849 286.706 224.839C296.516 217.329 298.236 214.139 300.616 209.739C301.882 207.288 303.326 204.931 304.936 202.689C311.636 193.369 326.376 188.979 326.996 188.799C327.043 188.779 327.095 188.768 327.147 188.769C327.198 188.77 327.25 188.781 327.297 188.803C327.344 188.825 327.386 188.856 327.42 188.895C327.454 188.934 327.48 188.98 327.496 189.029C327.508 189.139 327.479 189.248 327.414 189.337C327.349 189.426 327.253 189.488 327.146 189.509C326.996 189.509 312.146 193.989 305.636 203.019C304.049 205.247 302.625 207.586 301.376 210.019C299.036 214.359 297.186 217.789 287.206 225.429C273.266 235.999 275.906 247.879 275.926 247.999C275.941 248.107 275.916 248.217 275.855 248.308C275.794 248.399 275.702 248.463 275.596 248.489C275.51 248.524 275.414 248.527 275.326 248.498C275.238 248.468 275.163 248.409 275.116 248.329Z" fill="white"/>
<path d="M10.8257 257.7H342.466" stroke="#263238" stroke-width="0.5" stroke-miterlimit="10" stroke-linecap="round"/>
<path d="M227.736 65.8496H39.0956C35.7377 65.8496 33.0156 68.5717 33.0156 71.9296V237.97C33.0156 241.327 35.7377 244.05 39.0956 244.05H227.736C231.094 244.05 233.816 241.327 233.816 237.97V71.9296C233.816 68.5717 231.094 65.8496 227.736 65.8496Z" fill="#A9C5AA"/>
<path d="M214.795 79.7593H52.0453C50.1952 79.7593 48.6953 81.2591 48.6953 83.1093V226.789C48.6953 228.639 50.1952 230.139 52.0453 230.139H214.795C216.645 230.139 218.145 228.639 218.145 226.789V83.1093C218.145 81.2591 216.645 79.7593 214.795 79.7593Z" fill="white"/>
<path d="M72.6255 257.449H57.4655L53.1255 243.779H76.0455L72.6255 257.449Z" fill="#558B56"/>
<path d="M207.336 257.439H192.176L187.846 243.779H210.756L207.336 257.439Z" fill="#558B56"/>
<path d="M52.0456 230.14H214.786C215.358 230.14 215.921 229.992 216.42 229.712C216.919 229.432 217.337 229.028 217.636 228.54L192.246 206.47H77.8356L49.9756 229.41C50.5636 229.879 51.2931 230.137 52.0456 230.14Z" fill="#A9C5AA"/>
<path d="M166.976 224.979C183.417 224.979 196.746 222.056 196.746 218.449C196.746 214.843 183.417 211.919 166.976 211.919C150.534 211.919 137.206 214.843 137.206 218.449C137.206 222.056 150.534 224.979 166.976 224.979Z" fill="#558B56"/>
<path d="M137.196 218.569H196.746V131.389H137.196V218.569Z" fill="#558B56"/>
<path d="M137.206 131.379C137.206 134.989 150.536 137.909 166.976 137.909C183.416 137.909 196.746 134.989 196.746 131.379C196.746 127.769 183.416 124.859 166.976 124.859C150.536 124.859 137.206 127.779 137.206 131.379Z" fill="#558B56"/>
<mask id="mask0_54_1928" style="mask-type:luminance" maskUnits="userSpaceOnUse" x="137" y="132" width="60" height="87">
<path d="M137.195 218.56H196.745V132.91H137.195V218.56Z" fill="white"/>
</mask>
<g mask="url(#mask0_54_1928)">
<path d="M135.985 145.06C135.985 148.67 149.925 151.59 167.115 151.59C184.305 151.59 198.245 148.67 198.245 145.06" stroke="white" stroke-width="0.5" stroke-miterlimit="10"/>
<path d="M135.985 160.879C135.985 164.489 149.925 167.409 167.115 167.409C184.305 167.409 198.245 164.489 198.245 160.879" stroke="white" stroke-width="0.5" stroke-miterlimit="10"/>
<path d="M135.985 175.8C135.985 179.4 149.925 182.32 167.115 182.32C184.305 182.32 198.245 179.4 198.245 175.8" stroke="white" stroke-width="0.5" stroke-miterlimit="10"/>
<path d="M135.985 190.1C135.985 193.71 149.925 196.63 167.115 196.63C184.305 196.63 198.245 193.71 198.245 190.1" stroke="white" stroke-width="0.5" stroke-miterlimit="10"/>
<path d="M135.985 204.5C135.985 208.1 149.925 211.02 167.115 211.02C184.305 211.02 198.245 208.1 198.245 204.5" stroke="white" stroke-width="0.5" stroke-miterlimit="10"/>
</g>
<path d="M143.286 210.6V219.71" stroke="#495F6F" stroke-width="0.5" stroke-miterlimit="10" stroke-linecap="round"/>
<path d="M143.286 196.149V206.229" stroke="#495F6F" stroke-width="0.5" stroke-miterlimit="10" stroke-linecap="round"/>
<path d="M143.286 182.08V192.54" stroke="#495F6F" stroke-width="0.5" stroke-miterlimit="10" stroke-linecap="round"/>
<path d="M143.286 167.209V177.659" stroke="#495F6F" stroke-width="0.5" stroke-miterlimit="10" stroke-linecap="round"/>
<path d="M143.286 150.989V163.269" stroke="#495F6F" stroke-width="0.5" stroke-miterlimit="10" stroke-linecap="round"/>
<path d="M143.286 138.419V146.319" stroke="#495F6F" stroke-width="0.5" stroke-miterlimit="10" stroke-linecap="round"/>
<path d="M148.916 212.169V221.289" stroke="#495F6F" stroke-width="0.5" stroke-miterlimit="10" stroke-linecap="round"/>
<path d="M148.916 197.729V207.809" stroke="#495F6F" stroke-width="0.5" stroke-miterlimit="10" stroke-linecap="round"/>
<path d="M148.916 183.66V194.12" stroke="#495F6F" stroke-width="0.5" stroke-miterlimit="10" stroke-linecap="round"/>
<path d="M148.916 168.79V179.24" stroke="#495F6F" stroke-width="0.5" stroke-miterlimit="10" stroke-linecap="round"/>
<path d="M148.916 152.56V164.85" stroke="#495F6F" stroke-width="0.5" stroke-miterlimit="10" stroke-linecap="round"/>
<path d="M148.916 140V147.9" stroke="#495F6F" stroke-width="0.5" stroke-miterlimit="10" stroke-linecap="round"/>
<path d="M155.226 213.109V222.229" stroke="#495F6F" stroke-width="0.5" stroke-miterlimit="10" stroke-linecap="round"/>
<path d="M155.226 198.669V208.749" stroke="#495F6F" stroke-width="0.5" stroke-miterlimit="10" stroke-linecap="round"/>
<path d="M155.226 184.6V195.06" stroke="#495F6F" stroke-width="0.5" stroke-miterlimit="10" stroke-linecap="round"/>
<path d="M155.226 169.72V180.18" stroke="#495F6F" stroke-width="0.5" stroke-miterlimit="10" stroke-linecap="round"/>
<path d="M155.226 153.5V165.79" stroke="#495F6F" stroke-width="0.5" stroke-miterlimit="10" stroke-linecap="round"/>
<path d="M155.226 140.939V148.839" stroke="#495F6F" stroke-width="0.5" stroke-miterlimit="10" stroke-linecap="round"/>
<path d="M191.325 210.669V219.779" stroke="#495F6F" stroke-width="0.5" stroke-miterlimit="10" stroke-linecap="round"/>
<path d="M191.325 196.229V206.299" stroke="#495F6F" stroke-width="0.5" stroke-miterlimit="10" stroke-linecap="round"/>
<path d="M191.325 182.16V192.61" stroke="#495F6F" stroke-width="0.5" stroke-miterlimit="10" stroke-linecap="round"/>
<path d="M191.325 167.279V177.739" stroke="#495F6F" stroke-width="0.5" stroke-miterlimit="10" stroke-linecap="round"/>
<path d="M191.325 151.06V163.35" stroke="#495F6F" stroke-width="0.5" stroke-miterlimit="10" stroke-linecap="round"/>
<path d="M191.325 138.5V146.39" stroke="#495F6F" stroke-width="0.5" stroke-miterlimit="10" stroke-linecap="round"/>
<path d="M185.045 212.069V221.179" stroke="#495F6F" stroke-width="0.5" stroke-miterlimit="10" stroke-linecap="round"/>
<path d="M185.045 197.62V207.7" stroke="#495F6F" stroke-width="0.5" stroke-miterlimit="10" stroke-linecap="round"/>
<path d="M185.045 183.549V194.009" stroke="#495F6F" stroke-width="0.5" stroke-miterlimit="10" stroke-linecap="round"/>
<path d="M185.045 168.68V179.13" stroke="#495F6F" stroke-width="0.5" stroke-miterlimit="10" stroke-linecap="round"/>
<path d="M185.045 152.45V164.74" stroke="#495F6F" stroke-width="0.5" stroke-miterlimit="10" stroke-linecap="round"/>
<path d="M185.045 139.89V147.79" stroke="#495F6F" stroke-width="0.5" stroke-miterlimit="10" stroke-linecap="round"/>
<path d="M178.076 212.76V221.88" stroke="#495F6F" stroke-width="0.5" stroke-miterlimit="10" stroke-linecap="round"/>
<path d="M178.076 198.319V208.399" stroke="#495F6F" stroke-width="0.5" stroke-miterlimit="10" stroke-linecap="round"/>
<path d="M178.076 184.25V194.71" stroke="#495F6F" stroke-width="0.5" stroke-miterlimit="10" stroke-linecap="round"/>
<path d="M178.076 169.379V179.829" stroke="#495F6F" stroke-width="0.5" stroke-miterlimit="10" stroke-linecap="round"/>
<path d="M178.076 153.149V165.439" stroke="#495F6F" stroke-width="0.5" stroke-miterlimit="10" stroke-linecap="round"/>
<path d="M178.076 140.589V148.489" stroke="#495F6F" stroke-width="0.5" stroke-miterlimit="10" stroke-linecap="round"/>
<path d="M170.925 213.109V222.229" stroke="#495F6F" stroke-width="0.5" stroke-miterlimit="10" stroke-linecap="round"/>
<path d="M170.925 198.669V208.749" stroke="#495F6F" stroke-width="0.5" stroke-miterlimit="10" stroke-linecap="round"/>
<path d="M170.925 184.6V195.06" stroke="#495F6F" stroke-width="0.5" stroke-miterlimit="10" stroke-linecap="round"/>
<path d="M170.925 169.72V180.18" stroke="#495F6F" stroke-width="0.5" stroke-miterlimit="10" stroke-linecap="round"/>
<path d="M170.925 153.5V165.79" stroke="#495F6F" stroke-width="0.5" stroke-miterlimit="10" stroke-linecap="round"/>
<path d="M170.925 140.939V148.839" stroke="#495F6F" stroke-width="0.5" stroke-miterlimit="10" stroke-linecap="round"/>
<path d="M163.246 212.939V222.049" stroke="#495F6F" stroke-width="0.5" stroke-miterlimit="10" stroke-linecap="round"/>
<path d="M163.246 198.489V208.569" stroke="#495F6F" stroke-width="0.5" stroke-miterlimit="10" stroke-linecap="round"/>
<path d="M163.246 184.43V194.88" stroke="#495F6F" stroke-width="0.5" stroke-miterlimit="10" stroke-linecap="round"/>
<path d="M163.246 169.549V180.009" stroke="#495F6F" stroke-width="0.5" stroke-miterlimit="10" stroke-linecap="round"/>
<path d="M163.246 153.33V165.62" stroke="#495F6F" stroke-width="0.5" stroke-miterlimit="10" stroke-linecap="round"/>
<path d="M163.246 140.77V148.66" stroke="#495F6F" stroke-width="0.5" stroke-miterlimit="10" stroke-linecap="round"/>
<path d="M48.2856 85.9393V225.129C48.2856 229.379 50.3856 230.129 54.0656 232.029L136.966 273.549V37.2593L52.6556 78.6693C49.0656 80.4193 48.2856 81.8593 48.2856 85.9393Z" fill="#558B56"/>
<path d="M136.926 37.2593L156.776 42.1393C158.701 42.6452 160.402 43.7801 161.609 45.3636C162.816 46.9472 163.459 48.8885 163.436 50.8793V259.559C163.461 261.526 162.836 263.445 161.656 265.019C160.477 266.593 158.81 267.732 156.916 268.259L136.916 273.549L136.926 37.2593Z" fill="#A9C5AA"/>
<path d="M48.3554 96.1396H45.0654C42.8231 96.1396 41.0054 97.9574 41.0054 100.2V125.82C41.0054 128.062 42.8231 129.88 45.0654 129.88H48.3554C50.5976 129.88 52.4154 128.062 52.4154 125.82V100.2C52.4154 97.9574 50.5976 96.1396 48.3554 96.1396Z" fill="#A9C5AA"/>
<path d="M48.2455 179.35H44.9555C42.7132 179.35 40.8955 181.167 40.8955 183.41V209.03C40.8955 211.272 42.7132 213.09 44.9555 213.09H48.2455C50.4878 213.09 52.3055 211.272 52.3055 209.03V183.41C52.3055 181.167 50.4878 179.35 48.2455 179.35Z" fill="#A9C5AA"/>
<path d="M99.8352 118H85.6152V191.6H99.8352C107.175 191.6 113.125 175.119 113.125 154.799C113.125 134.479 107.175 118 99.8352 118Z" fill="#558B56"/>
<path d="M85.0957 191.39C94.4956 191.39 102.116 175.057 102.116 154.91C102.116 134.762 94.4956 118.43 85.0957 118.43C75.6958 118.43 68.0757 134.762 68.0757 154.91C68.0757 175.057 75.6958 191.39 85.0957 191.39Z" fill="white"/>
<path d="M82.3253 131.479H71.1753V178.209H82.3253C88.0853 178.209 92.7553 167.749 92.7553 154.839C92.7553 141.929 88.0853 131.479 82.3253 131.479Z" fill="#558B56"/>
<path d="M71.1756 178.21C76.9359 178.21 81.6056 167.747 81.6056 154.84C81.6056 141.933 76.9359 131.47 71.1756 131.47C65.4153 131.47 60.7456 141.933 60.7456 154.84C60.7456 167.747 65.4153 178.21 71.1756 178.21Z" fill="#558B56"/>
<path d="M82.5553 74.9497L57.9453 87.5997" stroke="white" stroke-width="0.5" stroke-miterlimit="10" stroke-linecap="round"/>
<path d="M128.716 75.6197V56.7197C128.718 56.1453 128.573 55.58 128.294 55.0779C128.015 54.5759 127.612 54.154 127.123 53.8527C126.634 53.5515 126.075 53.381 125.502 53.3577C124.928 53.3344 124.357 53.4591 123.846 53.7197L103.526 64.1597L98.2456 66.8697" stroke="white" stroke-width="0.5" stroke-miterlimit="10" stroke-linecap="round"/>
<path d="M128.715 153.459V116.379" stroke="white" stroke-width="0.5" stroke-miterlimit="10" stroke-linecap="round"/>
<path d="M95.3154 241.19L109.465 248.6L123.595 256C124.129 256.281 124.726 256.419 125.329 256.401C125.932 256.383 126.52 256.21 127.036 255.898C127.552 255.586 127.978 255.146 128.275 254.621C128.571 254.096 128.726 253.503 128.725 252.9V168.2" stroke="white" stroke-width="0.5" stroke-miterlimit="10" stroke-linecap="round"/>
<path d="M75.1455 230.629L83.1155 234.799" stroke="white" stroke-width="0.5" stroke-miterlimit="10" stroke-linecap="round"/>
<path d="M71.1357 174.66C68.4257 174.66 66.0657 170.61 64.8257 164.66" stroke="white" stroke-width="0.5" stroke-miterlimit="10" stroke-linecap="round"/>
<path d="M77.8654 162.18C77.5333 164.687 76.909 167.147 76.0054 169.51" stroke="white" stroke-width="0.5" stroke-miterlimit="10" stroke-linecap="round"/>
<path d="M63.9355 157.069C63.9355 156.359 63.9355 155.639 63.9355 154.919C63.9355 144.009 67.1756 135.169 71.1756 135.169C71.7299 135.208 72.2693 135.366 72.7562 135.634C73.2432 135.902 73.6661 136.272 73.9955 136.719" stroke="white" stroke-width="0.5" stroke-miterlimit="10" stroke-linecap="round"/>
<path d="M109.355 137.09C108.095 130.56 106.145 125.2 103.775 121.77" stroke="white" stroke-width="0.5" stroke-miterlimit="10" stroke-linecap="round"/>
<path d="M110.915 154.39C110.915 151.91 110.825 149.48 110.655 147.14" stroke="white" stroke-width="0.5" stroke-miterlimit="10" stroke-linecap="round"/>
<path d="M107.925 177.619C108.737 174.806 109.369 171.943 109.815 169.049" stroke="white" stroke-width="0.5" stroke-miterlimit="10" stroke-linecap="round"/>
<path d="M101.576 189.529C103.699 187.458 105.329 184.936 106.346 182.149" stroke="white" stroke-width="0.5" stroke-miterlimit="10" stroke-linecap="round"/>
<path d="M269.327 91.8154C275.806 75.5749 267.893 57.1568 251.653 50.6774C235.412 44.1981 216.994 52.1112 210.515 68.3517C204.035 84.5922 211.948 103.01 228.189 109.49C244.429 115.969 262.847 108.056 269.327 91.8154Z" fill="#A9C5AA"/>
<path d="M260.807 92.7536C268.518 81.853 265.931 66.7659 255.031 59.0556C244.13 51.3454 229.043 53.9318 221.333 64.8324C213.622 75.7331 216.209 90.8202 227.109 98.5304C238.01 106.241 253.097 103.654 260.807 92.7536Z" fill="#538B56"/>
<path d="M262.995 87.6094C261.633 92.1023 258.969 96.0904 255.341 99.0695C251.712 102.049 247.281 103.885 242.609 104.346C237.937 104.807 233.233 103.873 229.092 101.661C224.951 99.4491 221.558 96.0589 219.344 91.9191C217.129 87.7794 216.192 83.0759 216.65 78.4034C217.108 73.731 218.942 69.2993 221.919 65.6688C224.895 62.0382 228.882 59.3718 233.374 58.0067C237.866 56.6415 242.662 56.639 247.155 57.9994C250.14 58.9029 252.917 60.3857 255.329 62.3629C257.74 64.3401 259.739 66.7731 261.21 69.5228C262.681 72.2725 263.595 75.2851 263.902 78.3884C264.208 81.4918 263.9 84.6251 262.995 87.6094Z" fill="#558B56"/>
<path d="M262.995 87.6094C261.633 92.1023 258.969 96.0904 255.341 99.0695C251.712 102.049 247.281 103.885 242.609 104.346C237.937 104.807 233.233 103.873 229.092 101.661C224.951 99.4491 221.558 96.0589 219.344 91.9191C217.129 87.7794 216.192 83.0759 216.65 78.4034C217.108 73.731 218.942 69.2993 221.919 65.6688C224.895 62.0382 228.882 59.3718 233.374 58.0067C237.866 56.6415 242.662 56.639 247.155 57.9994C250.14 58.9029 252.917 60.3857 255.329 62.3629C257.74 64.3401 259.739 66.7731 261.21 69.5228C262.681 72.2725 263.595 75.2851 263.902 78.3884C264.208 81.4918 263.9 84.6251 262.995 87.6094Z" fill="#A9C5AA"/>
<path d="M241.775 78.9993L243.535 73.1793C244.556 73.6283 245.512 74.2136 246.375 74.9193C246.805 75.3337 247.196 75.7855 247.545 76.2693L247.685 76.1193L249.215 74.2993L249.565 73.8793L248.855 72.4693L248.295 72.5493C247.195 71.4662 245.885 70.619 244.445 70.0593L245.445 66.8593L244.695 65.7593L244.455 66.5593L243.085 66.1393L242.085 69.3993C237.465 68.4693 234.555 70.3993 233.665 73.3293C232.455 77.3293 235.565 79.4093 238.535 81.1493L236.795 86.9993C234.758 86.1987 232.989 84.8358 231.695 83.0693L229.525 85.5893C231.128 87.703 233.336 89.2794 235.855 90.1093L235.125 92.5293L233.995 92.2093L234.885 93.3093L237.245 94.0293L238.245 90.7993C242.905 91.7093 245.835 89.7993 246.725 86.8893C247.915 82.8493 244.735 80.7793 241.775 78.9993ZM239.595 77.6793C238.075 76.6793 237.025 75.6793 237.445 74.2893C237.865 72.8993 239.005 72.2893 241.145 72.5493L239.595 77.6793ZM239.175 87.5793L240.715 82.4793C242.295 83.4793 243.365 84.5393 242.935 85.9493C242.565 87.2293 241.375 87.9393 239.175 87.6193V87.5793Z" fill="#538B56"/>
<path d="M237.465 89.6694L236.465 92.8994L234.105 92.1894L235.105 88.9894C232.587 88.1522 230.38 86.5731 228.775 84.4594L230.945 81.9394C232.241 83.7061 234.009 85.0717 236.045 85.8794L237.795 80.1094C234.795 78.3694 231.715 76.2894 232.925 72.2894C233.815 69.3494 236.725 67.4294 241.355 68.3594L242.355 65.1094L244.715 65.8194L243.715 69.0194C245.753 69.7336 247.578 70.9472 249.025 72.5494L246.965 75.0994C245.793 73.814 244.361 72.7916 242.765 72.0994L241.035 77.9994C244.035 79.7394 247.185 81.8094 245.965 85.8094C245.075 88.6994 242.145 90.5794 237.465 89.6694ZM238.835 76.6694L240.465 71.4994C238.315 71.1994 237.145 71.9694 236.755 73.2394C236.365 74.5094 237.335 75.6294 238.855 76.6294L238.835 76.6694ZM242.185 84.9494C242.605 83.5294 241.545 82.4894 239.965 81.4794L238.465 86.5294C240.635 86.8494 241.825 86.1394 242.205 84.9094L242.185 84.9494Z" fill="#538B56"/>
<path d="M277.525 314.009C321.388 314.009 356.945 306.962 356.945 298.269C356.945 289.576 321.388 282.529 277.525 282.529C233.663 282.529 198.105 289.576 198.105 298.269C198.105 306.962 233.663 314.009 277.525 314.009Z" fill="#A9C5AA"/>
<path d="M311.105 257.54L314.265 260.51L322.345 263.16L323.325 251.26L318.315 245.79L311.105 257.54Z" fill="#FDA893"/>
<path d="M313.935 260.11C313.935 260.11 318.685 262.3 323.325 251.26C323.325 251.26 330.465 253.74 335.445 253.01C340.425 252.28 339.535 262.7 334.025 267.54C328.515 272.38 330.175 279.54 325.825 285.01C321.475 290.48 309.825 295.01 309.825 290.71C309.825 286.41 317.125 273.36 314.055 268.08C310.985 262.8 313.935 260.11 313.935 260.11Z" fill="#9BAB9B"/>
<path d="M252.575 275.81L252.275 280.13L255.335 288.06L265.165 281.3L266.235 273.95L252.575 275.81Z" fill="#FDA893"/>
<path d="M263.245 17.4494C263.245 17.4494 257.015 52.8094 273.855 53.6594C290.695 54.5094 293.645 37.8494 293.645 37.8494C293.645 37.8494 299.135 39.4394 299.425 34.5494C299.685 30.3194 296.835 29.2594 295.675 31.6794L294.095 8.73936L277.305 7.33936L263.245 17.4494Z" fill="#FDA893"/>
<path d="M293.645 37.8496L291.715 61.1496L289.195 63.9996C284.345 69.5096 275.325 70.2096 273.195 63.1896V60.5196L273.555 49.5196L293.645 37.8496Z" fill="#FDA893"/>
<path d="M273.466 53.5694C277.423 53.5753 281.345 52.8322 285.026 51.3794C285.026 51.3794 278.516 57.5794 273.346 56.7194L273.466 53.5694Z" fill="#F18884"/>
<path d="M294.256 8.91948C294.256 8.91948 291.926 0.239483 285.856 1.19948C279.786 2.15948 277.076 4.58948 268.466 1.19948C259.856 -2.19052 251.346 9.25949 259.096 16.9095C264.606 22.3595 268.726 20.1395 271.286 18.1495C271.8 17.7329 272.454 17.5305 273.114 17.5845C273.773 17.6386 274.386 17.9448 274.826 18.4395C275.896 19.6395 277.826 20.8195 281.066 19.5095C297.586 12.7195 280.206 32.4295 295.296 35.7995C295.296 35.7795 307.316 11.1595 294.256 8.91948Z" fill="#333333"/>
<path d="M264.266 142.519C263.352 142.468 262.45 142.74 261.718 143.289C260.986 143.838 260.472 144.628 260.266 145.519C257.096 159.699 244.656 216.159 245.366 224.859C245.966 232.109 246.366 261.729 246.546 272.209C246.558 273.205 246.953 274.158 247.65 274.869C248.347 275.58 249.291 275.996 250.286 276.029L268.366 276.689C269.385 276.727 270.377 276.361 271.127 275.669C271.876 274.978 272.321 274.018 272.366 272.999C272.896 261.419 274.446 227.139 274.536 219.709C274.537 219.189 274.646 218.675 274.856 218.199C277.176 212.969 291.106 181.529 293.596 177.919C296.316 173.979 303.776 165.229 303.886 158.009C303.902 154.46 303.454 150.923 302.556 147.489C302.352 146.693 301.9 145.982 301.265 145.459C300.631 144.936 299.846 144.628 299.026 144.579L264.266 142.519Z" fill="#1F2228"/>
<path d="M296.965 168.7L289.405 211.76C289.291 212.406 289.343 213.071 289.556 213.693C289.77 214.314 290.138 214.87 290.625 215.31L320.625 242.42C321.023 242.78 321.342 243.218 321.561 243.707C321.781 244.196 321.898 244.725 321.903 245.262C321.909 245.798 321.804 246.329 321.594 246.823C321.385 247.316 321.075 247.761 320.685 248.13L309.345 258.8C308.698 259.412 307.86 259.784 306.971 259.851C306.082 259.919 305.198 259.678 304.465 259.17C296.465 253.6 272.465 236.72 267.915 232.02C263.365 227.32 264.715 213.31 265.255 209.35C265.345 208.657 265.626 208.002 266.065 207.46L296.965 168.7Z" fill="#1F2228"/>
<path d="M272.466 272.69C272.576 269.98 272.726 266.09 272.916 261.3C273.266 251.67 273.736 238.39 274.256 223.73C274.336 221.31 274.416 218.93 274.496 216.62V216.69C283.376 198.94 290.676 184.24 293.736 177.98L295.416 175.61L295.836 175C295.936 174.86 295.976 174.79 295.966 174.79C295.909 174.85 295.855 174.913 295.806 174.98L295.356 175.57L293.606 177.91C290.426 184.12 283.016 198.79 274.126 216.53C274.046 218.84 273.966 221.22 273.886 223.63C273.416 238.3 272.986 251.63 272.676 261.21C272.536 266.01 272.426 269.89 272.356 272.61C272.226 274 272.356 274 272.466 272.69Z" fill="#455A64"/>
<path d="M320.015 100.45C319.255 97.1697 317.415 94.2697 315.605 91.4497C312.687 93.2539 309.543 94.6661 306.255 95.6497L307.255 112.59C311.025 112.71 315.255 112.5 317.905 109.86C320.265 107.49 320.785 103.72 320.015 100.45Z" fill="#FDA893"/>
<path d="M308.015 70.5996L299.775 89.2896C302.818 92.2769 305.202 95.867 306.775 99.8296C311.712 97.4017 316.205 94.1597 320.065 90.2396C316.015 84.6196 311.325 73.2296 308.015 70.5996Z" fill="#558B56"/>
<path d="M264.806 66.5096L257.016 128.77C256.636 131.77 254.676 145 257.636 145.77C269.056 154.4 285.116 153.77 304.446 154.82C306.836 155.23 306.316 140.97 306.346 138.55C306.446 129.97 306.796 111.42 308.016 99.8596C309.356 87.1096 312.776 76.7097 308.016 70.6297C303.256 64.5497 294.966 60.3096 294.966 60.3096L291.906 58.3896C291.906 58.3896 289.906 61.3896 273.366 61.6196L271.896 62.3396L264.806 66.5096Z" fill="#558B56"/>
<path d="M278.886 71.7395C278.826 71.7395 278.326 71.0395 277.316 70.0495C276.007 68.7573 274.439 67.7576 272.715 67.1163C270.991 66.475 269.151 66.2069 267.316 66.3295C265.906 66.4195 265.046 66.6695 265.026 66.5995C265.006 66.5295 265.226 66.4795 265.616 66.3695C266.164 66.2073 266.727 66.0968 267.296 66.0395C269.184 65.8272 271.095 66.0604 272.877 66.7204C274.659 67.3803 276.261 68.4485 277.556 69.8395C277.946 70.2556 278.301 70.7039 278.616 71.1795C278.738 71.3486 278.83 71.5383 278.886 71.7395Z" fill="#263238"/>
<path d="M252.635 101.24L251.375 105.41L227.655 95.1396L222.525 103C222.525 103 241.695 116.44 248.085 120C255.035 123.91 260.275 123.54 263.285 117.8C265.292 113.95 266.92 109.914 268.145 105.75L252.635 101.24Z" fill="#FDA893"/>
<path d="M231.346 96.9993L228.206 94.8293C226.536 89.8293 223.446 80.8893 222.526 81.1593C221.606 81.4293 221.096 82.3393 221.386 84.2493C222.076 88.8293 220.946 90.8393 218.276 90.2493C217.356 90.0393 209.366 88.7593 209.366 88.7593C209.366 88.7593 207.156 90.0293 209.366 92.1793C209.366 92.1793 208.286 94.9993 211.226 95.6793C211.226 95.6793 211.596 98.8693 213.806 98.9993C216.17 100.22 218.616 101.276 221.126 102.159L225.126 104.539L231.346 96.9993Z" fill="#FDA893"/>
<path d="M252.375 279.63C252.375 279.63 253.675 284.69 265.165 281.3C265.165 281.3 267.765 288.39 271.485 291.79C275.205 295.19 266.575 301.09 259.335 299.88C252.095 298.67 247.605 304.49 240.625 304.59C233.645 304.69 222.735 298.59 226.105 295.84C229.475 293.09 244.155 290.51 246.305 284.84C248.455 279.17 252.375 279.63 252.375 279.63Z" fill="#9BAB9B"/>
<path d="M334.995 256.12C334.995 256.12 336.235 259.84 332.695 264.46C329.117 269.289 326.546 274.788 325.135 280.63C323.465 287 313.465 289.21 313.465 289.21" stroke="#538B56" stroke-width="0.5" stroke-miterlimit="10" stroke-linecap="round"/>
<path d="M314.625 280.92C314.625 280.92 316.345 277.5 325.795 278.25" stroke="#538B56" stroke-width="0.5" stroke-miterlimit="10" stroke-linecap="round"/>
<path d="M327.865 255.859C327.865 255.859 326.615 265.739 315.865 271.559" stroke="#538B56" stroke-width="0.5" stroke-miterlimit="10" stroke-linecap="round"/>
<path d="M268.795 293.399C268.795 293.399 266.695 296.719 260.875 296.909C254.872 297.186 248.987 298.676 243.575 301.289C237.575 304.009 229.525 297.659 229.525 297.659" stroke="#538B56" stroke-width="0.5" stroke-miterlimit="10" stroke-linecap="round"/>
<path d="M236.695 293.33C236.695 293.33 240.435 292.5 245.835 300.33" stroke="#538B56" stroke-width="0.5" stroke-miterlimit="10" stroke-linecap="round"/>
<path d="M264.466 287.72C264.466 287.72 256.026 293.01 244.746 288.39" stroke="#538B56" stroke-width="0.5" stroke-miterlimit="10" stroke-linecap="round"/>
<path d="M289.815 32.9996C289.815 32.9996 296.345 28.3396 298.485 30.9996C300.005 32.8796 295.965 37.3596 295.965 37.3596L289.965 36.7696L289.815 32.9996Z" fill="#FDA893"/>
<path d="M250.695 100.599L274.005 107.329C274.253 107.392 274.515 107.358 274.739 107.233C274.962 107.109 275.129 106.903 275.205 106.659C276.075 103.379 279.015 92.3293 280.545 85.3593C282.545 76.3593 280.935 71.6393 274.925 67.4493C273.566 66.4962 271.993 65.8918 270.345 65.6893C268.02 65.4267 265.673 65.9212 263.651 67.0995C261.63 68.2778 260.043 70.0768 259.125 72.2293C257.556 75.939 256.22 79.7431 255.125 83.6193C253.125 90.4393 250.915 97.8393 250.315 99.8893C250.272 100.034 250.287 100.19 250.358 100.323C250.43 100.456 250.551 100.555 250.695 100.599Z" fill="#558B56"/>
<path d="M279.206 71.5094C278.025 69.9182 276.577 68.5445 274.926 67.4494C273.566 66.4963 271.994 65.8919 270.346 65.6895" stroke="white" stroke-width="0.5" stroke-miterlimit="10" stroke-linecap="round"/>
<path d="M280.545 85.3594C281.338 82.3636 281.535 79.2412 281.125 76.1694" stroke="white" stroke-width="0.5" stroke-miterlimit="10" stroke-linecap="round"/>
<path d="M263.175 104.199L274.005 107.329C274.253 107.392 274.515 107.358 274.739 107.233C274.962 107.109 275.129 106.903 275.205 106.659C275.885 104.099 277.825 96.7994 279.375 90.3994" stroke="white" stroke-width="0.5" stroke-miterlimit="10" stroke-linecap="round"/>
<path d="M250.695 100.6L258.535 102.86" stroke="white" stroke-width="0.5" stroke-miterlimit="10" stroke-linecap="round"/>
<path d="M308.016 99.8294C308.016 99.8294 308.016 84.9494 305.916 79.6494" stroke="white" stroke-width="0.5" stroke-miterlimit="10" stroke-linecap="round"/>
<path d="M251.355 105.43C251.355 105.43 254.005 108.29 253.575 110.65" stroke="#F18884" stroke-width="0.5" stroke-miterlimit="10" stroke-linecap="round"/>
<path d="M209.896 92.2393C211.734 92.8442 213.643 93.2039 215.576 93.3092" stroke="#F18884" stroke-width="0.5" stroke-miterlimit="10" stroke-linecap="round"/>
<path d="M211.635 95.7695C213.223 96.3088 214.888 96.589 216.565 96.5995" stroke="#F18884" stroke-width="0.5" stroke-miterlimit="10" stroke-linecap="round"/>
<path d="M192.572 101.391L197.572 88.3909C197.599 88.3239 197.61 88.2512 197.603 88.1791C197.596 88.1069 197.572 88.0375 197.533 87.9766C197.494 87.9158 197.441 87.8653 197.378 87.8295C197.315 87.7936 197.244 87.7736 197.172 87.7709L182.992 87.0009C182.904 86.9955 182.817 87.0146 182.74 87.0561C182.663 87.0975 182.599 87.1597 182.555 87.2356C182.511 87.3115 182.49 87.3981 182.493 87.4856C182.496 87.5731 182.523 87.6581 182.572 87.7309L184.912 91.2009C182.382 93.2009 173.642 99.2509 166.672 96.0909C166.58 96.0437 166.476 96.0283 166.375 96.0472C166.274 96.0662 166.183 96.1183 166.115 96.1953C166.047 96.2724 166.007 96.3699 166.001 96.4724C165.995 96.5749 166.023 96.6764 166.082 96.7609C168.082 99.9909 174.602 106.991 189.692 98.3209L191.792 101.451C191.839 101.512 191.901 101.56 191.972 101.591C192.043 101.622 192.121 101.636 192.198 101.63C192.275 101.624 192.349 101.599 192.415 101.557C192.48 101.516 192.534 101.458 192.572 101.391Z" fill="#538B56"/>
<path d="M93.4653 20.5392C93.2153 20.5392 92.9753 20.5392 92.7253 20.5392C92.4658 18.7126 91.7913 16.9697 90.7537 15.4441C89.716 13.9186 88.3426 12.6511 86.739 11.7387C85.1354 10.8264 83.3441 10.2935 81.5026 10.1809C79.661 10.0683 77.8181 10.379 76.1153 11.0892C75.0386 7.91633 72.8701 5.22888 69.9964 3.50591C67.1227 1.78295 63.7305 1.13644 60.4246 1.68163C57.1186 2.22683 54.1136 3.92829 51.9453 6.48273C49.777 9.03718 48.5863 12.2786 48.5853 15.6292C45.7687 15.6292 43.0675 16.7481 41.0759 18.7398C39.0842 20.7314 37.9653 23.4326 37.9653 26.2492C37.9653 29.0658 39.0842 31.7671 41.0759 33.7587C43.0675 35.7504 45.7687 36.8692 48.5853 36.8692L93.4653 36.9992C98.6553 36.9992 102.865 33.3292 102.865 28.7892C102.865 24.2492 98.6053 20.5392 93.4653 20.5392Z" fill="#558B56"/>
<path d="M70.2953 37.0597C70.1983 39.3924 69.2114 41.5992 67.5375 43.2267C65.8635 44.8541 63.6297 45.7785 61.2953 45.8097H60.9653C59.9021 45.7827 58.8522 45.5659 57.8652 45.1697C56.911 44.7924 56.0282 44.2546 55.2553 43.5797C55.0553 43.4097 54.8753 43.2297 54.6853 43.0397C53.8547 42.1753 53.2023 41.1559 52.7653 40.0397C52.657 39.7683 52.5635 39.4912 52.4853 39.2097C52.291 38.559 52.1736 37.8877 52.1353 37.2097C52.2297 34.8753 53.2155 32.6659 54.8897 31.0364C56.5639 29.4068 58.7991 28.4811 61.1353 28.4497C61.7425 28.4503 62.3485 28.5073 62.9453 28.6197C63.2422 28.6777 63.5359 28.7511 63.8253 28.8397C64.9864 29.1903 66.0646 29.7719 66.9953 30.5497C67.1979 30.7124 67.3915 30.886 67.5753 31.0697C68.3002 31.7783 68.9018 32.603 69.3553 33.5097C69.8007 34.42 70.0978 35.3956 70.2353 36.3997C70.2686 36.6064 70.2886 36.8264 70.2953 37.0597Z" fill="white"/>
<path d="M69.3656 37.0593C69.2809 39.1616 68.3903 41.1508 66.8785 42.6142C65.3667 44.0776 63.3496 44.903 61.2456 44.9193H60.9556C59.0644 44.8729 57.2492 44.1652 55.8256 42.9193C55.6461 42.7697 55.4758 42.6094 55.3156 42.4393C54.57 41.6709 53.9822 40.7638 53.5856 39.7693C53.4874 39.5279 53.4039 39.2808 53.3356 39.0293C53.1567 38.4273 53.0493 37.8063 53.0156 37.1793C53.1028 35.076 53.9956 33.0868 55.509 31.6237C57.0225 30.1605 59.0406 29.3354 61.1456 29.3193C61.6893 29.3137 62.2322 29.3639 62.7656 29.4693C63.0356 29.4693 63.2956 29.5893 63.5556 29.6593C64.5993 29.9762 65.5685 30.4999 66.4056 31.1993C66.5883 31.3453 66.7619 31.5023 66.9256 31.6693C67.5787 32.3038 68.1197 33.0442 68.5256 33.8593C68.9321 34.6758 69.1991 35.5546 69.3156 36.4593C69.3356 36.6493 69.3556 36.8493 69.3656 37.0593Z" fill="#558B56"/>
<path d="M62.0257 40.6894V41.7894H60.6157V40.7394C59.7223 40.7063 58.8477 40.474 58.0557 40.0594L58.7957 38.3394C59.5031 38.7326 60.2964 38.9455 61.1057 38.9594C61.7757 38.9594 62.0157 38.8094 62.0157 38.5794C62.0157 37.6994 58.1557 38.4294 58.1357 35.8294C58.1357 34.6994 58.9357 33.7494 60.5757 33.5094V32.4194H61.9857V33.4794C62.6838 33.5334 63.364 33.7272 63.9857 34.0494L63.2857 35.7594C62.6884 35.4385 62.0236 35.2637 61.3457 35.2494C60.6557 35.2494 60.4357 35.4594 60.4357 35.6894C60.4357 36.5294 64.2957 35.8094 64.3157 38.3794C64.3357 39.4694 63.5657 40.4094 62.0257 40.6894Z" fill="white"/>
</svg>
